SplineFontDB: 3.0
FontName: mnicmpStar-Italic
FullName: mnicmp Star Italic
FamilyName: mnicmp Star
Weight: Regular
Copyright: Copyright (c) 2017, Stewart C. Russell - @scruss
UComments: "2017-2-4: Created with FontForge (http://fontforge.org)"
Version: 001.000
ItalicAngle: -12.08
UnderlinePosition: -100
UnderlineWidth: 50
Ascent: 800
Descent: 200
InvalidEm: 0
LayerCount: 2
Layer: 0 0 "Back" 1
Layer: 1 0 "Fore" 0
XUID: [1021 886 777920654 16168781]
StyleMap: 0x0001
FSType: 0
OS2Version: 0
OS2_WeightWidthSlopeOnly: 0
OS2_UseTypoMetrics: 1
CreationTime: 1486248847
ModificationTime: 1486416739
PfmFamily: 49
TTFWeight: 400
TTFWidth: 5
LineGap: 90
VLineGap: 0
OS2TypoAscent: 0
OS2TypoAOffset: 1
OS2TypoDescent: 0
OS2TypoDOffset: 1
OS2TypoLinegap: 90
OS2WinAscent: 0
OS2WinAOffset: 1
OS2WinDescent: 0
OS2WinDOffset: 1
HheadAscent: 0
HheadAOffset: 1
HheadDescent: 0
HheadDOffset: 1
OS2Vendor: 'PfEd'
MarkAttachClasses: 1
DEI: 91125

StartChar: glyph0
Encoding: 8593 8593 0
Width: 600
VWidth: 0
UnlinkRmOvrlpSave: 1
Flags: W
HStem: 210 21G<203.471 224.619 227.381 248.529> 210 21G<203.471 224.619 227.381 248.529> 613 20G<130.714 143.286 290.714 303.286 450.714 463.286> 780 20G<326.714 339.286>
LayerCount: 2
Back
Fore
SplineSet
226 300 m 1x70
 237 265 l 1
 274 265 l 1
 244 244 l 1
 255 210 l 1
 226 231 l 1
 197 210 l 1
 208 244 l 1
 178 265 l 1
 215 265 l 1
 226 300 l 1x70
244 383 m 1
 255 348 l 1
 291 348 l 1
 262 327 l 1
 273 293 l 1
 244 314 l 1
 214 293 l 1
 226 327 l 1
 196 348 l 1
 233 348 l 1
 244 383 l 1
262 467 m 1
 273 432 l 1
 309 432 l 1
 280 411 l 1
 291 377 l 1
 262 398 l 1
 232 377 l 1
 244 411 l 1
 214 432 l 1
 251 432 l 1
 262 467 l 1
280 550 m 1
 291 515 l 1
 327 515 l 1
 298 494 l 1
 309 460 l 1
 280 481 l 1
 250 460 l 1
 261 494 l 1
 232 515 l 1
 268 515 l 1
 280 550 l 1
457 633 m 1
 468 598 l 1
 505 598 l 1
 475 577 l 1
 487 543 l 1
 457 564 l 1
 428 543 l 1
 439 577 l 1
 410 598 l 1
 446 598 l 1
 457 633 l 1
297 633 m 1
 308 598 l 1
 345 598 l 1
 315 577 l 1
 327 543 l 1
 297 564 l 1
 268 543 l 1
 279 577 l 1
 250 598 l 1
 286 598 l 1
 297 633 l 1
137 633 m 1
 148 598 l 1
 185 598 l 1
 155 577 l 1
 167 543 l 1
 137 564 l 1
 108 543 l 1
 119 577 l 1
 90 598 l 1
 126 598 l 1
 137 633 l 1
422 717 m 1
 433 682 l 1
 470 682 l 1
 440 661 l 1
 452 627 l 1
 422 648 l 1
 393 627 l 1
 404 661 l 1
 375 682 l 1
 411 682 l 1
 422 717 l 1
315 717 m 1
 326 682 l 1
 363 682 l 1
 333 661 l 1
 345 627 l 1
 315 648 l 1
 286 627 l 1
 297 661 l 1
 268 682 l 1
 304 682 l 1
 315 717 l 1
208 717 m 1
 219 682 l 1
 256 682 l 1
 226 661 l 1
 238 627 l 1
 208 648 l 1
 179 627 l 1
 190 661 l 1
 161 682 l 1
 197 682 l 1
 208 717 l 1
333 800 m 1
 344 765 l 1
 381 765 l 1
 351 744 l 1
 362 710 l 1
 333 731 l 1
 304 710 l 1
 315 744 l 1
 285 765 l 1
 322 765 l 1
 333 800 l 1
EndSplineSet
EndChar

StartChar: glyph1
Encoding: 8216 8216 1
Width: 600
VWidth: 0
UnlinkRmOvrlpSave: 1
Flags: W
HStem: 543 257 613 20G<166.714 179.286>
VStem: 90 131
LayerCount: 2
Back
Fore
SplineSet
173 633 m 1x60
 184 598 l 1
 221 598 l 1
 191 577 l 1
 203 543 l 1
 173 564 l 1
 144 543 l 1xa0
 155 577 l 1
 126 598 l 1
 162 598 l 1
 173 633 l 1x60
137 717 m 1
 148 682 l 1
 185 682 l 1
 155 661 l 1
 167 627 l 1
 137 648 l 1
 108 627 l 1
 119 661 l 1
 90 682 l 1
 126 682 l 1
 137 717 l 1
155 800 m 1
 166 765 l 1
 203 765 l 1
 173 744 l 1
 184 710 l 1
 155 731 l 1
 126 710 l 1
 137 744 l 1
 107 765 l 1
 144 765 l 1
 155 800 l 1
EndSplineSet
EndChar

StartChar: glyph2
Encoding: 8220 8220 2
Width: 600
VWidth: 0
UnlinkRmOvrlpSave: 1
Flags: W
HStem: 543 257 613 20G<165.714 178.286 325.714 338.286>
VStem: 90 290
LayerCount: 2
Back
Fore
SplineSet
332 633 m 1x60
 343 598 l 1
 380 598 l 1
 350 577 l 1
 362 543 l 1
 332 564 l 1
 303 543 l 1xa0
 314 577 l 1
 285 598 l 1
 321 598 l 1
 332 633 l 1x60
172 633 m 1x60
 183 598 l 1
 220 598 l 1
 190 577 l 1
 202 543 l 1
 172 564 l 1
 143 543 l 1xa0
 154 577 l 1
 125 598 l 1
 161 598 l 1
 172 633 l 1x60
297 717 m 1
 308 682 l 1
 345 682 l 1
 315 661 l 1
 327 627 l 1
 297 648 l 1
 268 627 l 1
 279 661 l 1
 250 682 l 1
 286 682 l 1
 297 717 l 1
137 717 m 1
 148 682 l 1
 185 682 l 1
 155 661 l 1
 167 627 l 1
 137 648 l 1
 108 627 l 1
 119 661 l 1
 90 682 l 1
 126 682 l 1
 137 717 l 1
315 800 m 1
 326 765 l 1
 363 765 l 1
 333 744 l 1
 344 710 l 1
 315 731 l 1
 286 710 l 1
 297 744 l 1
 267 765 l 1
 304 765 l 1
 315 800 l 1
155 800 m 1
 166 765 l 1
 203 765 l 1
 173 744 l 1
 184 710 l 1
 155 731 l 1
 126 710 l 1
 137 744 l 1
 107 765 l 1
 144 765 l 1
 155 800 l 1
EndSplineSet
EndChar

StartChar: dollar
Encoding: 36 36 4
Width: 600
VWidth: 0
UnlinkRmOvrlpSave: 1
Flags: W
HStem: 210 21G<204.471 225.619 228.381 249.529> 210 21G<204.471 225.619 228.381 249.529> 613 20G<131.714 144.286 291.714 304.286> 780 20G<327.714 340.286>
LayerCount: 2
Back
Fore
SplineSet
227 300 m 1x70
 238 265 l 1
 275 265 l 1
 245 244 l 1
 256 210 l 1
 227 231 l 1
 198 210 l 1
 209 244 l 1
 179 265 l 1
 216 265 l 1
 227 300 l 1x70
352 383 m 1
 363 348 l 1
 399 348 l 1
 370 327 l 1
 381 293 l 1
 352 314 l 1
 322 293 l 1
 334 327 l 1
 304 348 l 1
 341 348 l 1
 352 383 l 1
245 383 m 1
 256 348 l 1
 292 348 l 1
 263 327 l 1
 274 293 l 1
 245 314 l 1
 215 293 l 1
 227 327 l 1
 197 348 l 1
 234 348 l 1
 245 383 l 1
138 383 m 1
 149 348 l 1
 185 348 l 1
 156 327 l 1
 167 293 l 1
 138 314 l 1
 108 293 l 1
 120 327 l 1
 90 348 l 1
 127 348 l 1
 138 383 l 1
423 467 m 1
 434 432 l 1
 470 432 l 1
 441 411 l 1
 452 377 l 1
 423 398 l 1
 393 377 l 1
 405 411 l 1
 375 432 l 1
 412 432 l 1
 423 467 l 1
263 467 m 1
 274 432 l 1
 310 432 l 1
 281 411 l 1
 292 377 l 1
 263 398 l 1
 233 377 l 1
 245 411 l 1
 215 432 l 1
 252 432 l 1
 263 467 l 1
388 550 m 1
 399 515 l 1
 435 515 l 1
 406 494 l 1
 417 460 l 1
 388 481 l 1
 358 460 l 1
 369 494 l 1
 340 515 l 1
 376 515 l 1
 388 550 l 1
281 550 m 1
 292 515 l 1
 328 515 l 1
 299 494 l 1
 310 460 l 1
 281 481 l 1
 251 460 l 1
 262 494 l 1
 233 515 l 1
 269 515 l 1
 281 550 l 1
174 550 m 1
 185 515 l 1
 221 515 l 1
 192 494 l 1
 203 460 l 1
 174 481 l 1
 144 460 l 1
 155 494 l 1
 126 515 l 1
 162 515 l 1
 174 550 l 1
298 633 m 1
 309 598 l 1
 346 598 l 1
 316 577 l 1
 328 543 l 1
 298 564 l 1
 269 543 l 1
 280 577 l 1
 251 598 l 1
 287 598 l 1
 298 633 l 1
138 633 m 1
 149 598 l 1
 186 598 l 1
 156 577 l 1
 168 543 l 1
 138 564 l 1
 109 543 l 1
 120 577 l 1
 91 598 l 1
 127 598 l 1
 138 633 l 1
423 717 m 1
 434 682 l 1
 471 682 l 1
 441 661 l 1
 453 627 l 1
 423 648 l 1
 394 627 l 1
 405 661 l 1
 376 682 l 1
 412 682 l 1
 423 717 l 1
316 717 m 1
 327 682 l 1
 364 682 l 1
 334 661 l 1
 346 627 l 1
 316 648 l 1
 287 627 l 1
 298 661 l 1
 269 682 l 1
 305 682 l 1
 316 717 l 1
209 717 m 1
 220 682 l 1
 257 682 l 1
 227 661 l 1
 239 627 l 1
 209 648 l 1
 180 627 l 1
 191 661 l 1
 162 682 l 1
 198 682 l 1
 209 717 l 1
334 800 m 1
 345 765 l 1
 382 765 l 1
 352 744 l 1
 363 710 l 1
 334 731 l 1
 305 710 l 1
 316 744 l 1
 286 765 l 1
 323 765 l 1
 334 800 l 1
EndSplineSet
EndChar

StartChar: section
Encoding: 167 167 5
Width: 600
VWidth: 0
UnlinkRmOvrlpSave: 1
Flags: W
HStem: 210 21G<115.471 136.619 139.381 160.529 222.471 243.619 246.381 267.529> 210 21G<115.471 136.619 139.381 160.529 222.471 243.619 246.381 267.529> 613 20G<309.714 322.286 415.714 428.286> 780 20G<451.714 464.286 558.714 571.286>
LayerCount: 2
Back
Fore
SplineSet
245 300 m 1x70
 256 265 l 1
 293 265 l 1
 263 244 l 1
 274 210 l 1
 245 231 l 1
 216 210 l 1
 227 244 l 1
 197 265 l 1
 234 265 l 1
 245 300 l 1x70
138 300 m 1
 149 265 l 1
 186 265 l 1
 156 244 l 1
 167 210 l 1
 138 231 l 1
 109 210 l 1
 120 244 l 1
 90 265 l 1
 127 265 l 1
 138 300 l 1
316 383 m 1
 327 348 l 1
 363 348 l 1
 334 327 l 1
 345 293 l 1
 316 314 l 1
 286 293 l 1
 298 327 l 1
 268 348 l 1
 305 348 l 1
 316 383 l 1
387 467 m 1
 398 432 l 1
 434 432 l 1
 405 411 l 1
 416 377 l 1
 387 398 l 1
 357 377 l 1
 369 411 l 1
 339 432 l 1
 376 432 l 1
 387 467 l 1
281 467 m 1
 292 432 l 1
 328 432 l 1
 299 411 l 1
 310 377 l 1
 281 398 l 1
 251 377 l 1
 263 411 l 1
 233 432 l 1
 270 432 l 1
 281 467 l 1
459 550 m 1
 470 515 l 1
 506 515 l 1
 477 494 l 1
 488 460 l 1
 459 481 l 1
 429 460 l 1
 440 494 l 1
 411 515 l 1
 447 515 l 1
 459 550 l 1
245 550 m 1
 256 515 l 1
 292 515 l 1
 263 494 l 1
 274 460 l 1
 245 481 l 1
 215 460 l 1
 226 494 l 1
 197 515 l 1
 233 515 l 1
 245 550 l 1
422 633 m 1
 433 598 l 1
 470 598 l 1
 440 577 l 1
 452 543 l 1
 422 564 l 1
 393 543 l 1
 404 577 l 1
 375 598 l 1
 411 598 l 1
 422 633 l 1
316 633 m 1
 327 598 l 1
 364 598 l 1
 334 577 l 1
 346 543 l 1
 316 564 l 1
 287 543 l 1
 298 577 l 1
 269 598 l 1
 305 598 l 1
 316 633 l 1
387 717 m 1
 398 682 l 1
 435 682 l 1
 405 661 l 1
 417 627 l 1
 387 648 l 1
 358 627 l 1
 369 661 l 1
 340 682 l 1
 376 682 l 1
 387 717 l 1
565 800 m 1
 576 765 l 1
 613 765 l 1
 583 744 l 1
 594 710 l 1
 565 731 l 1
 536 710 l 1
 547 744 l 1
 517 765 l 1
 554 765 l 1
 565 800 l 1
458 800 m 1
 469 765 l 1
 506 765 l 1
 476 744 l 1
 487 710 l 1
 458 731 l 1
 429 710 l 1
 440 744 l 1
 410 765 l 1
 447 765 l 1
 458 800 l 1
EndSplineSet
EndChar

StartChar: parenleft
Encoding: 40 40 6
Width: 600
VWidth: 0
UnlinkRmOvrlpSave: 1
Flags: W
HStem: 210 21G<185.471 206.619 209.381 230.529> 210 21G<185.471 206.619 209.381 230.529> 613 20G<166.714 179.286> 780 20G<308.714 321.286>
VStem: 90 273
LayerCount: 2
Back
Fore
SplineSet
208 300 m 1x78
 219 265 l 1
 256 265 l 1
 226 244 l 1
 237 210 l 1
 208 231 l 1
 179 210 l 1
 190 244 l 1
 160 265 l 1
 197 265 l 1
 208 300 l 1x78
173 383 m 1
 184 348 l 1
 220 348 l 1
 191 327 l 1
 202 293 l 1
 173 314 l 1
 143 293 l 1
 155 327 l 1
 125 348 l 1
 162 348 l 1
 173 383 l 1
138 467 m 1
 149 432 l 1
 185 432 l 1
 156 411 l 1
 167 377 l 1
 138 398 l 1
 108 377 l 1
 120 411 l 1
 90 432 l 1
 127 432 l 1
 138 467 l 1
156 550 m 1
 167 515 l 1
 203 515 l 1
 174 494 l 1
 185 460 l 1
 156 481 l 1
 126 460 l 1
 137 494 l 1
 108 515 l 1
 144 515 l 1
 156 550 l 1
173 633 m 1
 184 598 l 1
 221 598 l 1
 191 577 l 1
 203 543 l 1
 173 564 l 1
 144 543 l 1
 155 577 l 1
 126 598 l 1
 162 598 l 1
 173 633 l 1
244 717 m 1
 255 682 l 1
 292 682 l 1
 262 661 l 1
 274 627 l 1
 244 648 l 1
 215 627 l 1
 226 661 l 1
 197 682 l 1
 233 682 l 1
 244 717 l 1
315 800 m 1
 326 765 l 1
 363 765 l 1
 333 744 l 1
 344 710 l 1
 315 731 l 1
 286 710 l 1
 297 744 l 1
 267 765 l 1
 304 765 l 1
 315 800 l 1
EndSplineSet
EndChar

StartChar: comma
Encoding: 44 44 7
Width: 600
VWidth: 0
UnlinkRmOvrlpSave: 1
Flags: W
HStem: 210 21G<115.471 136.619 139.381 160.529> 210 21G<115.471 136.619 139.381 160.529>
VStem: 90 255
LayerCount: 2
Back
Fore
SplineSet
138 300 m 1x60
 149 265 l 1
 186 265 l 1
 156 244 l 1
 167 210 l 1
 138 231 l 1
 109 210 l 1
 120 244 l 1
 90 265 l 1
 127 265 l 1
 138 300 l 1x60
209 383 m 1
 220 348 l 1
 256 348 l 1
 227 327 l 1
 238 293 l 1
 209 314 l 1
 179 293 l 1
 191 327 l 1
 161 348 l 1
 198 348 l 1
 209 383 l 1
280 467 m 1
 291 432 l 1
 327 432 l 1
 298 411 l 1
 309 377 l 1
 280 398 l 1
 250 377 l 1
 262 411 l 1
 232 432 l 1
 269 432 l 1
 280 467 l 1
174 467 m 1
 185 432 l 1
 221 432 l 1
 192 411 l 1
 203 377 l 1
 174 398 l 1
 144 377 l 1
 156 411 l 1
 126 432 l 1
 163 432 l 1
 174 467 l 1
298 550 m 1
 309 515 l 1
 345 515 l 1
 316 494 l 1
 327 460 l 1
 298 481 l 1
 268 460 l 1
 279 494 l 1
 250 515 l 1
 286 515 l 1
 298 550 l 1
192 550 m 1
 203 515 l 1
 239 515 l 1
 210 494 l 1
 221 460 l 1
 192 481 l 1
 162 460 l 1
 173 494 l 1
 144 515 l 1
 180 515 l 1
 192 550 l 1
EndSplineSet
EndChar

StartChar: zero
Encoding: 48 48 8
Width: 600
VWidth: 0
UnlinkRmOvrlpSave: 1
Flags: W
HStem: 210 21G<186.471 207.619 210.381 231.529 292.471 313.619 316.381 337.529> 210 21G<186.471 207.619 210.381 231.529 292.471 313.619 316.381 337.529> 613 20G<166.714 179.286 486.714 499.286> 780 20G<309.714 322.286 415.714 428.286>
LayerCount: 2
Back
Fore
SplineSet
315 300 m 1x70
 326 265 l 1
 363 265 l 1
 333 244 l 1
 344 210 l 1
 315 231 l 1
 286 210 l 1
 297 244 l 1
 267 265 l 1
 304 265 l 1
 315 300 l 1x70
209 300 m 1
 220 265 l 1
 257 265 l 1
 227 244 l 1
 238 210 l 1
 209 231 l 1
 180 210 l 1
 191 244 l 1
 161 265 l 1
 198 265 l 1
 209 300 l 1
387 383 m 1
 398 348 l 1
 434 348 l 1
 405 327 l 1
 416 293 l 1
 387 314 l 1
 357 293 l 1
 369 327 l 1
 339 348 l 1
 376 348 l 1
 387 383 l 1
173 383 m 1
 184 348 l 1
 220 348 l 1
 191 327 l 1
 202 293 l 1
 173 314 l 1
 143 293 l 1
 155 327 l 1
 125 348 l 1
 162 348 l 1
 173 383 l 1
458 467 m 1
 469 432 l 1
 505 432 l 1
 476 411 l 1
 487 377 l 1
 458 398 l 1
 428 377 l 1
 440 411 l 1
 410 432 l 1
 447 432 l 1
 458 467 l 1
138 467 m 1
 149 432 l 1
 185 432 l 1
 156 411 l 1
 167 377 l 1
 138 398 l 1
 108 377 l 1
 120 411 l 1
 90 432 l 1
 127 432 l 1
 138 467 l 1
476 550 m 1
 487 515 l 1
 523 515 l 1
 494 494 l 1
 505 460 l 1
 476 481 l 1
 446 460 l 1
 457 494 l 1
 428 515 l 1
 464 515 l 1
 476 550 l 1
156 550 m 1
 167 515 l 1
 203 515 l 1
 174 494 l 1
 185 460 l 1
 156 481 l 1
 126 460 l 1
 137 494 l 1
 108 515 l 1
 144 515 l 1
 156 550 l 1
493 633 m 1
 504 598 l 1
 541 598 l 1
 511 577 l 1
 523 543 l 1
 493 564 l 1
 464 543 l 1
 475 577 l 1
 446 598 l 1
 482 598 l 1
 493 633 l 1
173 633 m 1
 184 598 l 1
 221 598 l 1
 191 577 l 1
 203 543 l 1
 173 564 l 1
 144 543 l 1
 155 577 l 1
 126 598 l 1
 162 598 l 1
 173 633 l 1
458 717 m 1
 469 682 l 1
 506 682 l 1
 476 661 l 1
 488 627 l 1
 458 648 l 1
 429 627 l 1
 440 661 l 1
 411 682 l 1
 447 682 l 1
 458 717 l 1
244 717 m 1
 255 682 l 1
 292 682 l 1
 262 661 l 1
 274 627 l 1
 244 648 l 1
 215 627 l 1
 226 661 l 1
 197 682 l 1
 233 682 l 1
 244 717 l 1
422 800 m 1
 433 765 l 1
 470 765 l 1
 440 744 l 1
 451 710 l 1
 422 731 l 1
 393 710 l 1
 404 744 l 1
 374 765 l 1
 411 765 l 1
 422 800 l 1
316 800 m 1
 327 765 l 1
 364 765 l 1
 334 744 l 1
 345 710 l 1
 316 731 l 1
 287 710 l 1
 298 744 l 1
 268 765 l 1
 305 765 l 1
 316 800 l 1
EndSplineSet
EndChar

StartChar: glyph9
Encoding: 9785 9785 9
Width: 600
VWidth: 0
UnlinkRmOvrlpSave: 1
Flags: W
LayerCount: 2
Back
Fore
SplineSet
458 383 m 1
 469 348 l 1
 505 348 l 1
 476 327 l 1
 487 293 l 1
 458 314 l 1
 428 293 l 1
 440 327 l 1
 410 348 l 1
 447 348 l 1
 458 383 l 1
138 383 m 1
 149 348 l 1
 185 348 l 1
 156 327 l 1
 167 293 l 1
 138 314 l 1
 108 293 l 1
 120 327 l 1
 90 348 l 1
 127 348 l 1
 138 383 l 1
423 467 m 1
 434 432 l 1
 470 432 l 1
 441 411 l 1
 452 377 l 1
 423 398 l 1
 393 377 l 1
 405 411 l 1
 375 432 l 1
 412 432 l 1
 423 467 l 1
316 467 m 1
 327 432 l 1
 363 432 l 1
 334 411 l 1
 345 377 l 1
 316 398 l 1
 286 377 l 1
 298 411 l 1
 268 432 l 1
 305 432 l 1
 316 467 l 1
209 467 m 1
 220 432 l 1
 256 432 l 1
 227 411 l 1
 238 377 l 1
 209 398 l 1
 179 377 l 1
 191 411 l 1
 161 432 l 1
 198 432 l 1
 209 467 l 1
476 717 m 1
 487 682 l 1
 524 682 l 1
 494 661 l 1
 506 627 l 1
 476 648 l 1
 447 627 l 1
 458 661 l 1
 429 682 l 1
 465 682 l 1
 476 717 l 1
262 717 m 1
 273 682 l 1
 310 682 l 1
 280 661 l 1
 292 627 l 1
 262 648 l 1
 233 627 l 1
 244 661 l 1
 215 682 l 1
 251 682 l 1
 262 717 l 1
EndSplineSet
EndChar

StartChar: four
Encoding: 52 52 10
Width: 600
VWidth: 0
UnlinkRmOvrlpSave: 1
Flags: W
HStem: 210 21G<346.471 367.619 370.381 391.529> 210 21G<346.471 367.619 370.381 391.529> 613 20G<273.714 286.286 433.714 446.286> 780 20G<415.714 428.286>
LayerCount: 2
Back
Fore
SplineSet
369 300 m 1x70
 380 265 l 1
 417 265 l 1
 387 244 l 1
 398 210 l 1
 369 231 l 1
 340 210 l 1
 351 244 l 1
 321 265 l 1
 358 265 l 1
 369 300 l 1x70
387 383 m 1
 398 348 l 1
 434 348 l 1
 405 327 l 1
 416 293 l 1
 387 314 l 1
 357 293 l 1
 369 327 l 1
 339 348 l 1
 376 348 l 1
 387 383 l 1
458 467 m 1
 469 432 l 1
 505 432 l 1
 476 411 l 1
 487 377 l 1
 458 398 l 1
 428 377 l 1
 440 411 l 1
 410 432 l 1
 447 432 l 1
 458 467 l 1
351 467 m 1
 362 432 l 1
 398 432 l 1
 369 411 l 1
 380 377 l 1
 351 398 l 1
 321 377 l 1
 333 411 l 1
 303 432 l 1
 340 432 l 1
 351 467 l 1
245 467 m 1
 256 432 l 1
 292 432 l 1
 263 411 l 1
 274 377 l 1
 245 398 l 1
 215 377 l 1
 227 411 l 1
 197 432 l 1
 234 432 l 1
 245 467 l 1
138 467 m 1
 149 432 l 1
 185 432 l 1
 156 411 l 1
 167 377 l 1
 138 398 l 1
 108 377 l 1
 120 411 l 1
 90 432 l 1
 127 432 l 1
 138 467 l 1
423 550 m 1
 434 515 l 1
 470 515 l 1
 441 494 l 1
 452 460 l 1
 423 481 l 1
 393 460 l 1
 404 494 l 1
 375 515 l 1
 411 515 l 1
 423 550 l 1
209 550 m 1
 220 515 l 1
 256 515 l 1
 227 494 l 1
 238 460 l 1
 209 481 l 1
 179 460 l 1
 190 494 l 1
 161 515 l 1
 197 515 l 1
 209 550 l 1
440 633 m 1
 451 598 l 1
 488 598 l 1
 458 577 l 1
 470 543 l 1
 440 564 l 1
 411 543 l 1
 422 577 l 1
 393 598 l 1
 429 598 l 1
 440 633 l 1
280 633 m 1
 291 598 l 1
 328 598 l 1
 298 577 l 1
 310 543 l 1
 280 564 l 1
 251 543 l 1
 262 577 l 1
 233 598 l 1
 269 598 l 1
 280 633 l 1
458 717 m 1
 469 682 l 1
 506 682 l 1
 476 661 l 1
 488 627 l 1
 458 648 l 1
 429 627 l 1
 440 661 l 1
 411 682 l 1
 447 682 l 1
 458 717 l 1
351 717 m 1
 362 682 l 1
 399 682 l 1
 369 661 l 1
 381 627 l 1
 351 648 l 1
 322 627 l 1
 333 661 l 1
 304 682 l 1
 340 682 l 1
 351 717 l 1
422 800 m 1
 433 765 l 1
 470 765 l 1
 440 744 l 1
 451 710 l 1
 422 731 l 1
 393 710 l 1
 404 744 l 1
 374 765 l 1
 411 765 l 1
 422 800 l 1
EndSplineSet
EndChar

StartChar: periodcentered
Encoding: 183 183 11
Width: 600
VWidth: 0
UnlinkRmOvrlpSave: 1
Flags: W
HStem: 377 256
VStem: 90 309
LayerCount: 2
Back
Fore
SplineSet
280 467 m 1
 291 432 l 1
 327 432 l 1
 298 411 l 1
 309 377 l 1
 280 398 l 1
 250 377 l 1
 262 411 l 1
 232 432 l 1
 269 432 l 1
 280 467 l 1
174 467 m 1
 185 432 l 1
 221 432 l 1
 192 411 l 1
 203 377 l 1
 174 398 l 1
 144 377 l 1
 156 411 l 1
 126 432 l 1
 163 432 l 1
 174 467 l 1
352 550 m 1
 363 515 l 1
 399 515 l 1
 370 494 l 1
 381 460 l 1
 352 481 l 1
 322 460 l 1
 333 494 l 1
 304 515 l 1
 340 515 l 1
 352 550 l 1
245 550 m 1
 256 515 l 1
 292 515 l 1
 263 494 l 1
 274 460 l 1
 245 481 l 1
 215 460 l 1
 226 494 l 1
 197 515 l 1
 233 515 l 1
 245 550 l 1
138 550 m 1
 149 515 l 1
 185 515 l 1
 156 494 l 1
 167 460 l 1
 138 481 l 1
 108 460 l 1
 119 494 l 1
 90 515 l 1
 126 515 l 1
 138 550 l 1
315 633 m 1
 326 598 l 1
 363 598 l 1
 333 577 l 1
 345 543 l 1
 315 564 l 1
 286 543 l 1
 297 577 l 1
 268 598 l 1
 304 598 l 1
 315 633 l 1
209 633 m 1
 220 598 l 1
 257 598 l 1
 227 577 l 1
 239 543 l 1
 209 564 l 1
 180 543 l 1
 191 577 l 1
 162 598 l 1
 198 598 l 1
 209 633 l 1
EndSplineSet
EndChar

StartChar: eight
Encoding: 56 56 12
Width: 600
VWidth: 0
UnlinkRmOvrlpSave: 1
Flags: W
HStem: 210 21G<150.471 171.619 174.381 195.529 257.471 278.619 281.381 302.529 364.471 385.619 388.381 409.529> 210 21G<150.471 171.619 174.381 195.529 257.471 278.619 281.381 302.529 364.471 385.619 388.381 409.529> 613 20G<184.714 197.286 504.714 517.286> 780 20G<273.714 286.286 380.714 393.286 487.714 500.286>
LayerCount: 2
Back
Fore
SplineSet
387 300 m 1x70
 398 265 l 1
 435 265 l 1
 405 244 l 1
 416 210 l 1
 387 231 l 1
 358 210 l 1
 369 244 l 1
 339 265 l 1
 376 265 l 1
 387 300 l 1x70
280 300 m 1
 291 265 l 1
 328 265 l 1
 298 244 l 1
 309 210 l 1
 280 231 l 1
 251 210 l 1
 262 244 l 1
 232 265 l 1
 269 265 l 1
 280 300 l 1
173 300 m 1
 184 265 l 1
 221 265 l 1
 191 244 l 1
 202 210 l 1
 173 231 l 1
 144 210 l 1
 155 244 l 1
 125 265 l 1
 162 265 l 1
 173 300 l 1
458 383 m 1
 469 348 l 1
 505 348 l 1
 476 327 l 1
 487 293 l 1
 458 314 l 1
 428 293 l 1
 440 327 l 1
 410 348 l 1
 447 348 l 1
 458 383 l 1
138 383 m 1
 149 348 l 1
 185 348 l 1
 156 327 l 1
 167 293 l 1
 138 314 l 1
 108 293 l 1
 120 327 l 1
 90 348 l 1
 127 348 l 1
 138 383 l 1
476 467 m 1
 487 432 l 1
 523 432 l 1
 494 411 l 1
 505 377 l 1
 476 398 l 1
 446 377 l 1
 458 411 l 1
 428 432 l 1
 465 432 l 1
 476 467 l 1
156 467 m 1
 167 432 l 1
 203 432 l 1
 174 411 l 1
 185 377 l 1
 156 398 l 1
 126 377 l 1
 138 411 l 1
 108 432 l 1
 145 432 l 1
 156 467 l 1
441 550 m 1
 452 515 l 1
 488 515 l 1
 459 494 l 1
 470 460 l 1
 441 481 l 1
 411 460 l 1
 422 494 l 1
 393 515 l 1
 429 515 l 1
 441 550 l 1
334 550 m 1
 345 515 l 1
 381 515 l 1
 352 494 l 1
 363 460 l 1
 334 481 l 1
 304 460 l 1
 315 494 l 1
 286 515 l 1
 322 515 l 1
 334 550 l 1
227 550 m 1
 238 515 l 1
 274 515 l 1
 245 494 l 1
 256 460 l 1
 227 481 l 1
 197 460 l 1
 208 494 l 1
 179 515 l 1
 215 515 l 1
 227 550 l 1
511 633 m 1
 522 598 l 1
 559 598 l 1
 529 577 l 1
 541 543 l 1
 511 564 l 1
 482 543 l 1
 493 577 l 1
 464 598 l 1
 500 598 l 1
 511 633 l 1
191 633 m 1
 202 598 l 1
 239 598 l 1
 209 577 l 1
 221 543 l 1
 191 564 l 1
 162 543 l 1
 173 577 l 1
 144 598 l 1
 180 598 l 1
 191 633 l 1
529 717 m 1
 540 682 l 1
 577 682 l 1
 547 661 l 1
 559 627 l 1
 529 648 l 1
 500 627 l 1
 511 661 l 1
 482 682 l 1
 518 682 l 1
 529 717 l 1
209 717 m 1
 220 682 l 1
 257 682 l 1
 227 661 l 1
 239 627 l 1
 209 648 l 1
 180 627 l 1
 191 661 l 1
 162 682 l 1
 198 682 l 1
 209 717 l 1
494 800 m 1
 505 765 l 1
 542 765 l 1
 512 744 l 1
 523 710 l 1
 494 731 l 1
 465 710 l 1
 476 744 l 1
 446 765 l 1
 483 765 l 1
 494 800 l 1
387 800 m 1
 398 765 l 1
 435 765 l 1
 405 744 l 1
 416 710 l 1
 387 731 l 1
 358 710 l 1
 369 744 l 1
 339 765 l 1
 376 765 l 1
 387 800 l 1
280 800 m 1
 291 765 l 1
 328 765 l 1
 298 744 l 1
 309 710 l 1
 280 731 l 1
 251 710 l 1
 262 744 l 1
 232 765 l 1
 269 765 l 1
 280 800 l 1
EndSplineSet
EndChar

StartChar: less
Encoding: 60 60 13
Width: 600
VWidth: 0
UnlinkRmOvrlpSave: 1
Flags: W
HStem: 210 21G<381.471 402.619 405.381 426.529> 210 21G<381.471 402.619 405.381 426.529> 613 20G<255.714 268.286> 780 20G<504.714 517.286>
LayerCount: 2
Back
Fore
SplineSet
404 300 m 1x70
 415 265 l 1
 452 265 l 1
 422 244 l 1
 433 210 l 1
 404 231 l 1
 375 210 l 1
 386 244 l 1
 356 265 l 1
 393 265 l 1
 404 300 l 1x70
315 383 m 1
 326 348 l 1
 362 348 l 1
 333 327 l 1
 344 293 l 1
 315 314 l 1
 285 293 l 1
 297 327 l 1
 267 348 l 1
 304 348 l 1
 315 383 l 1
227 467 m 1
 238 432 l 1
 274 432 l 1
 245 411 l 1
 256 377 l 1
 227 398 l 1
 197 377 l 1
 209 411 l 1
 179 432 l 1
 216 432 l 1
 227 467 l 1
138 550 m 1
 149 515 l 1
 185 515 l 1
 156 494 l 1
 167 460 l 1
 138 481 l 1
 108 460 l 1
 119 494 l 1
 90 515 l 1
 126 515 l 1
 138 550 l 1
262 633 m 1
 273 598 l 1
 310 598 l 1
 280 577 l 1
 292 543 l 1
 262 564 l 1
 233 543 l 1
 244 577 l 1
 215 598 l 1
 251 598 l 1
 262 633 l 1
386 717 m 1
 397 682 l 1
 434 682 l 1
 404 661 l 1
 416 627 l 1
 386 648 l 1
 357 627 l 1
 368 661 l 1
 339 682 l 1
 375 682 l 1
 386 717 l 1
511 800 m 1
 522 765 l 1
 559 765 l 1
 529 744 l 1
 540 710 l 1
 511 731 l 1
 482 710 l 1
 493 744 l 1
 463 765 l 1
 500 765 l 1
 511 800 l 1
EndSplineSet
EndChar

StartChar: at
Encoding: 64 64 14
Width: 600
VWidth: 0
UnlinkRmOvrlpSave: 1
Flags: W
HStem: 210 21G<150.471 171.619 174.381 195.529 257.471 278.619 281.381 302.529 364.471 385.619 388.381 409.529> 210 21G<150.471 171.619 174.381 195.529 257.471 278.619 281.381 302.529 364.471 385.619 388.381 409.529> 613 20G<184.714 197.286 397.714 410.286 504.714 517.286> 780 20G<273.714 286.286 380.714 393.286 487.714 500.286>
LayerCount: 2
Back
Fore
SplineSet
387 300 m 1x70
 398 265 l 1
 435 265 l 1
 405 244 l 1
 416 210 l 1
 387 231 l 1
 358 210 l 1
 369 244 l 1
 339 265 l 1
 376 265 l 1
 387 300 l 1x70
280 300 m 1
 291 265 l 1
 328 265 l 1
 298 244 l 1
 309 210 l 1
 280 231 l 1
 251 210 l 1
 262 244 l 1
 232 265 l 1
 269 265 l 1
 280 300 l 1
173 300 m 1
 184 265 l 1
 221 265 l 1
 191 244 l 1
 202 210 l 1
 173 231 l 1
 144 210 l 1
 155 244 l 1
 125 265 l 1
 162 265 l 1
 173 300 l 1
138 383 m 1
 149 348 l 1
 185 348 l 1
 156 327 l 1
 167 293 l 1
 138 314 l 1
 108 293 l 1
 120 327 l 1
 90 348 l 1
 127 348 l 1
 138 383 l 1
423 467 m 1
 434 432 l 1
 470 432 l 1
 441 411 l 1
 452 377 l 1
 423 398 l 1
 393 377 l 1
 405 411 l 1
 375 432 l 1
 412 432 l 1
 423 467 l 1
316 467 m 1
 327 432 l 1
 363 432 l 1
 334 411 l 1
 345 377 l 1
 316 398 l 1
 286 377 l 1
 298 411 l 1
 268 432 l 1
 305 432 l 1
 316 467 l 1
156 467 m 1
 167 432 l 1
 203 432 l 1
 174 411 l 1
 185 377 l 1
 156 398 l 1
 126 377 l 1
 138 411 l 1
 108 432 l 1
 145 432 l 1
 156 467 l 1
494 550 m 1
 505 515 l 1
 541 515 l 1
 512 494 l 1
 523 460 l 1
 494 481 l 1
 464 460 l 1
 475 494 l 1
 446 515 l 1
 482 515 l 1
 494 550 l 1
334 550 m 1
 345 515 l 1
 381 515 l 1
 352 494 l 1
 363 460 l 1
 334 481 l 1
 304 460 l 1
 315 494 l 1
 286 515 l 1
 322 515 l 1
 334 550 l 1
174 550 m 1
 185 515 l 1
 221 515 l 1
 192 494 l 1
 203 460 l 1
 174 481 l 1
 144 460 l 1
 155 494 l 1
 126 515 l 1
 162 515 l 1
 174 550 l 1
511 633 m 1
 522 598 l 1
 559 598 l 1
 529 577 l 1
 541 543 l 1
 511 564 l 1
 482 543 l 1
 493 577 l 1
 464 598 l 1
 500 598 l 1
 511 633 l 1
404 633 m 1
 415 598 l 1
 452 598 l 1
 422 577 l 1
 434 543 l 1
 404 564 l 1
 375 543 l 1
 386 577 l 1
 357 598 l 1
 393 598 l 1
 404 633 l 1
191 633 m 1
 202 598 l 1
 239 598 l 1
 209 577 l 1
 221 543 l 1
 191 564 l 1
 162 543 l 1
 173 577 l 1
 144 598 l 1
 180 598 l 1
 191 633 l 1
529 717 m 1
 540 682 l 1
 577 682 l 1
 547 661 l 1
 559 627 l 1
 529 648 l 1
 500 627 l 1
 511 661 l 1
 482 682 l 1
 518 682 l 1
 529 717 l 1
209 717 m 1
 220 682 l 1
 257 682 l 1
 227 661 l 1
 239 627 l 1
 209 648 l 1
 180 627 l 1
 191 661 l 1
 162 682 l 1
 198 682 l 1
 209 717 l 1
494 800 m 1
 505 765 l 1
 542 765 l 1
 512 744 l 1
 523 710 l 1
 494 731 l 1
 465 710 l 1
 476 744 l 1
 446 765 l 1
 483 765 l 1
 494 800 l 1
387 800 m 1
 398 765 l 1
 435 765 l 1
 405 744 l 1
 416 710 l 1
 387 731 l 1
 358 710 l 1
 369 744 l 1
 339 765 l 1
 376 765 l 1
 387 800 l 1
280 800 m 1
 291 765 l 1
 328 765 l 1
 298 744 l 1
 309 710 l 1
 280 731 l 1
 251 710 l 1
 262 744 l 1
 232 765 l 1
 269 765 l 1
 280 800 l 1
EndSplineSet
EndChar

StartChar: D
Encoding: 68 68 15
Width: 600
VWidth: 0
UnlinkRmOvrlpSave: 1
Flags: W
HStem: 210 21G<115.471 136.619 139.381 160.529 222.471 243.619 246.381 267.529 328.471 349.619 352.381 373.529> 210 21G<115.471 136.619 139.381 160.529 222.471 243.619 246.381 267.529 328.471 349.619 352.381 373.529> 613 20G<255.714 268.286 522.714 535.286> 780 20G<238.714 251.286 345.714 358.286 451.714 464.286>
LayerCount: 2
Back
Fore
SplineSet
351 300 m 1x70
 362 265 l 1
 399 265 l 1
 369 244 l 1
 380 210 l 1
 351 231 l 1
 322 210 l 1
 333 244 l 1
 303 265 l 1
 340 265 l 1
 351 300 l 1x70
245 300 m 1
 256 265 l 1
 293 265 l 1
 263 244 l 1
 274 210 l 1
 245 231 l 1
 216 210 l 1
 227 244 l 1
 197 265 l 1
 234 265 l 1
 245 300 l 1
138 300 m 1
 149 265 l 1
 186 265 l 1
 156 244 l 1
 167 210 l 1
 138 231 l 1
 109 210 l 1
 120 244 l 1
 90 265 l 1
 127 265 l 1
 138 300 l 1
476 383 m 1
 487 348 l 1
 523 348 l 1
 494 327 l 1
 505 293 l 1
 476 314 l 1
 446 293 l 1
 458 327 l 1
 428 348 l 1
 465 348 l 1
 476 383 l 1
209 383 m 1
 220 348 l 1
 256 348 l 1
 227 327 l 1
 238 293 l 1
 209 314 l 1
 179 293 l 1
 191 327 l 1
 161 348 l 1
 198 348 l 1
 209 383 l 1
494 467 m 1
 505 432 l 1
 541 432 l 1
 512 411 l 1
 523 377 l 1
 494 398 l 1
 464 377 l 1
 476 411 l 1
 446 432 l 1
 483 432 l 1
 494 467 l 1
227 467 m 1
 238 432 l 1
 274 432 l 1
 245 411 l 1
 256 377 l 1
 227 398 l 1
 197 377 l 1
 209 411 l 1
 179 432 l 1
 216 432 l 1
 227 467 l 1
512 550 m 1
 523 515 l 1
 559 515 l 1
 530 494 l 1
 541 460 l 1
 512 481 l 1
 482 460 l 1
 493 494 l 1
 464 515 l 1
 500 515 l 1
 512 550 l 1
245 550 m 1
 256 515 l 1
 292 515 l 1
 263 494 l 1
 274 460 l 1
 245 481 l 1
 215 460 l 1
 226 494 l 1
 197 515 l 1
 233 515 l 1
 245 550 l 1
529 633 m 1
 540 598 l 1
 577 598 l 1
 547 577 l 1
 559 543 l 1
 529 564 l 1
 500 543 l 1
 511 577 l 1
 482 598 l 1
 518 598 l 1
 529 633 l 1
262 633 m 1
 273 598 l 1
 310 598 l 1
 280 577 l 1
 292 543 l 1
 262 564 l 1
 233 543 l 1
 244 577 l 1
 215 598 l 1
 251 598 l 1
 262 633 l 1
547 717 m 1
 558 682 l 1
 595 682 l 1
 565 661 l 1
 577 627 l 1
 547 648 l 1
 518 627 l 1
 529 661 l 1
 500 682 l 1
 536 682 l 1
 547 717 l 1
280 717 m 1
 291 682 l 1
 328 682 l 1
 298 661 l 1
 310 627 l 1
 280 648 l 1
 251 627 l 1
 262 661 l 1
 233 682 l 1
 269 682 l 1
 280 717 l 1
458 800 m 1
 469 765 l 1
 506 765 l 1
 476 744 l 1
 487 710 l 1
 458 731 l 1
 429 710 l 1
 440 744 l 1
 410 765 l 1
 447 765 l 1
 458 800 l 1
352 800 m 1
 363 765 l 1
 400 765 l 1
 370 744 l 1
 381 710 l 1
 352 731 l 1
 323 710 l 1
 334 744 l 1
 304 765 l 1
 341 765 l 1
 352 800 l 1
245 800 m 1
 256 765 l 1
 293 765 l 1
 263 744 l 1
 274 710 l 1
 245 731 l 1
 216 710 l 1
 227 744 l 1
 197 765 l 1
 234 765 l 1
 245 800 l 1
EndSplineSet
EndChar

StartChar: Ccedilla
Encoding: 199 199 16
Width: 600
VWidth: 0
UnlinkRmOvrlpSave: 1
Flags: W
HStem: 210 21G<239.471 260.619 263.381 284.529> 210 21G<239.471 260.619 263.381 284.529> 613 20G<166.714 179.286> 780 20G<255.714 268.286 362.714 375.286 469.714 482.286>
LayerCount: 2
Back
Fore
SplineSet
262 300 m 1x70
 273 265 l 1
 310 265 l 1
 280 244 l 1
 291 210 l 1
 262 231 l 1
 233 210 l 1
 244 244 l 1
 214 265 l 1
 251 265 l 1
 262 300 l 1x70
387 383 m 1
 398 348 l 1
 434 348 l 1
 405 327 l 1
 416 293 l 1
 387 314 l 1
 357 293 l 1
 369 327 l 1
 339 348 l 1
 376 348 l 1
 387 383 l 1
280 383 m 1
 291 348 l 1
 327 348 l 1
 298 327 l 1
 309 293 l 1
 280 314 l 1
 250 293 l 1
 262 327 l 1
 232 348 l 1
 269 348 l 1
 280 383 l 1
173 383 m 1
 184 348 l 1
 220 348 l 1
 191 327 l 1
 202 293 l 1
 173 314 l 1
 143 293 l 1
 155 327 l 1
 125 348 l 1
 162 348 l 1
 173 383 l 1
458 467 m 1
 469 432 l 1
 505 432 l 1
 476 411 l 1
 487 377 l 1
 458 398 l 1
 428 377 l 1
 440 411 l 1
 410 432 l 1
 447 432 l 1
 458 467 l 1
138 467 m 1
 149 432 l 1
 185 432 l 1
 156 411 l 1
 167 377 l 1
 138 398 l 1
 108 377 l 1
 120 411 l 1
 90 432 l 1
 127 432 l 1
 138 467 l 1
156 550 m 1
 167 515 l 1
 203 515 l 1
 174 494 l 1
 185 460 l 1
 156 481 l 1
 126 460 l 1
 137 494 l 1
 108 515 l 1
 144 515 l 1
 156 550 l 1
173 633 m 1
 184 598 l 1
 221 598 l 1
 191 577 l 1
 203 543 l 1
 173 564 l 1
 144 543 l 1
 155 577 l 1
 126 598 l 1
 162 598 l 1
 173 633 l 1
511 717 m 1
 522 682 l 1
 559 682 l 1
 529 661 l 1
 541 627 l 1
 511 648 l 1
 482 627 l 1
 493 661 l 1
 464 682 l 1
 500 682 l 1
 511 717 l 1
191 717 m 1
 202 682 l 1
 239 682 l 1
 209 661 l 1
 221 627 l 1
 191 648 l 1
 162 627 l 1
 173 661 l 1
 144 682 l 1
 180 682 l 1
 191 717 l 1
476 800 m 1
 487 765 l 1
 524 765 l 1
 494 744 l 1
 505 710 l 1
 476 731 l 1
 447 710 l 1
 458 744 l 1
 428 765 l 1
 465 765 l 1
 476 800 l 1
369 800 m 1
 380 765 l 1
 417 765 l 1
 387 744 l 1
 398 710 l 1
 369 731 l 1
 340 710 l 1
 351 744 l 1
 321 765 l 1
 358 765 l 1
 369 800 l 1
262 800 m 1
 273 765 l 1
 310 765 l 1
 280 744 l 1
 291 710 l 1
 262 731 l 1
 233 710 l 1
 244 744 l 1
 214 765 l 1
 251 765 l 1
 262 800 l 1
EndSplineSet
EndChar

StartChar: H
Encoding: 72 72 17
Width: 600
VWidth: 0
UnlinkRmOvrlpSave: 1
Flags: W
HStem: 210 21G<115.471 136.619 139.381 160.529 435.471 456.619 459.381 480.529> 210 21G<115.471 136.619 139.381 160.529 435.471 456.619 459.381 480.529> 613 20G<202.714 215.286 522.714 535.286> 780 20G<238.714 251.286 558.714 571.286>
LayerCount: 2
Back
Fore
SplineSet
458 300 m 1x70
 469 265 l 1
 506 265 l 1
 476 244 l 1
 487 210 l 1
 458 231 l 1
 429 210 l 1
 440 244 l 1
 410 265 l 1
 447 265 l 1
 458 300 l 1x70
138 300 m 1
 149 265 l 1
 186 265 l 1
 156 244 l 1
 167 210 l 1
 138 231 l 1
 109 210 l 1
 120 244 l 1
 90 265 l 1
 127 265 l 1
 138 300 l 1
476 383 m 1
 487 348 l 1
 523 348 l 1
 494 327 l 1
 505 293 l 1
 476 314 l 1
 446 293 l 1
 458 327 l 1
 428 348 l 1
 465 348 l 1
 476 383 l 1
156 383 m 1
 167 348 l 1
 203 348 l 1
 174 327 l 1
 185 293 l 1
 156 314 l 1
 126 293 l 1
 138 327 l 1
 108 348 l 1
 145 348 l 1
 156 383 l 1
494 467 m 1
 505 432 l 1
 541 432 l 1
 512 411 l 1
 523 377 l 1
 494 398 l 1
 464 377 l 1
 476 411 l 1
 446 432 l 1
 483 432 l 1
 494 467 l 1
174 467 m 1
 185 432 l 1
 221 432 l 1
 192 411 l 1
 203 377 l 1
 174 398 l 1
 144 377 l 1
 156 411 l 1
 126 432 l 1
 163 432 l 1
 174 467 l 1
512 550 m 1
 523 515 l 1
 559 515 l 1
 530 494 l 1
 541 460 l 1
 512 481 l 1
 482 460 l 1
 493 494 l 1
 464 515 l 1
 500 515 l 1
 512 550 l 1
405 550 m 1
 416 515 l 1
 452 515 l 1
 423 494 l 1
 434 460 l 1
 405 481 l 1
 375 460 l 1
 386 494 l 1
 357 515 l 1
 393 515 l 1
 405 550 l 1
299 550 m 1
 310 515 l 1
 346 515 l 1
 317 494 l 1
 328 460 l 1
 299 481 l 1
 269 460 l 1
 280 494 l 1
 251 515 l 1
 287 515 l 1
 299 550 l 1
192 550 m 1
 203 515 l 1
 239 515 l 1
 210 494 l 1
 221 460 l 1
 192 481 l 1
 162 460 l 1
 173 494 l 1
 144 515 l 1
 180 515 l 1
 192 550 l 1
529 633 m 1
 540 598 l 1
 577 598 l 1
 547 577 l 1
 559 543 l 1
 529 564 l 1
 500 543 l 1
 511 577 l 1
 482 598 l 1
 518 598 l 1
 529 633 l 1
209 633 m 1
 220 598 l 1
 257 598 l 1
 227 577 l 1
 239 543 l 1
 209 564 l 1
 180 543 l 1
 191 577 l 1
 162 598 l 1
 198 598 l 1
 209 633 l 1
547 717 m 1
 558 682 l 1
 595 682 l 1
 565 661 l 1
 577 627 l 1
 547 648 l 1
 518 627 l 1
 529 661 l 1
 500 682 l 1
 536 682 l 1
 547 717 l 1
227 717 m 1
 238 682 l 1
 275 682 l 1
 245 661 l 1
 257 627 l 1
 227 648 l 1
 198 627 l 1
 209 661 l 1
 180 682 l 1
 216 682 l 1
 227 717 l 1
565 800 m 1
 576 765 l 1
 613 765 l 1
 583 744 l 1
 594 710 l 1
 565 731 l 1
 536 710 l 1
 547 744 l 1
 517 765 l 1
 554 765 l 1
 565 800 l 1
245 800 m 1
 256 765 l 1
 293 765 l 1
 263 744 l 1
 274 710 l 1
 245 731 l 1
 216 710 l 1
 227 744 l 1
 197 765 l 1
 234 765 l 1
 245 800 l 1
EndSplineSet
EndChar

StartChar: Edieresis
Encoding: 203 203 18
Width: 600
VWidth: 0
UnlinkRmOvrlpSave: 1
Flags: W
HStem: 210 21G<115.471 136.619 139.381 160.529 222.471 243.619 246.381 267.529 328.471 349.619 352.381 373.529 435.471 456.619 459.381 480.529> 210 21G<115.471 136.619 139.381 160.529 222.471 243.619 246.381 267.529 328.471 349.619 352.381 373.529 435.471 456.619 459.381 480.529> 613 20G<202.714 215.286 309.714 322.286 415.714 428.286 522.714 535.286> 780 20G<291.714 304.286 505.714 518.286>
LayerCount: 2
Back
Fore
SplineSet
458 300 m 1x70
 469 265 l 1
 506 265 l 1
 476 244 l 1
 487 210 l 1
 458 231 l 1
 429 210 l 1
 440 244 l 1
 410 265 l 1
 447 265 l 1
 458 300 l 1x70
351 300 m 1
 362 265 l 1
 399 265 l 1
 369 244 l 1
 380 210 l 1
 351 231 l 1
 322 210 l 1
 333 244 l 1
 303 265 l 1
 340 265 l 1
 351 300 l 1
245 300 m 1
 256 265 l 1
 293 265 l 1
 263 244 l 1
 274 210 l 1
 245 231 l 1
 216 210 l 1
 227 244 l 1
 197 265 l 1
 234 265 l 1
 245 300 l 1
138 300 m 1
 149 265 l 1
 186 265 l 1
 156 244 l 1
 167 210 l 1
 138 231 l 1
 109 210 l 1
 120 244 l 1
 90 265 l 1
 127 265 l 1
 138 300 l 1
156 383 m 1
 167 348 l 1
 203 348 l 1
 174 327 l 1
 185 293 l 1
 156 314 l 1
 126 293 l 1
 138 327 l 1
 108 348 l 1
 145 348 l 1
 156 383 l 1
387 467 m 1
 398 432 l 1
 434 432 l 1
 405 411 l 1
 416 377 l 1
 387 398 l 1
 357 377 l 1
 369 411 l 1
 339 432 l 1
 376 432 l 1
 387 467 l 1
281 467 m 1
 292 432 l 1
 328 432 l 1
 299 411 l 1
 310 377 l 1
 281 398 l 1
 251 377 l 1
 263 411 l 1
 233 432 l 1
 270 432 l 1
 281 467 l 1
174 467 m 1
 185 432 l 1
 221 432 l 1
 192 411 l 1
 203 377 l 1
 174 398 l 1
 144 377 l 1
 156 411 l 1
 126 432 l 1
 163 432 l 1
 174 467 l 1
192 550 m 1
 203 515 l 1
 239 515 l 1
 210 494 l 1
 221 460 l 1
 192 481 l 1
 162 460 l 1
 173 494 l 1
 144 515 l 1
 180 515 l 1
 192 550 l 1
529 633 m 1
 540 598 l 1
 577 598 l 1
 547 577 l 1
 559 543 l 1
 529 564 l 1
 500 543 l 1
 511 577 l 1
 482 598 l 1
 518 598 l 1
 529 633 l 1
422 633 m 1
 433 598 l 1
 470 598 l 1
 440 577 l 1
 452 543 l 1
 422 564 l 1
 393 543 l 1
 404 577 l 1
 375 598 l 1
 411 598 l 1
 422 633 l 1
316 633 m 1
 327 598 l 1
 364 598 l 1
 334 577 l 1
 346 543 l 1
 316 564 l 1
 287 543 l 1
 298 577 l 1
 269 598 l 1
 305 598 l 1
 316 633 l 1
209 633 m 1
 220 598 l 1
 257 598 l 1
 227 577 l 1
 239 543 l 1
 209 564 l 1
 180 543 l 1
 191 577 l 1
 162 598 l 1
 198 598 l 1
 209 633 l 1
512 800 m 1
 523 765 l 1
 560 765 l 1
 530 744 l 1
 541 710 l 1
 512 731 l 1
 483 710 l 1
 494 744 l 1
 464 765 l 1
 501 765 l 1
 512 800 l 1
298 800 m 1
 309 765 l 1
 346 765 l 1
 316 744 l 1
 327 710 l 1
 298 731 l 1
 269 710 l 1
 280 744 l 1
 250 765 l 1
 287 765 l 1
 298 800 l 1
EndSplineSet
EndChar

StartChar: L
Encoding: 76 76 19
Width: 600
VWidth: 0
UnlinkRmOvrlpSave: 1
Flags: W
HStem: 210 21G<115.471 136.619 139.381 160.529 222.471 243.619 246.381 267.529 328.471 349.619 352.381 373.529 435.471 456.619 459.381 480.529> 210 21G<115.471 136.619 139.381 160.529 222.471 243.619 246.381 267.529 328.471 349.619 352.381 373.529 435.471 456.619 459.381 480.529> 613 20G<202.714 215.286> 780 20G<238.714 251.286>
LayerCount: 2
Back
Fore
SplineSet
458 300 m 1x70
 469 265 l 1
 506 265 l 1
 476 244 l 1
 487 210 l 1
 458 231 l 1
 429 210 l 1
 440 244 l 1
 410 265 l 1
 447 265 l 1
 458 300 l 1x70
351 300 m 1
 362 265 l 1
 399 265 l 1
 369 244 l 1
 380 210 l 1
 351 231 l 1
 322 210 l 1
 333 244 l 1
 303 265 l 1
 340 265 l 1
 351 300 l 1
245 300 m 1
 256 265 l 1
 293 265 l 1
 263 244 l 1
 274 210 l 1
 245 231 l 1
 216 210 l 1
 227 244 l 1
 197 265 l 1
 234 265 l 1
 245 300 l 1
138 300 m 1
 149 265 l 1
 186 265 l 1
 156 244 l 1
 167 210 l 1
 138 231 l 1
 109 210 l 1
 120 244 l 1
 90 265 l 1
 127 265 l 1
 138 300 l 1
156 383 m 1
 167 348 l 1
 203 348 l 1
 174 327 l 1
 185 293 l 1
 156 314 l 1
 126 293 l 1
 138 327 l 1
 108 348 l 1
 145 348 l 1
 156 383 l 1
174 467 m 1
 185 432 l 1
 221 432 l 1
 192 411 l 1
 203 377 l 1
 174 398 l 1
 144 377 l 1
 156 411 l 1
 126 432 l 1
 163 432 l 1
 174 467 l 1
192 550 m 1
 203 515 l 1
 239 515 l 1
 210 494 l 1
 221 460 l 1
 192 481 l 1
 162 460 l 1
 173 494 l 1
 144 515 l 1
 180 515 l 1
 192 550 l 1
209 633 m 1
 220 598 l 1
 257 598 l 1
 227 577 l 1
 239 543 l 1
 209 564 l 1
 180 543 l 1
 191 577 l 1
 162 598 l 1
 198 598 l 1
 209 633 l 1
227 717 m 1
 238 682 l 1
 275 682 l 1
 245 661 l 1
 257 627 l 1
 227 648 l 1
 198 627 l 1
 209 661 l 1
 180 682 l 1
 216 682 l 1
 227 717 l 1
245 800 m 1
 256 765 l 1
 293 765 l 1
 263 744 l 1
 274 710 l 1
 245 731 l 1
 216 710 l 1
 227 744 l 1
 197 765 l 1
 234 765 l 1
 245 800 l 1
EndSplineSet
EndChar

StartChar: P
Encoding: 80 80 20
Width: 600
VWidth: 0
UnlinkRmOvrlpSave: 1
Flags: W
HStem: 210 21G<115.471 136.619 139.381 160.529> 210 21G<115.471 136.619 139.381 160.529> 613 20G<202.714 215.286 522.714 535.286> 780 20G<238.714 251.286 345.714 358.286 451.714 464.286>
LayerCount: 2
Back
Fore
SplineSet
138 300 m 1x70
 149 265 l 1
 186 265 l 1
 156 244 l 1
 167 210 l 1
 138 231 l 1
 109 210 l 1
 120 244 l 1
 90 265 l 1
 127 265 l 1
 138 300 l 1x70
156 383 m 1
 167 348 l 1
 203 348 l 1
 174 327 l 1
 185 293 l 1
 156 314 l 1
 126 293 l 1
 138 327 l 1
 108 348 l 1
 145 348 l 1
 156 383 l 1
174 467 m 1
 185 432 l 1
 221 432 l 1
 192 411 l 1
 203 377 l 1
 174 398 l 1
 144 377 l 1
 156 411 l 1
 126 432 l 1
 163 432 l 1
 174 467 l 1
405 550 m 1
 416 515 l 1
 452 515 l 1
 423 494 l 1
 434 460 l 1
 405 481 l 1
 375 460 l 1
 386 494 l 1
 357 515 l 1
 393 515 l 1
 405 550 l 1
299 550 m 1
 310 515 l 1
 346 515 l 1
 317 494 l 1
 328 460 l 1
 299 481 l 1
 269 460 l 1
 280 494 l 1
 251 515 l 1
 287 515 l 1
 299 550 l 1
192 550 m 1
 203 515 l 1
 239 515 l 1
 210 494 l 1
 221 460 l 1
 192 481 l 1
 162 460 l 1
 173 494 l 1
 144 515 l 1
 180 515 l 1
 192 550 l 1
529 633 m 1
 540 598 l 1
 577 598 l 1
 547 577 l 1
 559 543 l 1
 529 564 l 1
 500 543 l 1
 511 577 l 1
 482 598 l 1
 518 598 l 1
 529 633 l 1
209 633 m 1
 220 598 l 1
 257 598 l 1
 227 577 l 1
 239 543 l 1
 209 564 l 1
 180 543 l 1
 191 577 l 1
 162 598 l 1
 198 598 l 1
 209 633 l 1
547 717 m 1
 558 682 l 1
 595 682 l 1
 565 661 l 1
 577 627 l 1
 547 648 l 1
 518 627 l 1
 529 661 l 1
 500 682 l 1
 536 682 l 1
 547 717 l 1
227 717 m 1
 238 682 l 1
 275 682 l 1
 245 661 l 1
 257 627 l 1
 227 648 l 1
 198 627 l 1
 209 661 l 1
 180 682 l 1
 216 682 l 1
 227 717 l 1
458 800 m 1
 469 765 l 1
 506 765 l 1
 476 744 l 1
 487 710 l 1
 458 731 l 1
 429 710 l 1
 440 744 l 1
 410 765 l 1
 447 765 l 1
 458 800 l 1
352 800 m 1
 363 765 l 1
 400 765 l 1
 370 744 l 1
 381 710 l 1
 352 731 l 1
 323 710 l 1
 334 744 l 1
 304 765 l 1
 341 765 l 1
 352 800 l 1
245 800 m 1
 256 765 l 1
 293 765 l 1
 263 744 l 1
 274 710 l 1
 245 731 l 1
 216 710 l 1
 227 744 l 1
 197 765 l 1
 234 765 l 1
 245 800 l 1
EndSplineSet
EndChar

StartChar: T
Encoding: 84 84 21
Width: 600
VWidth: 0
UnlinkRmOvrlpSave: 1
Flags: W
HStem: 210 21G<168.471 189.619 192.381 213.529> 210 21G<168.471 189.619 192.381 213.529> 613 20G<255.714 268.286> 780 20G<131.714 144.286 238.714 251.286 344.714 357.286 451.714 464.286>
LayerCount: 2
Back
Fore
SplineSet
191 300 m 1x70
 202 265 l 1
 239 265 l 1
 209 244 l 1
 220 210 l 1
 191 231 l 1
 162 210 l 1
 173 244 l 1
 143 265 l 1
 180 265 l 1
 191 300 l 1x70
209 383 m 1
 220 348 l 1
 256 348 l 1
 227 327 l 1
 238 293 l 1
 209 314 l 1
 179 293 l 1
 191 327 l 1
 161 348 l 1
 198 348 l 1
 209 383 l 1
227 467 m 1
 238 432 l 1
 274 432 l 1
 245 411 l 1
 256 377 l 1
 227 398 l 1
 197 377 l 1
 209 411 l 1
 179 432 l 1
 216 432 l 1
 227 467 l 1
245 550 m 1
 256 515 l 1
 292 515 l 1
 263 494 l 1
 274 460 l 1
 245 481 l 1
 215 460 l 1
 226 494 l 1
 197 515 l 1
 233 515 l 1
 245 550 l 1
262 633 m 1
 273 598 l 1
 310 598 l 1
 280 577 l 1
 292 543 l 1
 262 564 l 1
 233 543 l 1
 244 577 l 1
 215 598 l 1
 251 598 l 1
 262 633 l 1
280 717 m 1
 291 682 l 1
 328 682 l 1
 298 661 l 1
 310 627 l 1
 280 648 l 1
 251 627 l 1
 262 661 l 1
 233 682 l 1
 269 682 l 1
 280 717 l 1
458 800 m 1
 469 765 l 1
 506 765 l 1
 476 744 l 1
 487 710 l 1
 458 731 l 1
 429 710 l 1
 440 744 l 1
 410 765 l 1
 447 765 l 1
 458 800 l 1
351 800 m 1
 362 765 l 1
 399 765 l 1
 369 744 l 1
 380 710 l 1
 351 731 l 1
 322 710 l 1
 333 744 l 1
 303 765 l 1
 340 765 l 1
 351 800 l 1
245 800 m 1
 256 765 l 1
 293 765 l 1
 263 744 l 1
 274 710 l 1
 245 731 l 1
 216 710 l 1
 227 744 l 1
 197 765 l 1
 234 765 l 1
 245 800 l 1
138 800 m 1
 149 765 l 1
 186 765 l 1
 156 744 l 1
 167 710 l 1
 138 731 l 1
 109 710 l 1
 120 744 l 1
 90 765 l 1
 127 765 l 1
 138 800 l 1
EndSplineSet
EndChar

StartChar: multiply
Encoding: 215 215 22
Width: 600
VWidth: 0
UnlinkRmOvrlpSave: 1
Flags: W
HStem: 613 20G<238.714 251.286 344.714 357.286>
LayerCount: 2
Back
Fore
SplineSet
352 383 m 1
 363 348 l 1
 399 348 l 1
 370 327 l 1
 381 293 l 1
 352 314 l 1
 322 293 l 1
 334 327 l 1
 304 348 l 1
 341 348 l 1
 352 383 l 1
138 383 m 1
 149 348 l 1
 185 348 l 1
 156 327 l 1
 167 293 l 1
 138 314 l 1
 108 293 l 1
 120 327 l 1
 90 348 l 1
 127 348 l 1
 138 383 l 1
316 467 m 1
 327 432 l 1
 363 432 l 1
 334 411 l 1
 345 377 l 1
 316 398 l 1
 286 377 l 1
 298 411 l 1
 268 432 l 1
 305 432 l 1
 316 467 l 1
210 467 m 1
 221 432 l 1
 257 432 l 1
 228 411 l 1
 239 377 l 1
 210 398 l 1
 180 377 l 1
 192 411 l 1
 162 432 l 1
 199 432 l 1
 210 467 l 1
281 550 m 1
 292 515 l 1
 328 515 l 1
 299 494 l 1
 310 460 l 1
 281 481 l 1
 251 460 l 1
 262 494 l 1
 233 515 l 1
 269 515 l 1
 281 550 l 1
351 633 m 1
 362 598 l 1
 399 598 l 1
 369 577 l 1
 381 543 l 1
 351 564 l 1
 322 543 l 1
 333 577 l 1
 304 598 l 1
 340 598 l 1
 351 633 l 1
245 633 m 1
 256 598 l 1
 293 598 l 1
 263 577 l 1
 275 543 l 1
 245 564 l 1
 216 543 l 1
 227 577 l 1
 198 598 l 1
 234 598 l 1
 245 633 l 1
423 717 m 1
 434 682 l 1
 471 682 l 1
 441 661 l 1
 453 627 l 1
 423 648 l 1
 394 627 l 1
 405 661 l 1
 376 682 l 1
 412 682 l 1
 423 717 l 1
209 717 m 1
 220 682 l 1
 257 682 l 1
 227 661 l 1
 239 627 l 1
 209 648 l 1
 180 627 l 1
 191 661 l 1
 162 682 l 1
 198 682 l 1
 209 717 l 1
EndSplineSet
EndChar

StartChar: X
Encoding: 88 88 23
Width: 600
VWidth: 0
UnlinkRmOvrlpSave: 1
Flags: W
HStem: 210 21G<115.471 136.619 139.381 160.529 435.471 456.619 459.381 480.529> 210 21G<115.471 136.619 139.381 160.529 435.471 456.619 459.381 480.529> 613 20G<309.714 322.286 415.714 428.286> 780 20G<238.714 251.286 558.714 571.286>
LayerCount: 2
Back
Fore
SplineSet
458 300 m 1x70
 469 265 l 1
 506 265 l 1
 476 244 l 1
 487 210 l 1
 458 231 l 1
 429 210 l 1
 440 244 l 1
 410 265 l 1
 447 265 l 1
 458 300 l 1x70
138 300 m 1
 149 265 l 1
 186 265 l 1
 156 244 l 1
 167 210 l 1
 138 231 l 1
 109 210 l 1
 120 244 l 1
 90 265 l 1
 127 265 l 1
 138 300 l 1
423 383 m 1
 434 348 l 1
 470 348 l 1
 441 327 l 1
 452 293 l 1
 423 314 l 1
 393 293 l 1
 405 327 l 1
 375 348 l 1
 412 348 l 1
 423 383 l 1
209 383 m 1
 220 348 l 1
 256 348 l 1
 227 327 l 1
 238 293 l 1
 209 314 l 1
 179 293 l 1
 191 327 l 1
 161 348 l 1
 198 348 l 1
 209 383 l 1
387 467 m 1
 398 432 l 1
 434 432 l 1
 405 411 l 1
 416 377 l 1
 387 398 l 1
 357 377 l 1
 369 411 l 1
 339 432 l 1
 376 432 l 1
 387 467 l 1
281 467 m 1
 292 432 l 1
 328 432 l 1
 299 411 l 1
 310 377 l 1
 281 398 l 1
 251 377 l 1
 263 411 l 1
 233 432 l 1
 270 432 l 1
 281 467 l 1
352 550 m 1
 363 515 l 1
 399 515 l 1
 370 494 l 1
 381 460 l 1
 352 481 l 1
 322 460 l 1
 333 494 l 1
 304 515 l 1
 340 515 l 1
 352 550 l 1
422 633 m 1
 433 598 l 1
 470 598 l 1
 440 577 l 1
 452 543 l 1
 422 564 l 1
 393 543 l 1
 404 577 l 1
 375 598 l 1
 411 598 l 1
 422 633 l 1
316 633 m 1
 327 598 l 1
 364 598 l 1
 334 577 l 1
 346 543 l 1
 316 564 l 1
 287 543 l 1
 298 577 l 1
 269 598 l 1
 305 598 l 1
 316 633 l 1
494 717 m 1
 505 682 l 1
 542 682 l 1
 512 661 l 1
 524 627 l 1
 494 648 l 1
 465 627 l 1
 476 661 l 1
 447 682 l 1
 483 682 l 1
 494 717 l 1
280 717 m 1
 291 682 l 1
 328 682 l 1
 298 661 l 1
 310 627 l 1
 280 648 l 1
 251 627 l 1
 262 661 l 1
 233 682 l 1
 269 682 l 1
 280 717 l 1
565 800 m 1
 576 765 l 1
 613 765 l 1
 583 744 l 1
 594 710 l 1
 565 731 l 1
 536 710 l 1
 547 744 l 1
 517 765 l 1
 554 765 l 1
 565 800 l 1
245 800 m 1
 256 765 l 1
 293 765 l 1
 263 744 l 1
 274 710 l 1
 245 731 l 1
 216 710 l 1
 227 744 l 1
 197 765 l 1
 234 765 l 1
 245 800 l 1
EndSplineSet
EndChar

StartChar: backslash
Encoding: 92 92 24
Width: 600
VWidth: 0
UnlinkRmOvrlpSave: 1
Flags: W
HStem: 210 21G<328.471 349.619 352.381 373.529> 210 21G<328.471 349.619 352.381 373.529> 613 20G<202.714 215.286> 780 20G<131.714 144.286>
VStem: 90 309
LayerCount: 2
Back
Fore
SplineSet
351 300 m 1x78
 362 265 l 1
 399 265 l 1
 369 244 l 1
 380 210 l 1
 351 231 l 1
 322 210 l 1
 333 244 l 1
 303 265 l 1
 340 265 l 1
 351 300 l 1x78
316 383 m 1
 327 348 l 1
 363 348 l 1
 334 327 l 1
 345 293 l 1
 316 314 l 1
 286 293 l 1
 298 327 l 1
 268 348 l 1
 305 348 l 1
 316 383 l 1
280 467 m 1
 291 432 l 1
 327 432 l 1
 298 411 l 1
 309 377 l 1
 280 398 l 1
 250 377 l 1
 262 411 l 1
 232 432 l 1
 269 432 l 1
 280 467 l 1
245 550 m 1
 256 515 l 1
 292 515 l 1
 263 494 l 1
 274 460 l 1
 245 481 l 1
 215 460 l 1
 226 494 l 1
 197 515 l 1
 233 515 l 1
 245 550 l 1
209 633 m 1
 220 598 l 1
 257 598 l 1
 227 577 l 1
 239 543 l 1
 209 564 l 1
 180 543 l 1
 191 577 l 1
 162 598 l 1
 198 598 l 1
 209 633 l 1
173 717 m 1
 184 682 l 1
 221 682 l 1
 191 661 l 1
 203 627 l 1
 173 648 l 1
 144 627 l 1
 155 661 l 1
 126 682 l 1
 162 682 l 1
 173 717 l 1
138 800 m 1
 149 765 l 1
 186 765 l 1
 156 744 l 1
 167 710 l 1
 138 731 l 1
 109 710 l 1
 120 744 l 1
 90 765 l 1
 127 765 l 1
 138 800 l 1
EndSplineSet
EndChar

StartChar: germandbls
Encoding: 223 223 25
Width: 600
VWidth: 0
UnlinkRmOvrlpSave: 1
Flags: W
HStem: 210 21G<115.471 136.619 139.381 160.529 275.471 296.619 299.381 320.529 382.471 403.619 406.381 427.529> 210 21G<115.471 136.619 139.381 160.529 275.471 296.619 299.381 320.529 382.471 403.619 406.381 427.529> 613 20G<202.714 215.286 362.714 375.286> 780 20G<291.714 304.286 398.714 411.286>
LayerCount: 2
Back
Fore
SplineSet
405 300 m 1x70
 416 265 l 1
 453 265 l 1
 423 244 l 1
 434 210 l 1
 405 231 l 1
 376 210 l 1
 387 244 l 1
 357 265 l 1
 394 265 l 1
 405 300 l 1x70
298 300 m 1
 309 265 l 1
 346 265 l 1
 316 244 l 1
 327 210 l 1
 298 231 l 1
 269 210 l 1
 280 244 l 1
 250 265 l 1
 287 265 l 1
 298 300 l 1
138 300 m 1
 149 265 l 1
 186 265 l 1
 156 244 l 1
 167 210 l 1
 138 231 l 1
 109 210 l 1
 120 244 l 1
 90 265 l 1
 127 265 l 1
 138 300 l 1
476 383 m 1
 487 348 l 1
 523 348 l 1
 494 327 l 1
 505 293 l 1
 476 314 l 1
 446 293 l 1
 458 327 l 1
 428 348 l 1
 465 348 l 1
 476 383 l 1
156 383 m 1
 167 348 l 1
 203 348 l 1
 174 327 l 1
 185 293 l 1
 156 314 l 1
 126 293 l 1
 138 327 l 1
 108 348 l 1
 145 348 l 1
 156 383 l 1
494 467 m 1
 505 432 l 1
 541 432 l 1
 512 411 l 1
 523 377 l 1
 494 398 l 1
 464 377 l 1
 476 411 l 1
 446 432 l 1
 483 432 l 1
 494 467 l 1
174 467 m 1
 185 432 l 1
 221 432 l 1
 192 411 l 1
 203 377 l 1
 174 398 l 1
 144 377 l 1
 156 411 l 1
 126 432 l 1
 163 432 l 1
 174 467 l 1
405 550 m 1
 416 515 l 1
 452 515 l 1
 423 494 l 1
 434 460 l 1
 405 481 l 1
 375 460 l 1
 386 494 l 1
 357 515 l 1
 393 515 l 1
 405 550 l 1
299 550 m 1
 310 515 l 1
 346 515 l 1
 317 494 l 1
 328 460 l 1
 299 481 l 1
 269 460 l 1
 280 494 l 1
 251 515 l 1
 287 515 l 1
 299 550 l 1
192 550 m 1
 203 515 l 1
 239 515 l 1
 210 494 l 1
 221 460 l 1
 192 481 l 1
 162 460 l 1
 173 494 l 1
 144 515 l 1
 180 515 l 1
 192 550 l 1
369 633 m 1
 380 598 l 1
 417 598 l 1
 387 577 l 1
 399 543 l 1
 369 564 l 1
 340 543 l 1
 351 577 l 1
 322 598 l 1
 358 598 l 1
 369 633 l 1
209 633 m 1
 220 598 l 1
 257 598 l 1
 227 577 l 1
 239 543 l 1
 209 564 l 1
 180 543 l 1
 191 577 l 1
 162 598 l 1
 198 598 l 1
 209 633 l 1
440 717 m 1
 451 682 l 1
 488 682 l 1
 458 661 l 1
 470 627 l 1
 440 648 l 1
 411 627 l 1
 422 661 l 1
 393 682 l 1
 429 682 l 1
 440 717 l 1
227 717 m 1
 238 682 l 1
 275 682 l 1
 245 661 l 1
 257 627 l 1
 227 648 l 1
 198 627 l 1
 209 661 l 1
 180 682 l 1
 216 682 l 1
 227 717 l 1
405 800 m 1
 416 765 l 1
 453 765 l 1
 423 744 l 1
 434 710 l 1
 405 731 l 1
 376 710 l 1
 387 744 l 1
 357 765 l 1
 394 765 l 1
 405 800 l 1
298 800 m 1
 309 765 l 1
 346 765 l 1
 316 744 l 1
 327 710 l 1
 298 731 l 1
 269 710 l 1
 280 744 l 1
 250 765 l 1
 287 765 l 1
 298 800 l 1
EndSplineSet
EndChar

StartChar: grave
Encoding: 96 96 26
Width: 600
VWidth: 0
UnlinkRmOvrlpSave: 1
Flags: W
HStem: 543 257 613 20G<201.714 214.286>
VStem: 90 166
LayerCount: 2
Back
Fore
SplineSet
208 633 m 1x60
 219 598 l 1
 256 598 l 1
 226 577 l 1
 238 543 l 1
 208 564 l 1
 179 543 l 1xa0
 190 577 l 1
 161 598 l 1
 197 598 l 1
 208 633 l 1x60
173 717 m 1
 184 682 l 1
 221 682 l 1
 191 661 l 1
 203 627 l 1
 173 648 l 1
 144 627 l 1
 155 661 l 1
 126 682 l 1
 162 682 l 1
 173 717 l 1
138 800 m 1
 149 765 l 1
 186 765 l 1
 156 744 l 1
 167 710 l 1
 138 731 l 1
 109 710 l 1
 120 744 l 1
 90 765 l 1
 127 765 l 1
 138 800 l 1
EndSplineSet
EndChar

StartChar: d
Encoding: 100 100 27
Width: 600
VWidth: 0
UnlinkRmOvrlpSave: 1
Flags: W
HStem: 210 21G<204.471 225.619 228.381 249.529 310.471 331.619 334.381 355.529 417.471 438.619 441.381 462.529> 210 21G<204.471 225.619 228.381 249.529 310.471 331.619 334.381 355.529 417.471 438.619 441.381 462.529> 613 20G<237.714 250.286 344.714 357.286 451.714 464.286> 780 20G<540.714 553.286>
LayerCount: 2
Back
Fore
SplineSet
440 300 m 1x70
 451 265 l 1
 488 265 l 1
 458 244 l 1
 469 210 l 1
 440 231 l 1
 411 210 l 1
 422 244 l 1
 392 265 l 1
 429 265 l 1
 440 300 l 1x70
333 300 m 1
 344 265 l 1
 381 265 l 1
 351 244 l 1
 362 210 l 1
 333 231 l 1
 304 210 l 1
 315 244 l 1
 285 265 l 1
 322 265 l 1
 333 300 l 1
227 300 m 1
 238 265 l 1
 275 265 l 1
 245 244 l 1
 256 210 l 1
 227 231 l 1
 198 210 l 1
 209 244 l 1
 179 265 l 1
 216 265 l 1
 227 300 l 1
458 383 m 1
 469 348 l 1
 505 348 l 1
 476 327 l 1
 487 293 l 1
 458 314 l 1
 428 293 l 1
 440 327 l 1
 410 348 l 1
 447 348 l 1
 458 383 l 1
138 383 m 1
 149 348 l 1
 185 348 l 1
 156 327 l 1
 167 293 l 1
 138 314 l 1
 108 293 l 1
 120 327 l 1
 90 348 l 1
 127 348 l 1
 138 383 l 1
476 467 m 1
 487 432 l 1
 523 432 l 1
 494 411 l 1
 505 377 l 1
 476 398 l 1
 446 377 l 1
 458 411 l 1
 428 432 l 1
 465 432 l 1
 476 467 l 1
156 467 m 1
 167 432 l 1
 203 432 l 1
 174 411 l 1
 185 377 l 1
 156 398 l 1
 126 377 l 1
 138 411 l 1
 108 432 l 1
 145 432 l 1
 156 467 l 1
494 550 m 1
 505 515 l 1
 541 515 l 1
 512 494 l 1
 523 460 l 1
 494 481 l 1
 464 460 l 1
 475 494 l 1
 446 515 l 1
 482 515 l 1
 494 550 l 1
174 550 m 1
 185 515 l 1
 221 515 l 1
 192 494 l 1
 203 460 l 1
 174 481 l 1
 144 460 l 1
 155 494 l 1
 126 515 l 1
 162 515 l 1
 174 550 l 1
458 633 m 1
 469 598 l 1
 506 598 l 1
 476 577 l 1
 488 543 l 1
 458 564 l 1
 429 543 l 1
 440 577 l 1
 411 598 l 1
 447 598 l 1
 458 633 l 1
351 633 m 1
 362 598 l 1
 399 598 l 1
 369 577 l 1
 381 543 l 1
 351 564 l 1
 322 543 l 1
 333 577 l 1
 304 598 l 1
 340 598 l 1
 351 633 l 1
244 633 m 1
 255 598 l 1
 292 598 l 1
 262 577 l 1
 274 543 l 1
 244 564 l 1
 215 543 l 1
 226 577 l 1
 197 598 l 1
 233 598 l 1
 244 633 l 1
529 717 m 1
 540 682 l 1
 577 682 l 1
 547 661 l 1
 559 627 l 1
 529 648 l 1
 500 627 l 1
 511 661 l 1
 482 682 l 1
 518 682 l 1
 529 717 l 1
547 800 m 1
 558 765 l 1
 595 765 l 1
 565 744 l 1
 576 710 l 1
 547 731 l 1
 518 710 l 1
 529 744 l 1
 499 765 l 1
 536 765 l 1
 547 800 l 1
EndSplineSet
EndChar

StartChar: ccedilla
Encoding: 231 231 28
Width: 600
VWidth: 0
UnlinkRmOvrlpSave: 1
Flags: W
HStem: 210 21G<239.471 260.619 263.381 284.529> 210 21G<239.471 260.619 263.381 284.529> 613 20G<166.714 179.286 486.714 499.286>
LayerCount: 2
Back
Fore
SplineSet
262 300 m 1x60
 273 265 l 1
 310 265 l 1
 280 244 l 1
 291 210 l 1
 262 231 l 1
 233 210 l 1
 244 244 l 1
 214 265 l 1
 251 265 l 1
 262 300 l 1x60
387 383 m 1
 398 348 l 1
 434 348 l 1
 405 327 l 1
 416 293 l 1
 387 314 l 1
 357 293 l 1
 369 327 l 1
 339 348 l 1
 376 348 l 1
 387 383 l 1
280 383 m 1
 291 348 l 1
 327 348 l 1
 298 327 l 1
 309 293 l 1
 280 314 l 1
 250 293 l 1
 262 327 l 1
 232 348 l 1
 269 348 l 1
 280 383 l 1
173 383 m 1
 184 348 l 1
 220 348 l 1
 191 327 l 1
 202 293 l 1
 173 314 l 1
 143 293 l 1
 155 327 l 1
 125 348 l 1
 162 348 l 1
 173 383 l 1
138 467 m 1
 149 432 l 1
 185 432 l 1
 156 411 l 1
 167 377 l 1
 138 398 l 1
 108 377 l 1
 120 411 l 1
 90 432 l 1
 127 432 l 1
 138 467 l 1
156 550 m 1
 167 515 l 1
 203 515 l 1
 174 494 l 1
 185 460 l 1
 156 481 l 1
 126 460 l 1
 137 494 l 1
 108 515 l 1
 144 515 l 1
 156 550 l 1
493 633 m 1
 504 598 l 1
 541 598 l 1
 511 577 l 1
 523 543 l 1
 493 564 l 1
 464 543 l 1
 475 577 l 1
 446 598 l 1
 482 598 l 1
 493 633 l 1
173 633 m 1
 184 598 l 1
 221 598 l 1
 191 577 l 1
 203 543 l 1
 173 564 l 1
 144 543 l 1
 155 577 l 1
 126 598 l 1
 162 598 l 1
 173 633 l 1
458 717 m 1
 469 682 l 1
 506 682 l 1
 476 661 l 1
 488 627 l 1
 458 648 l 1
 429 627 l 1
 440 661 l 1
 411 682 l 1
 447 682 l 1
 458 717 l 1
351 717 m 1
 362 682 l 1
 399 682 l 1
 369 661 l 1
 381 627 l 1
 351 648 l 1
 322 627 l 1
 333 661 l 1
 304 682 l 1
 340 682 l 1
 351 717 l 1
244 717 m 1
 255 682 l 1
 292 682 l 1
 262 661 l 1
 274 627 l 1
 244 648 l 1
 215 627 l 1
 226 661 l 1
 197 682 l 1
 233 682 l 1
 244 717 l 1
EndSplineSet
EndChar

StartChar: h
Encoding: 104 104 29
Width: 600
VWidth: 0
UnlinkRmOvrlpSave: 1
Flags: W
HStem: 210 21G<115.471 136.619 139.381 160.529 435.471 456.619 459.381 480.529> 210 21G<115.471 136.619 139.381 160.529 435.471 456.619 459.381 480.529> 613 20G<255.714 268.286 362.714 375.286 469.714 482.286> 780 20G<238.714 251.286>
LayerCount: 2
Back
Fore
SplineSet
458 300 m 1x70
 469 265 l 1
 506 265 l 1
 476 244 l 1
 487 210 l 1
 458 231 l 1
 429 210 l 1
 440 244 l 1
 410 265 l 1
 447 265 l 1
 458 300 l 1x70
138 300 m 1
 149 265 l 1
 186 265 l 1
 156 244 l 1
 167 210 l 1
 138 231 l 1
 109 210 l 1
 120 244 l 1
 90 265 l 1
 127 265 l 1
 138 300 l 1
476 383 m 1
 487 348 l 1
 523 348 l 1
 494 327 l 1
 505 293 l 1
 476 314 l 1
 446 293 l 1
 458 327 l 1
 428 348 l 1
 465 348 l 1
 476 383 l 1
156 383 m 1
 167 348 l 1
 203 348 l 1
 174 327 l 1
 185 293 l 1
 156 314 l 1
 126 293 l 1
 138 327 l 1
 108 348 l 1
 145 348 l 1
 156 383 l 1
494 467 m 1
 505 432 l 1
 541 432 l 1
 512 411 l 1
 523 377 l 1
 494 398 l 1
 464 377 l 1
 476 411 l 1
 446 432 l 1
 483 432 l 1
 494 467 l 1
174 467 m 1
 185 432 l 1
 221 432 l 1
 192 411 l 1
 203 377 l 1
 174 398 l 1
 144 377 l 1
 156 411 l 1
 126 432 l 1
 163 432 l 1
 174 467 l 1
512 550 m 1
 523 515 l 1
 559 515 l 1
 530 494 l 1
 541 460 l 1
 512 481 l 1
 482 460 l 1
 493 494 l 1
 464 515 l 1
 500 515 l 1
 512 550 l 1
192 550 m 1
 203 515 l 1
 239 515 l 1
 210 494 l 1
 221 460 l 1
 192 481 l 1
 162 460 l 1
 173 494 l 1
 144 515 l 1
 180 515 l 1
 192 550 l 1
476 633 m 1
 487 598 l 1
 524 598 l 1
 494 577 l 1
 506 543 l 1
 476 564 l 1
 447 543 l 1
 458 577 l 1
 429 598 l 1
 465 598 l 1
 476 633 l 1
369 633 m 1
 380 598 l 1
 417 598 l 1
 387 577 l 1
 399 543 l 1
 369 564 l 1
 340 543 l 1
 351 577 l 1
 322 598 l 1
 358 598 l 1
 369 633 l 1
262 633 m 1
 273 598 l 1
 310 598 l 1
 280 577 l 1
 292 543 l 1
 262 564 l 1
 233 543 l 1
 244 577 l 1
 215 598 l 1
 251 598 l 1
 262 633 l 1
227 717 m 1
 238 682 l 1
 275 682 l 1
 245 661 l 1
 257 627 l 1
 227 648 l 1
 198 627 l 1
 209 661 l 1
 180 682 l 1
 216 682 l 1
 227 717 l 1
245 800 m 1
 256 765 l 1
 293 765 l 1
 263 744 l 1
 274 710 l 1
 245 731 l 1
 216 710 l 1
 227 744 l 1
 197 765 l 1
 234 765 l 1
 245 800 l 1
EndSplineSet
EndChar

StartChar: edieresis
Encoding: 235 235 30
Width: 600
VWidth: 0
UnlinkRmOvrlpSave: 1
Flags: W
HStem: 210 21G<150.471 171.619 174.381 195.529 257.471 278.619 281.381 302.529 364.471 385.619 388.381 409.529> 210 21G<150.471 171.619 174.381 195.529 257.471 278.619 281.381 302.529 364.471 385.619 388.381 409.529> 613 20G<237.714 250.286 344.714 357.286 451.714 464.286> 780 20G<273.714 286.286 487.714 500.286>
LayerCount: 2
Back
Fore
SplineSet
387 300 m 1x70
 398 265 l 1
 435 265 l 1
 405 244 l 1
 416 210 l 1
 387 231 l 1
 358 210 l 1
 369 244 l 1
 339 265 l 1
 376 265 l 1
 387 300 l 1x70
280 300 m 1
 291 265 l 1
 328 265 l 1
 298 244 l 1
 309 210 l 1
 280 231 l 1
 251 210 l 1
 262 244 l 1
 232 265 l 1
 269 265 l 1
 280 300 l 1
173 300 m 1
 184 265 l 1
 221 265 l 1
 191 244 l 1
 202 210 l 1
 173 231 l 1
 144 210 l 1
 155 244 l 1
 125 265 l 1
 162 265 l 1
 173 300 l 1
138 383 m 1
 149 348 l 1
 185 348 l 1
 156 327 l 1
 167 293 l 1
 138 314 l 1
 108 293 l 1
 120 327 l 1
 90 348 l 1
 127 348 l 1
 138 383 l 1
476 467 m 1
 487 432 l 1
 523 432 l 1
 494 411 l 1
 505 377 l 1
 476 398 l 1
 446 377 l 1
 458 411 l 1
 428 432 l 1
 465 432 l 1
 476 467 l 1
369 467 m 1
 380 432 l 1
 416 432 l 1
 387 411 l 1
 398 377 l 1
 369 398 l 1
 339 377 l 1
 351 411 l 1
 321 432 l 1
 358 432 l 1
 369 467 l 1
263 467 m 1
 274 432 l 1
 310 432 l 1
 281 411 l 1
 292 377 l 1
 263 398 l 1
 233 377 l 1
 245 411 l 1
 215 432 l 1
 252 432 l 1
 263 467 l 1
156 467 m 1
 167 432 l 1
 203 432 l 1
 174 411 l 1
 185 377 l 1
 156 398 l 1
 126 377 l 1
 138 411 l 1
 108 432 l 1
 145 432 l 1
 156 467 l 1
494 550 m 1
 505 515 l 1
 541 515 l 1
 512 494 l 1
 523 460 l 1
 494 481 l 1
 464 460 l 1
 475 494 l 1
 446 515 l 1
 482 515 l 1
 494 550 l 1
174 550 m 1
 185 515 l 1
 221 515 l 1
 192 494 l 1
 203 460 l 1
 174 481 l 1
 144 460 l 1
 155 494 l 1
 126 515 l 1
 162 515 l 1
 174 550 l 1
458 633 m 1
 469 598 l 1
 506 598 l 1
 476 577 l 1
 488 543 l 1
 458 564 l 1
 429 543 l 1
 440 577 l 1
 411 598 l 1
 447 598 l 1
 458 633 l 1
351 633 m 1
 362 598 l 1
 399 598 l 1
 369 577 l 1
 381 543 l 1
 351 564 l 1
 322 543 l 1
 333 577 l 1
 304 598 l 1
 340 598 l 1
 351 633 l 1
244 633 m 1
 255 598 l 1
 292 598 l 1
 262 577 l 1
 274 543 l 1
 244 564 l 1
 215 543 l 1
 226 577 l 1
 197 598 l 1
 233 598 l 1
 244 633 l 1
494 800 m 1
 505 765 l 1
 542 765 l 1
 512 744 l 1
 523 710 l 1
 494 731 l 1
 465 710 l 1
 476 744 l 1
 446 765 l 1
 483 765 l 1
 494 800 l 1
280 800 m 1
 291 765 l 1
 328 765 l 1
 298 744 l 1
 309 710 l 1
 280 731 l 1
 251 710 l 1
 262 744 l 1
 232 765 l 1
 269 765 l 1
 280 800 l 1
EndSplineSet
EndChar

StartChar: l
Encoding: 108 108 31
Width: 600
VWidth: 0
UnlinkRmOvrlpSave: 1
Flags: W
HStem: 210 21G<115.471 136.619 139.381 160.529 222.471 243.619 246.381 267.529 329.471 350.619 353.381 374.529> 210 21G<115.471 136.619 139.381 160.529 222.471 243.619 246.381 267.529 329.471 350.619 353.381 374.529> 613 20G<309.714 322.286> 780 20G<238.714 251.286 345.714 358.286>
VStem: 90 310
LayerCount: 2
Back
Fore
SplineSet
352 300 m 1x78
 363 265 l 1
 400 265 l 1
 370 244 l 1
 381 210 l 1
 352 231 l 1
 323 210 l 1
 334 244 l 1
 304 265 l 1
 341 265 l 1
 352 300 l 1x78
245 300 m 1
 256 265 l 1
 293 265 l 1
 263 244 l 1
 274 210 l 1
 245 231 l 1
 216 210 l 1
 227 244 l 1
 197 265 l 1
 234 265 l 1
 245 300 l 1
138 300 m 1
 149 265 l 1
 186 265 l 1
 156 244 l 1
 167 210 l 1
 138 231 l 1
 109 210 l 1
 120 244 l 1
 90 265 l 1
 127 265 l 1
 138 300 l 1
263 383 m 1
 274 348 l 1
 310 348 l 1
 281 327 l 1
 292 293 l 1
 263 314 l 1
 233 293 l 1
 245 327 l 1
 215 348 l 1
 252 348 l 1
 263 383 l 1
281 467 m 1
 292 432 l 1
 328 432 l 1
 299 411 l 1
 310 377 l 1
 281 398 l 1
 251 377 l 1
 263 411 l 1
 233 432 l 1
 270 432 l 1
 281 467 l 1
299 550 m 1
 310 515 l 1
 346 515 l 1
 317 494 l 1
 328 460 l 1
 299 481 l 1
 269 460 l 1
 280 494 l 1
 251 515 l 1
 287 515 l 1
 299 550 l 1
316 633 m 1
 327 598 l 1
 364 598 l 1
 334 577 l 1
 346 543 l 1
 316 564 l 1
 287 543 l 1
 298 577 l 1
 269 598 l 1
 305 598 l 1
 316 633 l 1
334 717 m 1
 345 682 l 1
 382 682 l 1
 352 661 l 1
 364 627 l 1
 334 648 l 1
 305 627 l 1
 316 661 l 1
 287 682 l 1
 323 682 l 1
 334 717 l 1
352 800 m 1
 363 765 l 1
 400 765 l 1
 370 744 l 1
 381 710 l 1
 352 731 l 1
 323 710 l 1
 334 744 l 1
 304 765 l 1
 341 765 l 1
 352 800 l 1
245 800 m 1
 256 765 l 1
 293 765 l 1
 263 744 l 1
 274 710 l 1
 245 731 l 1
 216 710 l 1
 227 744 l 1
 197 765 l 1
 234 765 l 1
 245 800 l 1
EndSplineSet
EndChar

StartChar: p
Encoding: 112 112 32
Width: 600
VWidth: 0
UnlinkRmOvrlpSave: 1
Flags: W
HStem: 210 21G<115.471 136.619 139.381 160.529> 210 21G<115.471 136.619 139.381 160.529> 613 20G<202.714 215.286 309.714 322.286 415.714 428.286>
LayerCount: 2
Back
Fore
SplineSet
138 300 m 1x60
 149 265 l 1
 186 265 l 1
 156 244 l 1
 167 210 l 1
 138 231 l 1
 109 210 l 1
 120 244 l 1
 90 265 l 1
 127 265 l 1
 138 300 l 1x60
156 383 m 1
 167 348 l 1
 203 348 l 1
 174 327 l 1
 185 293 l 1
 156 314 l 1
 126 293 l 1
 138 327 l 1
 108 348 l 1
 145 348 l 1
 156 383 l 1
441 467 m 1
 452 432 l 1
 488 432 l 1
 459 411 l 1
 470 377 l 1
 441 398 l 1
 411 377 l 1
 423 411 l 1
 393 432 l 1
 430 432 l 1
 441 467 l 1
334 467 m 1
 345 432 l 1
 381 432 l 1
 352 411 l 1
 363 377 l 1
 334 398 l 1
 304 377 l 1
 316 411 l 1
 286 432 l 1
 323 432 l 1
 334 467 l 1
227 467 m 1
 238 432 l 1
 274 432 l 1
 245 411 l 1
 256 377 l 1
 227 398 l 1
 197 377 l 1
 209 411 l 1
 179 432 l 1
 216 432 l 1
 227 467 l 1
512 550 m 1
 523 515 l 1
 559 515 l 1
 530 494 l 1
 541 460 l 1
 512 481 l 1
 482 460 l 1
 493 494 l 1
 464 515 l 1
 500 515 l 1
 512 550 l 1
192 550 m 1
 203 515 l 1
 239 515 l 1
 210 494 l 1
 221 460 l 1
 192 481 l 1
 162 460 l 1
 173 494 l 1
 144 515 l 1
 180 515 l 1
 192 550 l 1
422 633 m 1
 433 598 l 1
 470 598 l 1
 440 577 l 1
 452 543 l 1
 422 564 l 1
 393 543 l 1
 404 577 l 1
 375 598 l 1
 411 598 l 1
 422 633 l 1
316 633 m 1
 327 598 l 1
 364 598 l 1
 334 577 l 1
 346 543 l 1
 316 564 l 1
 287 543 l 1
 298 577 l 1
 269 598 l 1
 305 598 l 1
 316 633 l 1
209 633 m 1
 220 598 l 1
 257 598 l 1
 227 577 l 1
 239 543 l 1
 209 564 l 1
 180 543 l 1
 191 577 l 1
 162 598 l 1
 198 598 l 1
 209 633 l 1
EndSplineSet
EndChar

StartChar: t
Encoding: 116 116 33
Width: 600
VWidth: 0
UnlinkRmOvrlpSave: 1
Flags: W
HStem: 210 21G<203.471 224.619 227.381 248.529 310.471 331.619 334.381 355.529> 210 21G<203.471 224.619 227.381 248.529 310.471 331.619 334.381 355.529> 613 20G<130.714 143.286 237.714 250.286 343.714 356.286> 780 20G<273.714 286.286>
LayerCount: 2
Back
Fore
SplineSet
333 300 m 1x70
 344 265 l 1
 381 265 l 1
 351 244 l 1
 362 210 l 1
 333 231 l 1
 304 210 l 1
 315 244 l 1
 285 265 l 1
 322 265 l 1
 333 300 l 1x70
226 300 m 1
 237 265 l 1
 274 265 l 1
 244 244 l 1
 255 210 l 1
 226 231 l 1
 197 210 l 1
 208 244 l 1
 178 265 l 1
 215 265 l 1
 226 300 l 1
404 383 m 1
 415 348 l 1
 451 348 l 1
 422 327 l 1
 433 293 l 1
 404 314 l 1
 374 293 l 1
 386 327 l 1
 356 348 l 1
 393 348 l 1
 404 383 l 1
191 383 m 1
 202 348 l 1
 238 348 l 1
 209 327 l 1
 220 293 l 1
 191 314 l 1
 161 293 l 1
 173 327 l 1
 143 348 l 1
 180 348 l 1
 191 383 l 1
209 467 m 1
 220 432 l 1
 256 432 l 1
 227 411 l 1
 238 377 l 1
 209 398 l 1
 179 377 l 1
 191 411 l 1
 161 432 l 1
 198 432 l 1
 209 467 l 1
227 550 m 1
 238 515 l 1
 274 515 l 1
 245 494 l 1
 256 460 l 1
 227 481 l 1
 197 460 l 1
 208 494 l 1
 179 515 l 1
 215 515 l 1
 227 550 l 1
350 633 m 1
 361 598 l 1
 398 598 l 1
 368 577 l 1
 380 543 l 1
 350 564 l 1
 321 543 l 1
 332 577 l 1
 303 598 l 1
 339 598 l 1
 350 633 l 1
244 633 m 1
 255 598 l 1
 292 598 l 1
 262 577 l 1
 274 543 l 1
 244 564 l 1
 215 543 l 1
 226 577 l 1
 197 598 l 1
 233 598 l 1
 244 633 l 1
137 633 m 1
 148 598 l 1
 185 598 l 1
 155 577 l 1
 167 543 l 1
 137 564 l 1
 108 543 l 1
 119 577 l 1
 90 598 l 1
 126 598 l 1
 137 633 l 1
262 717 m 1
 273 682 l 1
 310 682 l 1
 280 661 l 1
 292 627 l 1
 262 648 l 1
 233 627 l 1
 244 661 l 1
 215 682 l 1
 251 682 l 1
 262 717 l 1
280 800 m 1
 291 765 l 1
 328 765 l 1
 298 744 l 1
 309 710 l 1
 280 731 l 1
 251 710 l 1
 262 744 l 1
 232 765 l 1
 269 765 l 1
 280 800 l 1
EndSplineSet
EndChar

StartChar: divide
Encoding: 247 247 34
Width: 600
VWidth: 0
UnlinkRmOvrlpSave: 1
Flags: W
LayerCount: 2
Back
Fore
SplineSet
262 383 m 1
 273 348 l 1
 309 348 l 1
 280 327 l 1
 291 293 l 1
 262 314 l 1
 232 293 l 1
 244 327 l 1
 214 348 l 1
 251 348 l 1
 262 383 l 1
458 550 m 1
 469 515 l 1
 505 515 l 1
 476 494 l 1
 487 460 l 1
 458 481 l 1
 428 460 l 1
 439 494 l 1
 410 515 l 1
 446 515 l 1
 458 550 l 1
351 550 m 1
 362 515 l 1
 398 515 l 1
 369 494 l 1
 380 460 l 1
 351 481 l 1
 321 460 l 1
 332 494 l 1
 303 515 l 1
 339 515 l 1
 351 550 l 1
245 550 m 1
 256 515 l 1
 292 515 l 1
 263 494 l 1
 274 460 l 1
 245 481 l 1
 215 460 l 1
 226 494 l 1
 197 515 l 1
 233 515 l 1
 245 550 l 1
138 550 m 1
 149 515 l 1
 185 515 l 1
 156 494 l 1
 167 460 l 1
 138 481 l 1
 108 460 l 1
 119 494 l 1
 90 515 l 1
 126 515 l 1
 138 550 l 1
333 717 m 1
 344 682 l 1
 381 682 l 1
 351 661 l 1
 363 627 l 1
 333 648 l 1
 304 627 l 1
 315 661 l 1
 286 682 l 1
 322 682 l 1
 333 717 l 1
EndSplineSet
EndChar

StartChar: x
Encoding: 120 120 35
Width: 600
VWidth: 0
UnlinkRmOvrlpSave: 1
Flags: W
HStem: 210 21G<115.471 136.619 139.381 160.529 435.471 456.619 459.381 480.529> 210 21G<115.471 136.619 139.381 160.529 435.471 456.619 459.381 480.529> 613 20G<202.714 215.286 522.714 535.286>
LayerCount: 2
Back
Fore
SplineSet
458 300 m 1x60
 469 265 l 1
 506 265 l 1
 476 244 l 1
 487 210 l 1
 458 231 l 1
 429 210 l 1
 440 244 l 1
 410 265 l 1
 447 265 l 1
 458 300 l 1x60
138 300 m 1
 149 265 l 1
 186 265 l 1
 156 244 l 1
 167 210 l 1
 138 231 l 1
 109 210 l 1
 120 244 l 1
 90 265 l 1
 127 265 l 1
 138 300 l 1
423 383 m 1
 434 348 l 1
 470 348 l 1
 441 327 l 1
 452 293 l 1
 423 314 l 1
 393 293 l 1
 405 327 l 1
 375 348 l 1
 412 348 l 1
 423 383 l 1
209 383 m 1
 220 348 l 1
 256 348 l 1
 227 327 l 1
 238 293 l 1
 209 314 l 1
 179 293 l 1
 191 327 l 1
 161 348 l 1
 198 348 l 1
 209 383 l 1
334 467 m 1
 345 432 l 1
 381 432 l 1
 352 411 l 1
 363 377 l 1
 334 398 l 1
 304 377 l 1
 316 411 l 1
 286 432 l 1
 323 432 l 1
 334 467 l 1
459 550 m 1
 470 515 l 1
 506 515 l 1
 477 494 l 1
 488 460 l 1
 459 481 l 1
 429 460 l 1
 440 494 l 1
 411 515 l 1
 447 515 l 1
 459 550 l 1
245 550 m 1
 256 515 l 1
 292 515 l 1
 263 494 l 1
 274 460 l 1
 245 481 l 1
 215 460 l 1
 226 494 l 1
 197 515 l 1
 233 515 l 1
 245 550 l 1
529 633 m 1
 540 598 l 1
 577 598 l 1
 547 577 l 1
 559 543 l 1
 529 564 l 1
 500 543 l 1
 511 577 l 1
 482 598 l 1
 518 598 l 1
 529 633 l 1
209 633 m 1
 220 598 l 1
 257 598 l 1
 227 577 l 1
 239 543 l 1
 209 564 l 1
 180 543 l 1
 191 577 l 1
 162 598 l 1
 198 598 l 1
 209 633 l 1
EndSplineSet
EndChar

StartChar: bar
Encoding: 124 124 36
Width: 600
VWidth: 0
UnlinkRmOvrlpSave: 1
Flags: W
HStem: 210 21G<115.471 136.619 139.381 160.529> 210 21G<115.471 136.619 139.381 160.529> 613 20G<202.714 215.286> 780 20G<238.714 251.286>
VStem: 90 203
LayerCount: 2
Back
Fore
SplineSet
138 300 m 1x78
 149 265 l 1
 186 265 l 1
 156 244 l 1
 167 210 l 1
 138 231 l 1
 109 210 l 1
 120 244 l 1
 90 265 l 1
 127 265 l 1
 138 300 l 1x78
156 383 m 1
 167 348 l 1
 203 348 l 1
 174 327 l 1
 185 293 l 1
 156 314 l 1
 126 293 l 1
 138 327 l 1
 108 348 l 1
 145 348 l 1
 156 383 l 1
174 467 m 1
 185 432 l 1
 221 432 l 1
 192 411 l 1
 203 377 l 1
 174 398 l 1
 144 377 l 1
 156 411 l 1
 126 432 l 1
 163 432 l 1
 174 467 l 1
192 550 m 1
 203 515 l 1
 239 515 l 1
 210 494 l 1
 221 460 l 1
 192 481 l 1
 162 460 l 1
 173 494 l 1
 144 515 l 1
 180 515 l 1
 192 550 l 1
209 633 m 1
 220 598 l 1
 257 598 l 1
 227 577 l 1
 239 543 l 1
 209 564 l 1
 180 543 l 1
 191 577 l 1
 162 598 l 1
 198 598 l 1
 209 633 l 1
227 717 m 1
 238 682 l 1
 275 682 l 1
 245 661 l 1
 257 627 l 1
 227 648 l 1
 198 627 l 1
 209 661 l 1
 180 682 l 1
 216 682 l 1
 227 717 l 1
245 800 m 1
 256 765 l 1
 293 765 l 1
 263 744 l 1
 274 710 l 1
 245 731 l 1
 216 710 l 1
 227 744 l 1
 197 765 l 1
 234 765 l 1
 245 800 l 1
EndSplineSet
EndChar

StartChar: glyph37
Encoding: 769 769 37
Width: 600
VWidth: 0
UnlinkRmOvrlpSave: 1
Flags: W
HStem: 543 257 613 20G<130.714 143.286>
VStem: 90 237
LayerCount: 2
Back
Fore
SplineSet
137 633 m 1x60
 148 598 l 1
 185 598 l 1
 155 577 l 1
 167 543 l 1
 137 564 l 1
 108 543 l 1xa0
 119 577 l 1
 90 598 l 1
 126 598 l 1
 137 633 l 1x60
208 717 m 1
 219 682 l 1
 256 682 l 1
 226 661 l 1
 238 627 l 1
 208 648 l 1
 179 627 l 1
 190 661 l 1
 161 682 l 1
 197 682 l 1
 208 717 l 1
279 800 m 1
 290 765 l 1
 327 765 l 1
 297 744 l 1
 308 710 l 1
 279 731 l 1
 250 710 l 1
 261 744 l 1
 231 765 l 1
 268 765 l 1
 279 800 l 1
EndSplineSet
EndChar

StartChar: glyph38
Encoding: 8594 8594 38
Width: 600
VWidth: 0
UnlinkRmOvrlpSave: 1
Flags: W
HStem: 613 20G<415.714 428.286>
LayerCount: 2
Back
Fore
SplineSet
315 383 m 1
 326 348 l 1
 362 348 l 1
 333 327 l 1
 344 293 l 1
 315 314 l 1
 285 293 l 1
 297 327 l 1
 267 348 l 1
 304 348 l 1
 315 383 l 1
387 467 m 1
 398 432 l 1
 434 432 l 1
 405 411 l 1
 416 377 l 1
 387 398 l 1
 357 377 l 1
 369 411 l 1
 339 432 l 1
 376 432 l 1
 387 467 l 1
458 550 m 1
 469 515 l 1
 505 515 l 1
 476 494 l 1
 487 460 l 1
 458 481 l 1
 428 460 l 1
 439 494 l 1
 410 515 l 1
 446 515 l 1
 458 550 l 1
351 550 m 1
 362 515 l 1
 398 515 l 1
 369 494 l 1
 380 460 l 1
 351 481 l 1
 321 460 l 1
 332 494 l 1
 303 515 l 1
 339 515 l 1
 351 550 l 1
245 550 m 1
 256 515 l 1
 292 515 l 1
 263 494 l 1
 274 460 l 1
 245 481 l 1
 215 460 l 1
 226 494 l 1
 197 515 l 1
 233 515 l 1
 245 550 l 1
138 550 m 1
 149 515 l 1
 185 515 l 1
 156 494 l 1
 167 460 l 1
 138 481 l 1
 108 460 l 1
 119 494 l 1
 90 515 l 1
 126 515 l 1
 138 550 l 1
422 633 m 1
 433 598 l 1
 470 598 l 1
 440 577 l 1
 452 543 l 1
 422 564 l 1
 393 543 l 1
 404 577 l 1
 375 598 l 1
 411 598 l 1
 422 633 l 1
386 717 m 1
 397 682 l 1
 434 682 l 1
 404 661 l 1
 416 627 l 1
 386 648 l 1
 357 627 l 1
 368 661 l 1
 339 682 l 1
 375 682 l 1
 386 717 l 1
EndSplineSet
EndChar

StartChar: numbersign
Encoding: 35 35 39
Width: 600
VWidth: 0
UnlinkRmOvrlpSave: 1
Flags: W
HStem: 210 21G<186.471 207.619 210.381 231.529 292.471 313.619 316.381 337.529> 210 21G<186.471 207.619 210.381 231.529 292.471 313.619 316.381 337.529> 613 20G<166.714 179.286 273.714 286.286 379.714 392.286 486.714 499.286> 780 20G<309.714 322.286 415.714 428.286>
LayerCount: 2
Back
Fore
SplineSet
315 300 m 1x70
 326 265 l 1
 363 265 l 1
 333 244 l 1
 344 210 l 1
 315 231 l 1
 286 210 l 1
 297 244 l 1
 267 265 l 1
 304 265 l 1
 315 300 l 1x70
209 300 m 1
 220 265 l 1
 257 265 l 1
 227 244 l 1
 238 210 l 1
 209 231 l 1
 180 210 l 1
 191 244 l 1
 161 265 l 1
 198 265 l 1
 209 300 l 1
333 383 m 1
 344 348 l 1
 380 348 l 1
 351 327 l 1
 362 293 l 1
 333 314 l 1
 303 293 l 1
 315 327 l 1
 285 348 l 1
 322 348 l 1
 333 383 l 1
227 383 m 1
 238 348 l 1
 274 348 l 1
 245 327 l 1
 256 293 l 1
 227 314 l 1
 197 293 l 1
 209 327 l 1
 179 348 l 1
 216 348 l 1
 227 383 l 1
458 467 m 1
 469 432 l 1
 505 432 l 1
 476 411 l 1
 487 377 l 1
 458 398 l 1
 428 377 l 1
 440 411 l 1
 410 432 l 1
 447 432 l 1
 458 467 l 1
351 467 m 1
 362 432 l 1
 398 432 l 1
 369 411 l 1
 380 377 l 1
 351 398 l 1
 321 377 l 1
 333 411 l 1
 303 432 l 1
 340 432 l 1
 351 467 l 1
245 467 m 1
 256 432 l 1
 292 432 l 1
 263 411 l 1
 274 377 l 1
 245 398 l 1
 215 377 l 1
 227 411 l 1
 197 432 l 1
 234 432 l 1
 245 467 l 1
138 467 m 1
 149 432 l 1
 185 432 l 1
 156 411 l 1
 167 377 l 1
 138 398 l 1
 108 377 l 1
 120 411 l 1
 90 432 l 1
 127 432 l 1
 138 467 l 1
369 550 m 1
 380 515 l 1
 416 515 l 1
 387 494 l 1
 398 460 l 1
 369 481 l 1
 339 460 l 1
 350 494 l 1
 321 515 l 1
 357 515 l 1
 369 550 l 1
263 550 m 1
 274 515 l 1
 310 515 l 1
 281 494 l 1
 292 460 l 1
 263 481 l 1
 233 460 l 1
 244 494 l 1
 215 515 l 1
 251 515 l 1
 263 550 l 1
493 633 m 1
 504 598 l 1
 541 598 l 1
 511 577 l 1
 523 543 l 1
 493 564 l 1
 464 543 l 1
 475 577 l 1
 446 598 l 1
 482 598 l 1
 493 633 l 1
386 633 m 1
 397 598 l 1
 434 598 l 1
 404 577 l 1
 416 543 l 1
 386 564 l 1
 357 543 l 1
 368 577 l 1
 339 598 l 1
 375 598 l 1
 386 633 l 1
280 633 m 1
 291 598 l 1
 328 598 l 1
 298 577 l 1
 310 543 l 1
 280 564 l 1
 251 543 l 1
 262 577 l 1
 233 598 l 1
 269 598 l 1
 280 633 l 1
173 633 m 1
 184 598 l 1
 221 598 l 1
 191 577 l 1
 203 543 l 1
 173 564 l 1
 144 543 l 1
 155 577 l 1
 126 598 l 1
 162 598 l 1
 173 633 l 1
404 717 m 1
 415 682 l 1
 452 682 l 1
 422 661 l 1
 434 627 l 1
 404 648 l 1
 375 627 l 1
 386 661 l 1
 357 682 l 1
 393 682 l 1
 404 717 l 1
298 717 m 1
 309 682 l 1
 346 682 l 1
 316 661 l 1
 328 627 l 1
 298 648 l 1
 269 627 l 1
 280 661 l 1
 251 682 l 1
 287 682 l 1
 298 717 l 1
422 800 m 1
 433 765 l 1
 470 765 l 1
 440 744 l 1
 451 710 l 1
 422 731 l 1
 393 710 l 1
 404 744 l 1
 374 765 l 1
 411 765 l 1
 422 800 l 1
316 800 m 1
 327 765 l 1
 364 765 l 1
 334 744 l 1
 345 710 l 1
 316 731 l 1
 287 710 l 1
 298 744 l 1
 268 765 l 1
 305 765 l 1
 316 800 l 1
EndSplineSet
EndChar

StartChar: glyph40
Encoding: 8356 8356 40
Width: 600
VWidth: 0
UnlinkRmOvrlpSave: 1
Flags: W
HStem: 210 21G<115.471 136.619 139.381 160.529 222.471 243.619 246.381 267.529 328.471 349.619 352.381 373.529 435.471 456.619 459.381 480.529> 210 21G<115.471 136.619 139.381 160.529 222.471 243.619 246.381 267.529 328.471 349.619 352.381 373.529 435.471 456.619 459.381 480.529> 613 20G<202.714 215.286 309.714 322.286 415.714 428.286> 780 20G<398.714 411.286 505.714 518.286>
LayerCount: 2
Back
Fore
SplineSet
458 300 m 1x70
 469 265 l 1
 506 265 l 1
 476 244 l 1
 487 210 l 1
 458 231 l 1
 429 210 l 1
 440 244 l 1
 410 265 l 1
 447 265 l 1
 458 300 l 1x70
351 300 m 1
 362 265 l 1
 399 265 l 1
 369 244 l 1
 380 210 l 1
 351 231 l 1
 322 210 l 1
 333 244 l 1
 303 265 l 1
 340 265 l 1
 351 300 l 1
245 300 m 1
 256 265 l 1
 293 265 l 1
 263 244 l 1
 274 210 l 1
 245 231 l 1
 216 210 l 1
 227 244 l 1
 197 265 l 1
 234 265 l 1
 245 300 l 1
138 300 m 1
 149 265 l 1
 186 265 l 1
 156 244 l 1
 167 210 l 1
 138 231 l 1
 109 210 l 1
 120 244 l 1
 90 265 l 1
 127 265 l 1
 138 300 l 1
263 383 m 1
 274 348 l 1
 310 348 l 1
 281 327 l 1
 292 293 l 1
 263 314 l 1
 233 293 l 1
 245 327 l 1
 215 348 l 1
 252 348 l 1
 263 383 l 1
387 467 m 1
 398 432 l 1
 434 432 l 1
 405 411 l 1
 416 377 l 1
 387 398 l 1
 357 377 l 1
 369 411 l 1
 339 432 l 1
 376 432 l 1
 387 467 l 1
281 467 m 1
 292 432 l 1
 328 432 l 1
 299 411 l 1
 310 377 l 1
 281 398 l 1
 251 377 l 1
 263 411 l 1
 233 432 l 1
 270 432 l 1
 281 467 l 1
174 467 m 1
 185 432 l 1
 221 432 l 1
 192 411 l 1
 203 377 l 1
 174 398 l 1
 144 377 l 1
 156 411 l 1
 126 432 l 1
 163 432 l 1
 174 467 l 1
299 550 m 1
 310 515 l 1
 346 515 l 1
 317 494 l 1
 328 460 l 1
 299 481 l 1
 269 460 l 1
 280 494 l 1
 251 515 l 1
 287 515 l 1
 299 550 l 1
422 633 m 1
 433 598 l 1
 470 598 l 1
 440 577 l 1
 452 543 l 1
 422 564 l 1
 393 543 l 1
 404 577 l 1
 375 598 l 1
 411 598 l 1
 422 633 l 1
316 633 m 1
 327 598 l 1
 364 598 l 1
 334 577 l 1
 346 543 l 1
 316 564 l 1
 287 543 l 1
 298 577 l 1
 269 598 l 1
 305 598 l 1
 316 633 l 1
209 633 m 1
 220 598 l 1
 257 598 l 1
 227 577 l 1
 239 543 l 1
 209 564 l 1
 180 543 l 1
 191 577 l 1
 162 598 l 1
 198 598 l 1
 209 633 l 1
547 717 m 1
 558 682 l 1
 595 682 l 1
 565 661 l 1
 577 627 l 1
 547 648 l 1
 518 627 l 1
 529 661 l 1
 500 682 l 1
 536 682 l 1
 547 717 l 1
334 717 m 1
 345 682 l 1
 382 682 l 1
 352 661 l 1
 364 627 l 1
 334 648 l 1
 305 627 l 1
 316 661 l 1
 287 682 l 1
 323 682 l 1
 334 717 l 1
512 800 m 1
 523 765 l 1
 560 765 l 1
 530 744 l 1
 541 710 l 1
 512 731 l 1
 483 710 l 1
 494 744 l 1
 464 765 l 1
 501 765 l 1
 512 800 l 1
405 800 m 1
 416 765 l 1
 453 765 l 1
 423 744 l 1
 434 710 l 1
 405 731 l 1
 376 710 l 1
 387 744 l 1
 357 765 l 1
 394 765 l 1
 405 800 l 1
EndSplineSet
EndChar

StartChar: quotesingle
Encoding: 39 39 41
Width: 600
VWidth: 0
UnlinkRmOvrlpSave: 1
Flags: W
HStem: 543 257 613 20G<130.714 143.286>
VStem: 90 237
LayerCount: 2
Back
Fore
SplineSet
137 633 m 1x60
 148 598 l 1
 185 598 l 1
 155 577 l 1
 167 543 l 1
 137 564 l 1
 108 543 l 1xa0
 119 577 l 1
 90 598 l 1
 126 598 l 1
 137 633 l 1x60
208 717 m 1
 219 682 l 1
 256 682 l 1
 226 661 l 1
 238 627 l 1
 208 648 l 1
 179 627 l 1
 190 661 l 1
 161 682 l 1
 197 682 l 1
 208 717 l 1
279 800 m 1
 290 765 l 1
 327 765 l 1
 297 744 l 1
 308 710 l 1
 279 731 l 1
 250 710 l 1
 261 744 l 1
 231 765 l 1
 268 765 l 1
 279 800 l 1
EndSplineSet
EndChar

StartChar: plus
Encoding: 43 43 42
Width: 600
VWidth: 0
UnlinkRmOvrlpSave: 1
Flags: W
HStem: 210 21G<221.471 242.619 245.381 266.529> 210 21G<221.471 242.619 245.381 266.529> 613 20G<308.714 321.286> 780 20G<344.714 357.286>
LayerCount: 2
Back
Fore
SplineSet
244 300 m 1x70
 255 265 l 1
 292 265 l 1
 262 244 l 1
 273 210 l 1
 244 231 l 1
 215 210 l 1
 226 244 l 1
 196 265 l 1
 233 265 l 1
 244 300 l 1x70
262 383 m 1
 273 348 l 1
 309 348 l 1
 280 327 l 1
 291 293 l 1
 262 314 l 1
 232 293 l 1
 244 327 l 1
 214 348 l 1
 251 348 l 1
 262 383 l 1
280 467 m 1
 291 432 l 1
 327 432 l 1
 298 411 l 1
 309 377 l 1
 280 398 l 1
 250 377 l 1
 262 411 l 1
 232 432 l 1
 269 432 l 1
 280 467 l 1
458 550 m 1
 469 515 l 1
 505 515 l 1
 476 494 l 1
 487 460 l 1
 458 481 l 1
 428 460 l 1
 439 494 l 1
 410 515 l 1
 446 515 l 1
 458 550 l 1
351 550 m 1
 362 515 l 1
 398 515 l 1
 369 494 l 1
 380 460 l 1
 351 481 l 1
 321 460 l 1
 332 494 l 1
 303 515 l 1
 339 515 l 1
 351 550 l 1
245 550 m 1
 256 515 l 1
 292 515 l 1
 263 494 l 1
 274 460 l 1
 245 481 l 1
 215 460 l 1
 226 494 l 1
 197 515 l 1
 233 515 l 1
 245 550 l 1
138 550 m 1
 149 515 l 1
 185 515 l 1
 156 494 l 1
 167 460 l 1
 138 481 l 1
 108 460 l 1
 119 494 l 1
 90 515 l 1
 126 515 l 1
 138 550 l 1
315 633 m 1
 326 598 l 1
 363 598 l 1
 333 577 l 1
 345 543 l 1
 315 564 l 1
 286 543 l 1
 297 577 l 1
 268 598 l 1
 304 598 l 1
 315 633 l 1
333 717 m 1
 344 682 l 1
 381 682 l 1
 351 661 l 1
 363 627 l 1
 333 648 l 1
 304 627 l 1
 315 661 l 1
 286 682 l 1
 322 682 l 1
 333 717 l 1
351 800 m 1
 362 765 l 1
 399 765 l 1
 369 744 l 1
 380 710 l 1
 351 731 l 1
 322 710 l 1
 333 744 l 1
 303 765 l 1
 340 765 l 1
 351 800 l 1
EndSplineSet
EndChar

StartChar: glyph43
Encoding: 8364 8364 43
Width: 600
VWidth: 0
UnlinkRmOvrlpSave: 1
Flags: W
HStem: 210 21G<239.471 260.619 263.381 284.529 346.471 367.619 370.381 391.529> 210 21G<239.471 260.619 263.381 284.529 346.471 367.619 370.381 391.529> 613 20G<166.714 179.286 273.714 286.286 379.714 392.286> 780 20G<362.714 375.286 469.714 482.286>
LayerCount: 2
Back
Fore
SplineSet
369 300 m 1x70
 380 265 l 1
 417 265 l 1
 387 244 l 1
 398 210 l 1
 369 231 l 1
 340 210 l 1
 351 244 l 1
 321 265 l 1
 358 265 l 1
 369 300 l 1x70
262 300 m 1
 273 265 l 1
 310 265 l 1
 280 244 l 1
 291 210 l 1
 262 231 l 1
 233 210 l 1
 244 244 l 1
 214 265 l 1
 251 265 l 1
 262 300 l 1
440 383 m 1
 451 348 l 1
 487 348 l 1
 458 327 l 1
 469 293 l 1
 440 314 l 1
 410 293 l 1
 422 327 l 1
 392 348 l 1
 429 348 l 1
 440 383 l 1
227 383 m 1
 238 348 l 1
 274 348 l 1
 245 327 l 1
 256 293 l 1
 227 314 l 1
 197 293 l 1
 209 327 l 1
 179 348 l 1
 216 348 l 1
 227 383 l 1
351 467 m 1
 362 432 l 1
 398 432 l 1
 369 411 l 1
 380 377 l 1
 351 398 l 1
 321 377 l 1
 333 411 l 1
 303 432 l 1
 340 432 l 1
 351 467 l 1
245 467 m 1
 256 432 l 1
 292 432 l 1
 263 411 l 1
 274 377 l 1
 245 398 l 1
 215 377 l 1
 227 411 l 1
 197 432 l 1
 234 432 l 1
 245 467 l 1
138 467 m 1
 149 432 l 1
 185 432 l 1
 156 411 l 1
 167 377 l 1
 138 398 l 1
 108 377 l 1
 120 411 l 1
 90 432 l 1
 127 432 l 1
 138 467 l 1
263 550 m 1
 274 515 l 1
 310 515 l 1
 281 494 l 1
 292 460 l 1
 263 481 l 1
 233 460 l 1
 244 494 l 1
 215 515 l 1
 251 515 l 1
 263 550 l 1
386 633 m 1
 397 598 l 1
 434 598 l 1
 404 577 l 1
 416 543 l 1
 386 564 l 1
 357 543 l 1
 368 577 l 1
 339 598 l 1
 375 598 l 1
 386 633 l 1
280 633 m 1
 291 598 l 1
 328 598 l 1
 298 577 l 1
 310 543 l 1
 280 564 l 1
 251 543 l 1
 262 577 l 1
 233 598 l 1
 269 598 l 1
 280 633 l 1
173 633 m 1
 184 598 l 1
 221 598 l 1
 191 577 l 1
 203 543 l 1
 173 564 l 1
 144 543 l 1
 155 577 l 1
 126 598 l 1
 162 598 l 1
 173 633 l 1
511 717 m 1
 522 682 l 1
 559 682 l 1
 529 661 l 1
 541 627 l 1
 511 648 l 1
 482 627 l 1
 493 661 l 1
 464 682 l 1
 500 682 l 1
 511 717 l 1
298 717 m 1
 309 682 l 1
 346 682 l 1
 316 661 l 1
 328 627 l 1
 298 648 l 1
 269 627 l 1
 280 661 l 1
 251 682 l 1
 287 682 l 1
 298 717 l 1
476 800 m 1
 487 765 l 1
 524 765 l 1
 494 744 l 1
 505 710 l 1
 476 731 l 1
 447 710 l 1
 458 744 l 1
 428 765 l 1
 465 765 l 1
 476 800 l 1
369 800 m 1
 380 765 l 1
 417 765 l 1
 387 744 l 1
 398 710 l 1
 369 731 l 1
 340 710 l 1
 351 744 l 1
 321 765 l 1
 358 765 l 1
 369 800 l 1
EndSplineSet
EndChar

StartChar: slash
Encoding: 47 47 44
Width: 600
VWidth: 0
UnlinkRmOvrlpSave: 1
Flags: W
HStem: 210 21G<115.471 136.619 139.381 160.529> 210 21G<115.471 136.619 139.381 160.529> 613 20G<415.714 428.286> 780 20G<558.714 571.286>
LayerCount: 2
Back
Fore
SplineSet
138 300 m 1x70
 149 265 l 1
 186 265 l 1
 156 244 l 1
 167 210 l 1
 138 231 l 1
 109 210 l 1
 120 244 l 1
 90 265 l 1
 127 265 l 1
 138 300 l 1x70
209 383 m 1
 220 348 l 1
 256 348 l 1
 227 327 l 1
 238 293 l 1
 209 314 l 1
 179 293 l 1
 191 327 l 1
 161 348 l 1
 198 348 l 1
 209 383 l 1
281 467 m 1
 292 432 l 1
 328 432 l 1
 299 411 l 1
 310 377 l 1
 281 398 l 1
 251 377 l 1
 263 411 l 1
 233 432 l 1
 270 432 l 1
 281 467 l 1
352 550 m 1
 363 515 l 1
 399 515 l 1
 370 494 l 1
 381 460 l 1
 352 481 l 1
 322 460 l 1
 333 494 l 1
 304 515 l 1
 340 515 l 1
 352 550 l 1
422 633 m 1
 433 598 l 1
 470 598 l 1
 440 577 l 1
 452 543 l 1
 422 564 l 1
 393 543 l 1
 404 577 l 1
 375 598 l 1
 411 598 l 1
 422 633 l 1
494 717 m 1
 505 682 l 1
 542 682 l 1
 512 661 l 1
 524 627 l 1
 494 648 l 1
 465 627 l 1
 476 661 l 1
 447 682 l 1
 483 682 l 1
 494 717 l 1
565 800 m 1
 576 765 l 1
 613 765 l 1
 583 744 l 1
 594 710 l 1
 565 731 l 1
 536 710 l 1
 547 744 l 1
 517 765 l 1
 554 765 l 1
 565 800 l 1
EndSplineSet
EndChar

StartChar: glyph45
Encoding: 305 305 45
Width: 600
VWidth: 0
UnlinkRmOvrlpSave: 1
Flags: W
HStem: 210 21G<115.471 136.619 139.381 160.529 222.471 243.619 246.381 267.529 329.471 350.619 353.381 374.529> 210 21G<115.471 136.619 139.381 160.529 222.471 243.619 246.381 267.529 329.471 350.619 353.381 374.529> 613 20G<202.714 215.286 309.714 322.286>
VStem: 90 310
LayerCount: 2
Back
Fore
SplineSet
352 300 m 1x70
 363 265 l 1
 400 265 l 1
 370 244 l 1
 381 210 l 1
 352 231 l 1
 323 210 l 1
 334 244 l 1
 304 265 l 1
 341 265 l 1
 352 300 l 1x70
245 300 m 1
 256 265 l 1
 293 265 l 1
 263 244 l 1
 274 210 l 1
 245 231 l 1
 216 210 l 1
 227 244 l 1
 197 265 l 1
 234 265 l 1
 245 300 l 1
138 300 m 1
 149 265 l 1
 186 265 l 1
 156 244 l 1
 167 210 l 1
 138 231 l 1
 109 210 l 1
 120 244 l 1
 90 265 l 1
 127 265 l 1
 138 300 l 1
263 383 m 1
 274 348 l 1
 310 348 l 1
 281 327 l 1
 292 293 l 1
 263 314 l 1
 233 293 l 1
 245 327 l 1
 215 348 l 1
 252 348 l 1
 263 383 l 1
281 467 m 1
 292 432 l 1
 328 432 l 1
 299 411 l 1
 310 377 l 1
 281 398 l 1
 251 377 l 1
 263 411 l 1
 233 432 l 1
 270 432 l 1
 281 467 l 1
299 550 m 1
 310 515 l 1
 346 515 l 1
 317 494 l 1
 328 460 l 1
 299 481 l 1
 269 460 l 1
 280 494 l 1
 251 515 l 1
 287 515 l 1
 299 550 l 1
316 633 m 1
 327 598 l 1
 364 598 l 1
 334 577 l 1
 346 543 l 1
 316 564 l 1
 287 543 l 1
 298 577 l 1
 269 598 l 1
 305 598 l 1
 316 633 l 1
209 633 m 1
 220 598 l 1
 257 598 l 1
 227 577 l 1
 239 543 l 1
 209 564 l 1
 180 543 l 1
 191 577 l 1
 162 598 l 1
 198 598 l 1
 209 633 l 1
EndSplineSet
EndChar

StartChar: degree
Encoding: 176 176 46
Width: 600
VWidth: 0
UnlinkRmOvrlpSave: 1
Flags: W
HStem: 543 257 613 20G<166.714 179.286 272.714 285.286>
VStem: 90 309
LayerCount: 2
Back
Fore
SplineSet
279 633 m 1x60
 290 598 l 1
 327 598 l 1
 297 577 l 1
 309 543 l 1
 279 564 l 1
 250 543 l 1xa0
 261 577 l 1
 232 598 l 1
 268 598 l 1
 279 633 l 1x60
173 633 m 1x60
 184 598 l 1
 221 598 l 1
 191 577 l 1
 203 543 l 1
 173 564 l 1
 144 543 l 1xa0
 155 577 l 1
 126 598 l 1
 162 598 l 1
 173 633 l 1x60
351 717 m 1
 362 682 l 1
 399 682 l 1
 369 661 l 1
 381 627 l 1
 351 648 l 1
 322 627 l 1
 333 661 l 1
 304 682 l 1
 340 682 l 1
 351 717 l 1
137 717 m 1
 148 682 l 1
 185 682 l 1
 155 661 l 1
 167 627 l 1
 137 648 l 1
 108 627 l 1
 119 661 l 1
 90 682 l 1
 126 682 l 1
 137 717 l 1
315 800 m 1
 326 765 l 1
 363 765 l 1
 333 744 l 1
 344 710 l 1
 315 731 l 1
 286 710 l 1
 297 744 l 1
 267 765 l 1
 304 765 l 1
 315 800 l 1
209 800 m 1
 220 765 l 1
 257 765 l 1
 227 744 l 1
 238 710 l 1
 209 731 l 1
 180 710 l 1
 191 744 l 1
 161 765 l 1
 198 765 l 1
 209 800 l 1
EndSplineSet
EndChar

StartChar: three
Encoding: 51 51 47
Width: 600
VWidth: 0
UnlinkRmOvrlpSave: 1
Flags: W
HStem: 210 21G<150.471 171.619 174.381 195.529 257.471 278.619 281.381 302.529 364.471 385.619 388.381 409.529> 210 21G<150.471 171.619 174.381 195.529 257.471 278.619 281.381 302.529 364.471 385.619 388.381 409.529> 613 20G<397.714 410.286> 780 20G<220.714 233.286 327.714 340.286 433.714 446.286 540.714 553.286>
LayerCount: 2
Back
Fore
SplineSet
387 300 m 1x70
 398 265 l 1
 435 265 l 1
 405 244 l 1
 416 210 l 1
 387 231 l 1
 358 210 l 1
 369 244 l 1
 339 265 l 1
 376 265 l 1
 387 300 l 1x70
280 300 m 1
 291 265 l 1
 328 265 l 1
 298 244 l 1
 309 210 l 1
 280 231 l 1
 251 210 l 1
 262 244 l 1
 232 265 l 1
 269 265 l 1
 280 300 l 1
173 300 m 1
 184 265 l 1
 221 265 l 1
 191 244 l 1
 202 210 l 1
 173 231 l 1
 144 210 l 1
 155 244 l 1
 125 265 l 1
 162 265 l 1
 173 300 l 1
458 383 m 1
 469 348 l 1
 505 348 l 1
 476 327 l 1
 487 293 l 1
 458 314 l 1
 428 293 l 1
 440 327 l 1
 410 348 l 1
 447 348 l 1
 458 383 l 1
138 383 m 1
 149 348 l 1
 185 348 l 1
 156 327 l 1
 167 293 l 1
 138 314 l 1
 108 293 l 1
 120 327 l 1
 90 348 l 1
 127 348 l 1
 138 383 l 1
476 467 m 1
 487 432 l 1
 523 432 l 1
 494 411 l 1
 505 377 l 1
 476 398 l 1
 446 377 l 1
 458 411 l 1
 428 432 l 1
 465 432 l 1
 476 467 l 1
441 550 m 1
 452 515 l 1
 488 515 l 1
 459 494 l 1
 470 460 l 1
 441 481 l 1
 411 460 l 1
 422 494 l 1
 393 515 l 1
 429 515 l 1
 441 550 l 1
334 550 m 1
 345 515 l 1
 381 515 l 1
 352 494 l 1
 363 460 l 1
 334 481 l 1
 304 460 l 1
 315 494 l 1
 286 515 l 1
 322 515 l 1
 334 550 l 1
404 633 m 1
 415 598 l 1
 452 598 l 1
 422 577 l 1
 434 543 l 1
 404 564 l 1
 375 543 l 1
 386 577 l 1
 357 598 l 1
 393 598 l 1
 404 633 l 1
476 717 m 1
 487 682 l 1
 524 682 l 1
 494 661 l 1
 506 627 l 1
 476 648 l 1
 447 627 l 1
 458 661 l 1
 429 682 l 1
 465 682 l 1
 476 717 l 1
547 800 m 1
 558 765 l 1
 595 765 l 1
 565 744 l 1
 576 710 l 1
 547 731 l 1
 518 710 l 1
 529 744 l 1
 499 765 l 1
 536 765 l 1
 547 800 l 1
440 800 m 1
 451 765 l 1
 488 765 l 1
 458 744 l 1
 469 710 l 1
 440 731 l 1
 411 710 l 1
 422 744 l 1
 392 765 l 1
 429 765 l 1
 440 800 l 1
334 800 m 1
 345 765 l 1
 382 765 l 1
 352 744 l 1
 363 710 l 1
 334 731 l 1
 305 710 l 1
 316 744 l 1
 286 765 l 1
 323 765 l 1
 334 800 l 1
227 800 m 1
 238 765 l 1
 275 765 l 1
 245 744 l 1
 256 710 l 1
 227 731 l 1
 198 710 l 1
 209 744 l 1
 179 765 l 1
 216 765 l 1
 227 800 l 1
EndSplineSet
EndChar

StartChar: seven
Encoding: 55 55 48
Width: 600
VWidth: 0
UnlinkRmOvrlpSave: 1
Flags: W
HStem: 210 21G<115.471 136.619 139.381 160.529> 210 21G<115.471 136.619 139.381 160.529> 613 20G<416.714 429.286> 780 20G<185.714 198.286 292.714 305.286 398.714 411.286 505.714 518.286>
LayerCount: 2
Back
Fore
SplineSet
138 300 m 1x70
 149 265 l 1
 186 265 l 1
 156 244 l 1
 167 210 l 1
 138 231 l 1
 109 210 l 1
 120 244 l 1
 90 265 l 1
 127 265 l 1
 138 300 l 1x70
210 383 m 1
 221 348 l 1
 257 348 l 1
 228 327 l 1
 239 293 l 1
 210 314 l 1
 180 293 l 1
 192 327 l 1
 162 348 l 1
 199 348 l 1
 210 383 l 1
281 467 m 1
 292 432 l 1
 328 432 l 1
 299 411 l 1
 310 377 l 1
 281 398 l 1
 251 377 l 1
 263 411 l 1
 233 432 l 1
 270 432 l 1
 281 467 l 1
352 550 m 1
 363 515 l 1
 399 515 l 1
 370 494 l 1
 381 460 l 1
 352 481 l 1
 322 460 l 1
 333 494 l 1
 304 515 l 1
 340 515 l 1
 352 550 l 1
423 633 m 1
 434 598 l 1
 471 598 l 1
 441 577 l 1
 453 543 l 1
 423 564 l 1
 394 543 l 1
 405 577 l 1
 376 598 l 1
 412 598 l 1
 423 633 l 1
494 717 m 1
 505 682 l 1
 542 682 l 1
 512 661 l 1
 524 627 l 1
 494 648 l 1
 465 627 l 1
 476 661 l 1
 447 682 l 1
 483 682 l 1
 494 717 l 1
512 800 m 1
 523 765 l 1
 560 765 l 1
 530 744 l 1
 541 710 l 1
 512 731 l 1
 483 710 l 1
 494 744 l 1
 464 765 l 1
 501 765 l 1
 512 800 l 1
405 800 m 1
 416 765 l 1
 453 765 l 1
 423 744 l 1
 434 710 l 1
 405 731 l 1
 376 710 l 1
 387 744 l 1
 357 765 l 1
 394 765 l 1
 405 800 l 1
299 800 m 1
 310 765 l 1
 347 765 l 1
 317 744 l 1
 328 710 l 1
 299 731 l 1
 270 710 l 1
 281 744 l 1
 251 765 l 1
 288 765 l 1
 299 800 l 1
192 800 m 1
 203 765 l 1
 240 765 l 1
 210 744 l 1
 221 710 l 1
 192 731 l 1
 163 710 l 1
 174 744 l 1
 144 765 l 1
 181 765 l 1
 192 800 l 1
EndSplineSet
EndChar

StartChar: semicolon
Encoding: 59 59 49
Width: 600
VWidth: 0
UnlinkRmOvrlpSave: 1
Flags: W
HStem: 210 21G<115.471 136.619 139.381 160.529> 210 21G<115.471 136.619 139.381 160.529> 780 20G<291.714 304.286>
VStem: 90 291
LayerCount: 2
Back
Fore
SplineSet
138 300 m 1x70
 149 265 l 1
 186 265 l 1
 156 244 l 1
 167 210 l 1
 138 231 l 1
 109 210 l 1
 120 244 l 1
 90 265 l 1
 127 265 l 1
 138 300 l 1x70
209 383 m 1
 220 348 l 1
 256 348 l 1
 227 327 l 1
 238 293 l 1
 209 314 l 1
 179 293 l 1
 191 327 l 1
 161 348 l 1
 198 348 l 1
 209 383 l 1
280 467 m 1
 291 432 l 1
 327 432 l 1
 298 411 l 1
 309 377 l 1
 280 398 l 1
 250 377 l 1
 262 411 l 1
 232 432 l 1
 269 432 l 1
 280 467 l 1
174 467 m 1
 185 432 l 1
 221 432 l 1
 192 411 l 1
 203 377 l 1
 174 398 l 1
 144 377 l 1
 156 411 l 1
 126 432 l 1
 163 432 l 1
 174 467 l 1
298 550 m 1
 309 515 l 1
 345 515 l 1
 316 494 l 1
 327 460 l 1
 298 481 l 1
 268 460 l 1
 279 494 l 1
 250 515 l 1
 286 515 l 1
 298 550 l 1
192 550 m 1
 203 515 l 1
 239 515 l 1
 210 494 l 1
 221 460 l 1
 192 481 l 1
 162 460 l 1
 173 494 l 1
 144 515 l 1
 180 515 l 1
 192 550 l 1
333 717 m 1
 344 682 l 1
 381 682 l 1
 351 661 l 1
 363 627 l 1
 333 648 l 1
 304 627 l 1
 315 661 l 1
 286 682 l 1
 322 682 l 1
 333 717 l 1
227 717 m 1
 238 682 l 1
 275 682 l 1
 245 661 l 1
 257 627 l 1
 227 648 l 1
 198 627 l 1
 209 661 l 1
 180 682 l 1
 216 682 l 1
 227 717 l 1
298 800 m 1
 309 765 l 1
 346 765 l 1
 316 744 l 1
 327 710 l 1
 298 731 l 1
 269 710 l 1
 280 744 l 1
 250 765 l 1
 287 765 l 1
 298 800 l 1
EndSplineSet
EndChar

StartChar: question
Encoding: 63 63 50
Width: 600
VWidth: 0
UnlinkRmOvrlpSave: 1
Flags: W
HStem: 210 21G<185.471 206.619 209.381 230.529> 210 21G<185.471 206.619 209.381 230.529> 613 20G<272.714 285.286 379.714 392.286> 780 20G<201.714 214.286 308.714 321.286 415.714 428.286>
LayerCount: 2
Back
Fore
SplineSet
208 300 m 1x70
 219 265 l 1
 256 265 l 1
 226 244 l 1
 237 210 l 1
 208 231 l 1
 179 210 l 1
 190 244 l 1
 160 265 l 1
 197 265 l 1
 208 300 l 1x70
244 467 m 1
 255 432 l 1
 291 432 l 1
 262 411 l 1
 273 377 l 1
 244 398 l 1
 214 377 l 1
 226 411 l 1
 196 432 l 1
 233 432 l 1
 244 467 l 1
262 550 m 1
 273 515 l 1
 309 515 l 1
 280 494 l 1
 291 460 l 1
 262 481 l 1
 232 460 l 1
 243 494 l 1
 214 515 l 1
 250 515 l 1
 262 550 l 1
386 633 m 1
 397 598 l 1
 434 598 l 1
 404 577 l 1
 416 543 l 1
 386 564 l 1
 357 543 l 1
 368 577 l 1
 339 598 l 1
 375 598 l 1
 386 633 l 1
279 633 m 1
 290 598 l 1
 327 598 l 1
 297 577 l 1
 309 543 l 1
 279 564 l 1
 250 543 l 1
 261 577 l 1
 232 598 l 1
 268 598 l 1
 279 633 l 1
457 717 m 1
 468 682 l 1
 505 682 l 1
 475 661 l 1
 487 627 l 1
 457 648 l 1
 428 627 l 1
 439 661 l 1
 410 682 l 1
 446 682 l 1
 457 717 l 1
137 717 m 1
 148 682 l 1
 185 682 l 1
 155 661 l 1
 167 627 l 1
 137 648 l 1
 108 627 l 1
 119 661 l 1
 90 682 l 1
 126 682 l 1
 137 717 l 1
422 800 m 1
 433 765 l 1
 470 765 l 1
 440 744 l 1
 451 710 l 1
 422 731 l 1
 393 710 l 1
 404 744 l 1
 374 765 l 1
 411 765 l 1
 422 800 l 1
315 800 m 1
 326 765 l 1
 363 765 l 1
 333 744 l 1
 344 710 l 1
 315 731 l 1
 286 710 l 1
 297 744 l 1
 267 765 l 1
 304 765 l 1
 315 800 l 1
208 800 m 1
 219 765 l 1
 256 765 l 1
 226 744 l 1
 237 710 l 1
 208 731 l 1
 179 710 l 1
 190 744 l 1
 160 765 l 1
 197 765 l 1
 208 800 l 1
EndSplineSet
EndChar

StartChar: Agrave
Encoding: 192 192 51
Width: 600
VWidth: 0
UnlinkRmOvrlpSave: 1
Flags: W
HStem: 210 21G<115.471 136.619 139.381 160.529 435.471 456.619 459.381 480.529> 210 21G<115.471 136.619 139.381 160.529 435.471 456.619 459.381 480.529> 613 20G<362.714 375.286> 780 20G<398.714 411.286>
LayerCount: 2
Back
Fore
SplineSet
458 300 m 1x70
 469 265 l 1
 506 265 l 1
 476 244 l 1
 487 210 l 1
 458 231 l 1
 429 210 l 1
 440 244 l 1
 410 265 l 1
 447 265 l 1
 458 300 l 1x70
138 300 m 1
 149 265 l 1
 186 265 l 1
 156 244 l 1
 167 210 l 1
 138 231 l 1
 109 210 l 1
 120 244 l 1
 90 265 l 1
 127 265 l 1
 138 300 l 1
476 383 m 1
 487 348 l 1
 523 348 l 1
 494 327 l 1
 505 293 l 1
 476 314 l 1
 446 293 l 1
 458 327 l 1
 428 348 l 1
 465 348 l 1
 476 383 l 1
369 383 m 1
 380 348 l 1
 416 348 l 1
 387 327 l 1
 398 293 l 1
 369 314 l 1
 339 293 l 1
 351 327 l 1
 321 348 l 1
 358 348 l 1
 369 383 l 1
263 383 m 1
 274 348 l 1
 310 348 l 1
 281 327 l 1
 292 293 l 1
 263 314 l 1
 233 293 l 1
 245 327 l 1
 215 348 l 1
 252 348 l 1
 263 383 l 1
156 383 m 1
 167 348 l 1
 203 348 l 1
 174 327 l 1
 185 293 l 1
 156 314 l 1
 126 293 l 1
 138 327 l 1
 108 348 l 1
 145 348 l 1
 156 383 l 1
441 467 m 1
 452 432 l 1
 488 432 l 1
 459 411 l 1
 470 377 l 1
 441 398 l 1
 411 377 l 1
 423 411 l 1
 393 432 l 1
 430 432 l 1
 441 467 l 1
227 467 m 1
 238 432 l 1
 274 432 l 1
 245 411 l 1
 256 377 l 1
 227 398 l 1
 197 377 l 1
 209 411 l 1
 179 432 l 1
 216 432 l 1
 227 467 l 1
405 550 m 1
 416 515 l 1
 452 515 l 1
 423 494 l 1
 434 460 l 1
 405 481 l 1
 375 460 l 1
 386 494 l 1
 357 515 l 1
 393 515 l 1
 405 550 l 1
299 550 m 1
 310 515 l 1
 346 515 l 1
 317 494 l 1
 328 460 l 1
 299 481 l 1
 269 460 l 1
 280 494 l 1
 251 515 l 1
 287 515 l 1
 299 550 l 1
369 633 m 1
 380 598 l 1
 417 598 l 1
 387 577 l 1
 399 543 l 1
 369 564 l 1
 340 543 l 1
 351 577 l 1
 322 598 l 1
 358 598 l 1
 369 633 l 1
440 717 m 1
 451 682 l 1
 488 682 l 1
 458 661 l 1
 470 627 l 1
 440 648 l 1
 411 627 l 1
 422 661 l 1
 393 682 l 1
 429 682 l 1
 440 717 l 1
405 800 m 1
 416 765 l 1
 453 765 l 1
 423 744 l 1
 434 710 l 1
 405 731 l 1
 376 710 l 1
 387 744 l 1
 357 765 l 1
 394 765 l 1
 405 800 l 1
EndSplineSet
EndChar

StartChar: C
Encoding: 67 67 52
Width: 600
VWidth: 0
UnlinkRmOvrlpSave: 1
Flags: W
HStem: 210 21G<150.471 171.619 174.381 195.529 257.471 278.619 281.381 302.529 364.471 385.619 388.381 409.529> 210 21G<150.471 171.619 174.381 195.529 257.471 278.619 281.381 302.529 364.471 385.619 388.381 409.529> 613 20G<184.714 197.286> 780 20G<273.714 286.286 380.714 393.286 487.714 500.286>
LayerCount: 2
Back
Fore
SplineSet
387 300 m 1x70
 398 265 l 1
 435 265 l 1
 405 244 l 1
 416 210 l 1
 387 231 l 1
 358 210 l 1
 369 244 l 1
 339 265 l 1
 376 265 l 1
 387 300 l 1x70
280 300 m 1
 291 265 l 1
 328 265 l 1
 298 244 l 1
 309 210 l 1
 280 231 l 1
 251 210 l 1
 262 244 l 1
 232 265 l 1
 269 265 l 1
 280 300 l 1
173 300 m 1
 184 265 l 1
 221 265 l 1
 191 244 l 1
 202 210 l 1
 173 231 l 1
 144 210 l 1
 155 244 l 1
 125 265 l 1
 162 265 l 1
 173 300 l 1
458 383 m 1
 469 348 l 1
 505 348 l 1
 476 327 l 1
 487 293 l 1
 458 314 l 1
 428 293 l 1
 440 327 l 1
 410 348 l 1
 447 348 l 1
 458 383 l 1
138 383 m 1
 149 348 l 1
 185 348 l 1
 156 327 l 1
 167 293 l 1
 138 314 l 1
 108 293 l 1
 120 327 l 1
 90 348 l 1
 127 348 l 1
 138 383 l 1
156 467 m 1
 167 432 l 1
 203 432 l 1
 174 411 l 1
 185 377 l 1
 156 398 l 1
 126 377 l 1
 138 411 l 1
 108 432 l 1
 145 432 l 1
 156 467 l 1
174 550 m 1
 185 515 l 1
 221 515 l 1
 192 494 l 1
 203 460 l 1
 174 481 l 1
 144 460 l 1
 155 494 l 1
 126 515 l 1
 162 515 l 1
 174 550 l 1
191 633 m 1
 202 598 l 1
 239 598 l 1
 209 577 l 1
 221 543 l 1
 191 564 l 1
 162 543 l 1
 173 577 l 1
 144 598 l 1
 180 598 l 1
 191 633 l 1
529 717 m 1
 540 682 l 1
 577 682 l 1
 547 661 l 1
 559 627 l 1
 529 648 l 1
 500 627 l 1
 511 661 l 1
 482 682 l 1
 518 682 l 1
 529 717 l 1
209 717 m 1
 220 682 l 1
 257 682 l 1
 227 661 l 1
 239 627 l 1
 209 648 l 1
 180 627 l 1
 191 661 l 1
 162 682 l 1
 198 682 l 1
 209 717 l 1
494 800 m 1
 505 765 l 1
 542 765 l 1
 512 744 l 1
 523 710 l 1
 494 731 l 1
 465 710 l 1
 476 744 l 1
 446 765 l 1
 483 765 l 1
 494 800 l 1
387 800 m 1
 398 765 l 1
 435 765 l 1
 405 744 l 1
 416 710 l 1
 387 731 l 1
 358 710 l 1
 369 744 l 1
 339 765 l 1
 376 765 l 1
 387 800 l 1
280 800 m 1
 291 765 l 1
 328 765 l 1
 298 744 l 1
 309 710 l 1
 280 731 l 1
 251 710 l 1
 262 744 l 1
 232 765 l 1
 269 765 l 1
 280 800 l 1
EndSplineSet
EndChar

StartChar: Adieresis
Encoding: 196 196 53
Width: 600
VWidth: 0
UnlinkRmOvrlpSave: 1
Flags: W
HStem: 210 21G<115.471 136.619 139.381 160.529 435.471 456.619 459.381 480.529> 210 21G<115.471 136.619 139.381 160.529 435.471 456.619 459.381 480.529> 613 20G<309.714 322.286 415.714 428.286> 780 20G<291.714 304.286 505.714 518.286>
LayerCount: 2
Back
Fore
SplineSet
458 300 m 1x70
 469 265 l 1
 506 265 l 1
 476 244 l 1
 487 210 l 1
 458 231 l 1
 429 210 l 1
 440 244 l 1
 410 265 l 1
 447 265 l 1
 458 300 l 1x70
138 300 m 1
 149 265 l 1
 186 265 l 1
 156 244 l 1
 167 210 l 1
 138 231 l 1
 109 210 l 1
 120 244 l 1
 90 265 l 1
 127 265 l 1
 138 300 l 1
476 383 m 1
 487 348 l 1
 523 348 l 1
 494 327 l 1
 505 293 l 1
 476 314 l 1
 446 293 l 1
 458 327 l 1
 428 348 l 1
 465 348 l 1
 476 383 l 1
156 383 m 1
 167 348 l 1
 203 348 l 1
 174 327 l 1
 185 293 l 1
 156 314 l 1
 126 293 l 1
 138 327 l 1
 108 348 l 1
 145 348 l 1
 156 383 l 1
494 467 m 1
 505 432 l 1
 541 432 l 1
 512 411 l 1
 523 377 l 1
 494 398 l 1
 464 377 l 1
 476 411 l 1
 446 432 l 1
 483 432 l 1
 494 467 l 1
387 467 m 1
 398 432 l 1
 434 432 l 1
 405 411 l 1
 416 377 l 1
 387 398 l 1
 357 377 l 1
 369 411 l 1
 339 432 l 1
 376 432 l 1
 387 467 l 1
281 467 m 1
 292 432 l 1
 328 432 l 1
 299 411 l 1
 310 377 l 1
 281 398 l 1
 251 377 l 1
 263 411 l 1
 233 432 l 1
 270 432 l 1
 281 467 l 1
174 467 m 1
 185 432 l 1
 221 432 l 1
 192 411 l 1
 203 377 l 1
 174 398 l 1
 144 377 l 1
 156 411 l 1
 126 432 l 1
 163 432 l 1
 174 467 l 1
459 550 m 1
 470 515 l 1
 506 515 l 1
 477 494 l 1
 488 460 l 1
 459 481 l 1
 429 460 l 1
 440 494 l 1
 411 515 l 1
 447 515 l 1
 459 550 l 1
245 550 m 1
 256 515 l 1
 292 515 l 1
 263 494 l 1
 274 460 l 1
 245 481 l 1
 215 460 l 1
 226 494 l 1
 197 515 l 1
 233 515 l 1
 245 550 l 1
422 633 m 1
 433 598 l 1
 470 598 l 1
 440 577 l 1
 452 543 l 1
 422 564 l 1
 393 543 l 1
 404 577 l 1
 375 598 l 1
 411 598 l 1
 422 633 l 1
316 633 m 1
 327 598 l 1
 364 598 l 1
 334 577 l 1
 346 543 l 1
 316 564 l 1
 287 543 l 1
 298 577 l 1
 269 598 l 1
 305 598 l 1
 316 633 l 1
387 717 m 1
 398 682 l 1
 435 682 l 1
 405 661 l 1
 417 627 l 1
 387 648 l 1
 358 627 l 1
 369 661 l 1
 340 682 l 1
 376 682 l 1
 387 717 l 1
512 800 m 1
 523 765 l 1
 560 765 l 1
 530 744 l 1
 541 710 l 1
 512 731 l 1
 483 710 l 1
 494 744 l 1
 464 765 l 1
 501 765 l 1
 512 800 l 1
298 800 m 1
 309 765 l 1
 346 765 l 1
 316 744 l 1
 327 710 l 1
 298 731 l 1
 269 710 l 1
 280 744 l 1
 250 765 l 1
 287 765 l 1
 298 800 l 1
EndSplineSet
EndChar

StartChar: G
Encoding: 71 71 54
Width: 600
VWidth: 0
UnlinkRmOvrlpSave: 1
Flags: W
HStem: 210 21G<150.471 171.619 174.381 195.529 257.471 278.619 281.381 302.529 364.471 385.619 388.381 409.529> 210 21G<150.471 171.619 174.381 195.529 257.471 278.619 281.381 302.529 364.471 385.619 388.381 409.529> 613 20G<184.714 197.286> 780 20G<273.714 286.286 380.714 393.286 487.714 500.286>
LayerCount: 2
Back
Fore
SplineSet
387 300 m 1x70
 398 265 l 1
 435 265 l 1
 405 244 l 1
 416 210 l 1
 387 231 l 1
 358 210 l 1
 369 244 l 1
 339 265 l 1
 376 265 l 1
 387 300 l 1x70
280 300 m 1
 291 265 l 1
 328 265 l 1
 298 244 l 1
 309 210 l 1
 280 231 l 1
 251 210 l 1
 262 244 l 1
 232 265 l 1
 269 265 l 1
 280 300 l 1
173 300 m 1
 184 265 l 1
 221 265 l 1
 191 244 l 1
 202 210 l 1
 173 231 l 1
 144 210 l 1
 155 244 l 1
 125 265 l 1
 162 265 l 1
 173 300 l 1
458 383 m 1
 469 348 l 1
 505 348 l 1
 476 327 l 1
 487 293 l 1
 458 314 l 1
 428 293 l 1
 440 327 l 1
 410 348 l 1
 447 348 l 1
 458 383 l 1
138 383 m 1
 149 348 l 1
 185 348 l 1
 156 327 l 1
 167 293 l 1
 138 314 l 1
 108 293 l 1
 120 327 l 1
 90 348 l 1
 127 348 l 1
 138 383 l 1
476 467 m 1
 487 432 l 1
 523 432 l 1
 494 411 l 1
 505 377 l 1
 476 398 l 1
 446 377 l 1
 458 411 l 1
 428 432 l 1
 465 432 l 1
 476 467 l 1
156 467 m 1
 167 432 l 1
 203 432 l 1
 174 411 l 1
 185 377 l 1
 156 398 l 1
 126 377 l 1
 138 411 l 1
 108 432 l 1
 145 432 l 1
 156 467 l 1
494 550 m 1
 505 515 l 1
 541 515 l 1
 512 494 l 1
 523 460 l 1
 494 481 l 1
 464 460 l 1
 475 494 l 1
 446 515 l 1
 482 515 l 1
 494 550 l 1
387 550 m 1
 398 515 l 1
 434 515 l 1
 405 494 l 1
 416 460 l 1
 387 481 l 1
 357 460 l 1
 368 494 l 1
 339 515 l 1
 375 515 l 1
 387 550 l 1
174 550 m 1
 185 515 l 1
 221 515 l 1
 192 494 l 1
 203 460 l 1
 174 481 l 1
 144 460 l 1
 155 494 l 1
 126 515 l 1
 162 515 l 1
 174 550 l 1
191 633 m 1
 202 598 l 1
 239 598 l 1
 209 577 l 1
 221 543 l 1
 191 564 l 1
 162 543 l 1
 173 577 l 1
 144 598 l 1
 180 598 l 1
 191 633 l 1
529 717 m 1
 540 682 l 1
 577 682 l 1
 547 661 l 1
 559 627 l 1
 529 648 l 1
 500 627 l 1
 511 661 l 1
 482 682 l 1
 518 682 l 1
 529 717 l 1
209 717 m 1
 220 682 l 1
 257 682 l 1
 227 661 l 1
 239 627 l 1
 209 648 l 1
 180 627 l 1
 191 661 l 1
 162 682 l 1
 198 682 l 1
 209 717 l 1
494 800 m 1
 505 765 l 1
 542 765 l 1
 512 744 l 1
 523 710 l 1
 494 731 l 1
 465 710 l 1
 476 744 l 1
 446 765 l 1
 483 765 l 1
 494 800 l 1
387 800 m 1
 398 765 l 1
 435 765 l 1
 405 744 l 1
 416 710 l 1
 387 731 l 1
 358 710 l 1
 369 744 l 1
 339 765 l 1
 376 765 l 1
 387 800 l 1
280 800 m 1
 291 765 l 1
 328 765 l 1
 298 744 l 1
 309 710 l 1
 280 731 l 1
 251 710 l 1
 262 744 l 1
 232 765 l 1
 269 765 l 1
 280 800 l 1
EndSplineSet
EndChar

StartChar: Egrave
Encoding: 200 200 55
Width: 600
VWidth: 0
UnlinkRmOvrlpSave: 1
Flags: W
HStem: 210 21G<115.471 136.619 139.381 160.529 222.471 243.619 246.381 267.529 328.471 349.619 352.381 373.529 435.471 456.619 459.381 480.529> 210 21G<115.471 136.619 139.381 160.529 222.471 243.619 246.381 267.529 328.471 349.619 352.381 373.529 435.471 456.619 459.381 480.529> 613 20G<202.714 215.286 309.714 322.286 415.714 428.286 522.714 535.286> 780 20G<398.714 411.286>
LayerCount: 2
Back
Fore
SplineSet
458 300 m 1x70
 469 265 l 1
 506 265 l 1
 476 244 l 1
 487 210 l 1
 458 231 l 1
 429 210 l 1
 440 244 l 1
 410 265 l 1
 447 265 l 1
 458 300 l 1x70
351 300 m 1
 362 265 l 1
 399 265 l 1
 369 244 l 1
 380 210 l 1
 351 231 l 1
 322 210 l 1
 333 244 l 1
 303 265 l 1
 340 265 l 1
 351 300 l 1
245 300 m 1
 256 265 l 1
 293 265 l 1
 263 244 l 1
 274 210 l 1
 245 231 l 1
 216 210 l 1
 227 244 l 1
 197 265 l 1
 234 265 l 1
 245 300 l 1
138 300 m 1
 149 265 l 1
 186 265 l 1
 156 244 l 1
 167 210 l 1
 138 231 l 1
 109 210 l 1
 120 244 l 1
 90 265 l 1
 127 265 l 1
 138 300 l 1
156 383 m 1
 167 348 l 1
 203 348 l 1
 174 327 l 1
 185 293 l 1
 156 314 l 1
 126 293 l 1
 138 327 l 1
 108 348 l 1
 145 348 l 1
 156 383 l 1
387 467 m 1
 398 432 l 1
 434 432 l 1
 405 411 l 1
 416 377 l 1
 387 398 l 1
 357 377 l 1
 369 411 l 1
 339 432 l 1
 376 432 l 1
 387 467 l 1
281 467 m 1
 292 432 l 1
 328 432 l 1
 299 411 l 1
 310 377 l 1
 281 398 l 1
 251 377 l 1
 263 411 l 1
 233 432 l 1
 270 432 l 1
 281 467 l 1
174 467 m 1
 185 432 l 1
 221 432 l 1
 192 411 l 1
 203 377 l 1
 174 398 l 1
 144 377 l 1
 156 411 l 1
 126 432 l 1
 163 432 l 1
 174 467 l 1
192 550 m 1
 203 515 l 1
 239 515 l 1
 210 494 l 1
 221 460 l 1
 192 481 l 1
 162 460 l 1
 173 494 l 1
 144 515 l 1
 180 515 l 1
 192 550 l 1
529 633 m 1
 540 598 l 1
 577 598 l 1
 547 577 l 1
 559 543 l 1
 529 564 l 1
 500 543 l 1
 511 577 l 1
 482 598 l 1
 518 598 l 1
 529 633 l 1
422 633 m 1
 433 598 l 1
 470 598 l 1
 440 577 l 1
 452 543 l 1
 422 564 l 1
 393 543 l 1
 404 577 l 1
 375 598 l 1
 411 598 l 1
 422 633 l 1
316 633 m 1
 327 598 l 1
 364 598 l 1
 334 577 l 1
 346 543 l 1
 316 564 l 1
 287 543 l 1
 298 577 l 1
 269 598 l 1
 305 598 l 1
 316 633 l 1
209 633 m 1
 220 598 l 1
 257 598 l 1
 227 577 l 1
 239 543 l 1
 209 564 l 1
 180 543 l 1
 191 577 l 1
 162 598 l 1
 198 598 l 1
 209 633 l 1
440 717 m 1
 451 682 l 1
 488 682 l 1
 458 661 l 1
 470 627 l 1
 440 648 l 1
 411 627 l 1
 422 661 l 1
 393 682 l 1
 429 682 l 1
 440 717 l 1
405 800 m 1
 416 765 l 1
 453 765 l 1
 423 744 l 1
 434 710 l 1
 405 731 l 1
 376 710 l 1
 387 744 l 1
 357 765 l 1
 394 765 l 1
 405 800 l 1
EndSplineSet
EndChar

StartChar: K
Encoding: 75 75 56
Width: 600
VWidth: 0
UnlinkRmOvrlpSave: 1
Flags: W
HStem: 210 21G<115.471 136.619 139.381 160.529 435.471 456.619 459.381 480.529> 210 21G<115.471 136.619 139.381 160.529 435.471 456.619 459.381 480.529> 613 20G<202.714 215.286 309.714 322.286> 780 20G<238.714 251.286 558.714 571.286>
LayerCount: 2
Back
Fore
SplineSet
458 300 m 1x70
 469 265 l 1
 506 265 l 1
 476 244 l 1
 487 210 l 1
 458 231 l 1
 429 210 l 1
 440 244 l 1
 410 265 l 1
 447 265 l 1
 458 300 l 1x70
138 300 m 1
 149 265 l 1
 186 265 l 1
 156 244 l 1
 167 210 l 1
 138 231 l 1
 109 210 l 1
 120 244 l 1
 90 265 l 1
 127 265 l 1
 138 300 l 1
423 383 m 1
 434 348 l 1
 470 348 l 1
 441 327 l 1
 452 293 l 1
 423 314 l 1
 393 293 l 1
 405 327 l 1
 375 348 l 1
 412 348 l 1
 423 383 l 1
156 383 m 1
 167 348 l 1
 203 348 l 1
 174 327 l 1
 185 293 l 1
 156 314 l 1
 126 293 l 1
 138 327 l 1
 108 348 l 1
 145 348 l 1
 156 383 l 1
387 467 m 1
 398 432 l 1
 434 432 l 1
 405 411 l 1
 416 377 l 1
 387 398 l 1
 357 377 l 1
 369 411 l 1
 339 432 l 1
 376 432 l 1
 387 467 l 1
174 467 m 1
 185 432 l 1
 221 432 l 1
 192 411 l 1
 203 377 l 1
 174 398 l 1
 144 377 l 1
 156 411 l 1
 126 432 l 1
 163 432 l 1
 174 467 l 1
352 550 m 1
 363 515 l 1
 399 515 l 1
 370 494 l 1
 381 460 l 1
 352 481 l 1
 322 460 l 1
 333 494 l 1
 304 515 l 1
 340 515 l 1
 352 550 l 1
192 550 m 1
 203 515 l 1
 239 515 l 1
 210 494 l 1
 221 460 l 1
 192 481 l 1
 162 460 l 1
 173 494 l 1
 144 515 l 1
 180 515 l 1
 192 550 l 1
316 633 m 1
 327 598 l 1
 364 598 l 1
 334 577 l 1
 346 543 l 1
 316 564 l 1
 287 543 l 1
 298 577 l 1
 269 598 l 1
 305 598 l 1
 316 633 l 1
209 633 m 1
 220 598 l 1
 257 598 l 1
 227 577 l 1
 239 543 l 1
 209 564 l 1
 180 543 l 1
 191 577 l 1
 162 598 l 1
 198 598 l 1
 209 633 l 1
440 717 m 1
 451 682 l 1
 488 682 l 1
 458 661 l 1
 470 627 l 1
 440 648 l 1
 411 627 l 1
 422 661 l 1
 393 682 l 1
 429 682 l 1
 440 717 l 1
227 717 m 1
 238 682 l 1
 275 682 l 1
 245 661 l 1
 257 627 l 1
 227 648 l 1
 198 627 l 1
 209 661 l 1
 180 682 l 1
 216 682 l 1
 227 717 l 1
565 800 m 1
 576 765 l 1
 613 765 l 1
 583 744 l 1
 594 710 l 1
 565 731 l 1
 536 710 l 1
 547 744 l 1
 517 765 l 1
 554 765 l 1
 565 800 l 1
245 800 m 1
 256 765 l 1
 293 765 l 1
 263 744 l 1
 274 710 l 1
 245 731 l 1
 216 710 l 1
 227 744 l 1
 197 765 l 1
 234 765 l 1
 245 800 l 1
EndSplineSet
EndChar

StartChar: O
Encoding: 79 79 57
Width: 600
VWidth: 0
UnlinkRmOvrlpSave: 1
Flags: W
HStem: 210 21G<150.471 171.619 174.381 195.529 257.471 278.619 281.381 302.529 364.471 385.619 388.381 409.529> 210 21G<150.471 171.619 174.381 195.529 257.471 278.619 281.381 302.529 364.471 385.619 388.381 409.529> 613 20G<184.714 197.286 504.714 517.286> 780 20G<273.714 286.286 380.714 393.286 487.714 500.286>
LayerCount: 2
Back
Fore
SplineSet
387 300 m 1x70
 398 265 l 1
 435 265 l 1
 405 244 l 1
 416 210 l 1
 387 231 l 1
 358 210 l 1
 369 244 l 1
 339 265 l 1
 376 265 l 1
 387 300 l 1x70
280 300 m 1
 291 265 l 1
 328 265 l 1
 298 244 l 1
 309 210 l 1
 280 231 l 1
 251 210 l 1
 262 244 l 1
 232 265 l 1
 269 265 l 1
 280 300 l 1
173 300 m 1
 184 265 l 1
 221 265 l 1
 191 244 l 1
 202 210 l 1
 173 231 l 1
 144 210 l 1
 155 244 l 1
 125 265 l 1
 162 265 l 1
 173 300 l 1
458 383 m 1
 469 348 l 1
 505 348 l 1
 476 327 l 1
 487 293 l 1
 458 314 l 1
 428 293 l 1
 440 327 l 1
 410 348 l 1
 447 348 l 1
 458 383 l 1
138 383 m 1
 149 348 l 1
 185 348 l 1
 156 327 l 1
 167 293 l 1
 138 314 l 1
 108 293 l 1
 120 327 l 1
 90 348 l 1
 127 348 l 1
 138 383 l 1
476 467 m 1
 487 432 l 1
 523 432 l 1
 494 411 l 1
 505 377 l 1
 476 398 l 1
 446 377 l 1
 458 411 l 1
 428 432 l 1
 465 432 l 1
 476 467 l 1
156 467 m 1
 167 432 l 1
 203 432 l 1
 174 411 l 1
 185 377 l 1
 156 398 l 1
 126 377 l 1
 138 411 l 1
 108 432 l 1
 145 432 l 1
 156 467 l 1
494 550 m 1
 505 515 l 1
 541 515 l 1
 512 494 l 1
 523 460 l 1
 494 481 l 1
 464 460 l 1
 475 494 l 1
 446 515 l 1
 482 515 l 1
 494 550 l 1
174 550 m 1
 185 515 l 1
 221 515 l 1
 192 494 l 1
 203 460 l 1
 174 481 l 1
 144 460 l 1
 155 494 l 1
 126 515 l 1
 162 515 l 1
 174 550 l 1
511 633 m 1
 522 598 l 1
 559 598 l 1
 529 577 l 1
 541 543 l 1
 511 564 l 1
 482 543 l 1
 493 577 l 1
 464 598 l 1
 500 598 l 1
 511 633 l 1
191 633 m 1
 202 598 l 1
 239 598 l 1
 209 577 l 1
 221 543 l 1
 191 564 l 1
 162 543 l 1
 173 577 l 1
 144 598 l 1
 180 598 l 1
 191 633 l 1
529 717 m 1
 540 682 l 1
 577 682 l 1
 547 661 l 1
 559 627 l 1
 529 648 l 1
 500 627 l 1
 511 661 l 1
 482 682 l 1
 518 682 l 1
 529 717 l 1
209 717 m 1
 220 682 l 1
 257 682 l 1
 227 661 l 1
 239 627 l 1
 209 648 l 1
 180 627 l 1
 191 661 l 1
 162 682 l 1
 198 682 l 1
 209 717 l 1
494 800 m 1
 505 765 l 1
 542 765 l 1
 512 744 l 1
 523 710 l 1
 494 731 l 1
 465 710 l 1
 476 744 l 1
 446 765 l 1
 483 765 l 1
 494 800 l 1
387 800 m 1
 398 765 l 1
 435 765 l 1
 405 744 l 1
 416 710 l 1
 387 731 l 1
 358 710 l 1
 369 744 l 1
 339 765 l 1
 376 765 l 1
 387 800 l 1
280 800 m 1
 291 765 l 1
 328 765 l 1
 298 744 l 1
 309 710 l 1
 280 731 l 1
 251 710 l 1
 262 744 l 1
 232 765 l 1
 269 765 l 1
 280 800 l 1
EndSplineSet
EndChar

StartChar: S
Encoding: 83 83 58
Width: 600
VWidth: 0
UnlinkRmOvrlpSave: 1
Flags: W
HStem: 210 21G<150.471 171.619 174.381 195.529 257.471 278.619 281.381 302.529 364.471 385.619 388.381 409.529> 210 21G<150.471 171.619 174.381 195.529 257.471 278.619 281.381 302.529 364.471 385.619 388.381 409.529> 613 20G<184.714 197.286> 780 20G<273.714 286.286 380.714 393.286 487.714 500.286>
LayerCount: 2
Back
Fore
SplineSet
387 300 m 1x70
 398 265 l 1
 435 265 l 1
 405 244 l 1
 416 210 l 1
 387 231 l 1
 358 210 l 1
 369 244 l 1
 339 265 l 1
 376 265 l 1
 387 300 l 1x70
280 300 m 1
 291 265 l 1
 328 265 l 1
 298 244 l 1
 309 210 l 1
 280 231 l 1
 251 210 l 1
 262 244 l 1
 232 265 l 1
 269 265 l 1
 280 300 l 1
173 300 m 1
 184 265 l 1
 221 265 l 1
 191 244 l 1
 202 210 l 1
 173 231 l 1
 144 210 l 1
 155 244 l 1
 125 265 l 1
 162 265 l 1
 173 300 l 1
458 383 m 1
 469 348 l 1
 505 348 l 1
 476 327 l 1
 487 293 l 1
 458 314 l 1
 428 293 l 1
 440 327 l 1
 410 348 l 1
 447 348 l 1
 458 383 l 1
138 383 m 1
 149 348 l 1
 185 348 l 1
 156 327 l 1
 167 293 l 1
 138 314 l 1
 108 293 l 1
 120 327 l 1
 90 348 l 1
 127 348 l 1
 138 383 l 1
476 467 m 1
 487 432 l 1
 523 432 l 1
 494 411 l 1
 505 377 l 1
 476 398 l 1
 446 377 l 1
 458 411 l 1
 428 432 l 1
 465 432 l 1
 476 467 l 1
441 550 m 1
 452 515 l 1
 488 515 l 1
 459 494 l 1
 470 460 l 1
 441 481 l 1
 411 460 l 1
 422 494 l 1
 393 515 l 1
 429 515 l 1
 441 550 l 1
334 550 m 1
 345 515 l 1
 381 515 l 1
 352 494 l 1
 363 460 l 1
 334 481 l 1
 304 460 l 1
 315 494 l 1
 286 515 l 1
 322 515 l 1
 334 550 l 1
227 550 m 1
 238 515 l 1
 274 515 l 1
 245 494 l 1
 256 460 l 1
 227 481 l 1
 197 460 l 1
 208 494 l 1
 179 515 l 1
 215 515 l 1
 227 550 l 1
191 633 m 1
 202 598 l 1
 239 598 l 1
 209 577 l 1
 221 543 l 1
 191 564 l 1
 162 543 l 1
 173 577 l 1
 144 598 l 1
 180 598 l 1
 191 633 l 1
529 717 m 1
 540 682 l 1
 577 682 l 1
 547 661 l 1
 559 627 l 1
 529 648 l 1
 500 627 l 1
 511 661 l 1
 482 682 l 1
 518 682 l 1
 529 717 l 1
209 717 m 1
 220 682 l 1
 257 682 l 1
 227 661 l 1
 239 627 l 1
 209 648 l 1
 180 627 l 1
 191 661 l 1
 162 682 l 1
 198 682 l 1
 209 717 l 1
494 800 m 1
 505 765 l 1
 542 765 l 1
 512 744 l 1
 523 710 l 1
 494 731 l 1
 465 710 l 1
 476 744 l 1
 446 765 l 1
 483 765 l 1
 494 800 l 1
387 800 m 1
 398 765 l 1
 435 765 l 1
 405 744 l 1
 416 710 l 1
 387 731 l 1
 358 710 l 1
 369 744 l 1
 339 765 l 1
 376 765 l 1
 387 800 l 1
280 800 m 1
 291 765 l 1
 328 765 l 1
 298 744 l 1
 309 710 l 1
 280 731 l 1
 251 710 l 1
 262 744 l 1
 232 765 l 1
 269 765 l 1
 280 800 l 1
EndSplineSet
EndChar

StartChar: W
Encoding: 87 87 59
Width: 600
VWidth: 0
UnlinkRmOvrlpSave: 1
Flags: W
HStem: 210 21G<150.471 171.619 174.381 195.529 364.471 385.619 388.381 409.529> 210 21G<150.471 171.619 174.381 195.529 364.471 385.619 388.381 409.529> 613 20G<184.714 197.286 504.714 517.286> 780 20G<220.714 233.286 540.714 553.286>
LayerCount: 2
Back
Fore
SplineSet
387 300 m 1x70
 398 265 l 1
 435 265 l 1
 405 244 l 1
 416 210 l 1
 387 231 l 1
 358 210 l 1
 369 244 l 1
 339 265 l 1
 376 265 l 1
 387 300 l 1x70
173 300 m 1
 184 265 l 1
 221 265 l 1
 191 244 l 1
 202 210 l 1
 173 231 l 1
 144 210 l 1
 155 244 l 1
 125 265 l 1
 162 265 l 1
 173 300 l 1
458 383 m 1
 469 348 l 1
 505 348 l 1
 476 327 l 1
 487 293 l 1
 458 314 l 1
 428 293 l 1
 440 327 l 1
 410 348 l 1
 447 348 l 1
 458 383 l 1
351 383 m 1
 362 348 l 1
 398 348 l 1
 369 327 l 1
 380 293 l 1
 351 314 l 1
 321 293 l 1
 333 327 l 1
 303 348 l 1
 340 348 l 1
 351 383 l 1
245 383 m 1
 256 348 l 1
 292 348 l 1
 263 327 l 1
 274 293 l 1
 245 314 l 1
 215 293 l 1
 227 327 l 1
 197 348 l 1
 234 348 l 1
 245 383 l 1
138 383 m 1
 149 348 l 1
 185 348 l 1
 156 327 l 1
 167 293 l 1
 138 314 l 1
 108 293 l 1
 120 327 l 1
 90 348 l 1
 127 348 l 1
 138 383 l 1
476 467 m 1
 487 432 l 1
 523 432 l 1
 494 411 l 1
 505 377 l 1
 476 398 l 1
 446 377 l 1
 458 411 l 1
 428 432 l 1
 465 432 l 1
 476 467 l 1
316 467 m 1
 327 432 l 1
 363 432 l 1
 334 411 l 1
 345 377 l 1
 316 398 l 1
 286 377 l 1
 298 411 l 1
 268 432 l 1
 305 432 l 1
 316 467 l 1
156 467 m 1
 167 432 l 1
 203 432 l 1
 174 411 l 1
 185 377 l 1
 156 398 l 1
 126 377 l 1
 138 411 l 1
 108 432 l 1
 145 432 l 1
 156 467 l 1
494 550 m 1
 505 515 l 1
 541 515 l 1
 512 494 l 1
 523 460 l 1
 494 481 l 1
 464 460 l 1
 475 494 l 1
 446 515 l 1
 482 515 l 1
 494 550 l 1
334 550 m 1
 345 515 l 1
 381 515 l 1
 352 494 l 1
 363 460 l 1
 334 481 l 1
 304 460 l 1
 315 494 l 1
 286 515 l 1
 322 515 l 1
 334 550 l 1
174 550 m 1
 185 515 l 1
 221 515 l 1
 192 494 l 1
 203 460 l 1
 174 481 l 1
 144 460 l 1
 155 494 l 1
 126 515 l 1
 162 515 l 1
 174 550 l 1
511 633 m 1
 522 598 l 1
 559 598 l 1
 529 577 l 1
 541 543 l 1
 511 564 l 1
 482 543 l 1
 493 577 l 1
 464 598 l 1
 500 598 l 1
 511 633 l 1
191 633 m 1
 202 598 l 1
 239 598 l 1
 209 577 l 1
 221 543 l 1
 191 564 l 1
 162 543 l 1
 173 577 l 1
 144 598 l 1
 180 598 l 1
 191 633 l 1
529 717 m 1
 540 682 l 1
 577 682 l 1
 547 661 l 1
 559 627 l 1
 529 648 l 1
 500 627 l 1
 511 661 l 1
 482 682 l 1
 518 682 l 1
 529 717 l 1
209 717 m 1
 220 682 l 1
 257 682 l 1
 227 661 l 1
 239 627 l 1
 209 648 l 1
 180 627 l 1
 191 661 l 1
 162 682 l 1
 198 682 l 1
 209 717 l 1
547 800 m 1
 558 765 l 1
 595 765 l 1
 565 744 l 1
 576 710 l 1
 547 731 l 1
 518 710 l 1
 529 744 l 1
 499 765 l 1
 536 765 l 1
 547 800 l 1
227 800 m 1
 238 765 l 1
 275 765 l 1
 245 744 l 1
 256 710 l 1
 227 731 l 1
 198 710 l 1
 209 744 l 1
 179 765 l 1
 216 765 l 1
 227 800 l 1
EndSplineSet
EndChar

StartChar: Oslash
Encoding: 216 216 60
Width: 600
VWidth: 0
UnlinkRmOvrlpSave: 1
Flags: W
HStem: 210 21G<186.471 207.619 210.381 231.529 292.471 313.619 316.381 337.529> 210 21G<186.471 207.619 210.381 231.529 292.471 313.619 316.381 337.529> 613 20G<166.714 179.286 379.714 392.286 486.714 499.286> 780 20G<309.714 322.286 415.714 428.286>
LayerCount: 2
Back
Fore
SplineSet
315 300 m 1x70
 326 265 l 1
 363 265 l 1
 333 244 l 1
 344 210 l 1
 315 231 l 1
 286 210 l 1
 297 244 l 1
 267 265 l 1
 304 265 l 1
 315 300 l 1x70
209 300 m 1
 220 265 l 1
 257 265 l 1
 227 244 l 1
 238 210 l 1
 209 231 l 1
 180 210 l 1
 191 244 l 1
 161 265 l 1
 198 265 l 1
 209 300 l 1
387 383 m 1
 398 348 l 1
 434 348 l 1
 405 327 l 1
 416 293 l 1
 387 314 l 1
 357 293 l 1
 369 327 l 1
 339 348 l 1
 376 348 l 1
 387 383 l 1
173 383 m 1
 184 348 l 1
 220 348 l 1
 191 327 l 1
 202 293 l 1
 173 314 l 1
 143 293 l 1
 155 327 l 1
 125 348 l 1
 162 348 l 1
 173 383 l 1
458 467 m 1
 469 432 l 1
 505 432 l 1
 476 411 l 1
 487 377 l 1
 458 398 l 1
 428 377 l 1
 440 411 l 1
 410 432 l 1
 447 432 l 1
 458 467 l 1
245 467 m 1
 256 432 l 1
 292 432 l 1
 263 411 l 1
 274 377 l 1
 245 398 l 1
 215 377 l 1
 227 411 l 1
 197 432 l 1
 234 432 l 1
 245 467 l 1
138 467 m 1
 149 432 l 1
 185 432 l 1
 156 411 l 1
 167 377 l 1
 138 398 l 1
 108 377 l 1
 120 411 l 1
 90 432 l 1
 127 432 l 1
 138 467 l 1
476 550 m 1
 487 515 l 1
 523 515 l 1
 494 494 l 1
 505 460 l 1
 476 481 l 1
 446 460 l 1
 457 494 l 1
 428 515 l 1
 464 515 l 1
 476 550 l 1
316 550 m 1
 327 515 l 1
 363 515 l 1
 334 494 l 1
 345 460 l 1
 316 481 l 1
 286 460 l 1
 297 494 l 1
 268 515 l 1
 304 515 l 1
 316 550 l 1
156 550 m 1
 167 515 l 1
 203 515 l 1
 174 494 l 1
 185 460 l 1
 156 481 l 1
 126 460 l 1
 137 494 l 1
 108 515 l 1
 144 515 l 1
 156 550 l 1
493 633 m 1
 504 598 l 1
 541 598 l 1
 511 577 l 1
 523 543 l 1
 493 564 l 1
 464 543 l 1
 475 577 l 1
 446 598 l 1
 482 598 l 1
 493 633 l 1
386 633 m 1
 397 598 l 1
 434 598 l 1
 404 577 l 1
 416 543 l 1
 386 564 l 1
 357 543 l 1
 368 577 l 1
 339 598 l 1
 375 598 l 1
 386 633 l 1
173 633 m 1
 184 598 l 1
 221 598 l 1
 191 577 l 1
 203 543 l 1
 173 564 l 1
 144 543 l 1
 155 577 l 1
 126 598 l 1
 162 598 l 1
 173 633 l 1
458 717 m 1
 469 682 l 1
 506 682 l 1
 476 661 l 1
 488 627 l 1
 458 648 l 1
 429 627 l 1
 440 661 l 1
 411 682 l 1
 447 682 l 1
 458 717 l 1
244 717 m 1
 255 682 l 1
 292 682 l 1
 262 661 l 1
 274 627 l 1
 244 648 l 1
 215 627 l 1
 226 661 l 1
 197 682 l 1
 233 682 l 1
 244 717 l 1
422 800 m 1
 433 765 l 1
 470 765 l 1
 440 744 l 1
 451 710 l 1
 422 731 l 1
 393 710 l 1
 404 744 l 1
 374 765 l 1
 411 765 l 1
 422 800 l 1
316 800 m 1
 327 765 l 1
 364 765 l 1
 334 744 l 1
 345 710 l 1
 316 731 l 1
 287 710 l 1
 298 744 l 1
 268 765 l 1
 305 765 l 1
 316 800 l 1
EndSplineSet
EndChar

StartChar: bracketleft
Encoding: 91 91 61
Width: 600
VWidth: 0
UnlinkRmOvrlpSave: 1
Flags: W
HStem: 210 21G<115.471 136.619 139.381 160.529 222.471 243.619 246.381 267.529 329.471 350.619 353.381 374.529> 210 21G<115.471 136.619 139.381 160.529 222.471 243.619 246.381 267.529 329.471 350.619 353.381 374.529> 613 20G<202.714 215.286> 780 20G<238.714 251.286 345.714 358.286 452.714 465.286>
LayerCount: 2
Back
Fore
SplineSet
352 300 m 1x70
 363 265 l 1
 400 265 l 1
 370 244 l 1
 381 210 l 1
 352 231 l 1
 323 210 l 1
 334 244 l 1
 304 265 l 1
 341 265 l 1
 352 300 l 1x70
245 300 m 1
 256 265 l 1
 293 265 l 1
 263 244 l 1
 274 210 l 1
 245 231 l 1
 216 210 l 1
 227 244 l 1
 197 265 l 1
 234 265 l 1
 245 300 l 1
138 300 m 1
 149 265 l 1
 186 265 l 1
 156 244 l 1
 167 210 l 1
 138 231 l 1
 109 210 l 1
 120 244 l 1
 90 265 l 1
 127 265 l 1
 138 300 l 1
156 383 m 1
 167 348 l 1
 203 348 l 1
 174 327 l 1
 185 293 l 1
 156 314 l 1
 126 293 l 1
 138 327 l 1
 108 348 l 1
 145 348 l 1
 156 383 l 1
174 467 m 1
 185 432 l 1
 221 432 l 1
 192 411 l 1
 203 377 l 1
 174 398 l 1
 144 377 l 1
 156 411 l 1
 126 432 l 1
 163 432 l 1
 174 467 l 1
192 550 m 1
 203 515 l 1
 239 515 l 1
 210 494 l 1
 221 460 l 1
 192 481 l 1
 162 460 l 1
 173 494 l 1
 144 515 l 1
 180 515 l 1
 192 550 l 1
209 633 m 1
 220 598 l 1
 257 598 l 1
 227 577 l 1
 239 543 l 1
 209 564 l 1
 180 543 l 1
 191 577 l 1
 162 598 l 1
 198 598 l 1
 209 633 l 1
227 717 m 1
 238 682 l 1
 275 682 l 1
 245 661 l 1
 257 627 l 1
 227 648 l 1
 198 627 l 1
 209 661 l 1
 180 682 l 1
 216 682 l 1
 227 717 l 1
459 800 m 1
 470 765 l 1
 507 765 l 1
 477 744 l 1
 488 710 l 1
 459 731 l 1
 430 710 l 1
 441 744 l 1
 411 765 l 1
 448 765 l 1
 459 800 l 1
352 800 m 1
 363 765 l 1
 400 765 l 1
 370 744 l 1
 381 710 l 1
 352 731 l 1
 323 710 l 1
 334 744 l 1
 304 765 l 1
 341 765 l 1
 352 800 l 1
245 800 m 1
 256 765 l 1
 293 765 l 1
 263 744 l 1
 274 710 l 1
 245 731 l 1
 216 710 l 1
 227 744 l 1
 197 765 l 1
 234 765 l 1
 245 800 l 1
EndSplineSet
EndChar

StartChar: Udieresis
Encoding: 220 220 62
Width: 600
VWidth: 0
UnlinkRmOvrlpSave: 1
Flags: W
HStem: 210 21G<150.471 171.619 174.381 195.529 257.471 278.619 281.381 302.529 364.471 385.619 388.381 409.529> 210 21G<150.471 171.619 174.381 195.529 257.471 278.619 281.381 302.529 364.471 385.619 388.381 409.529> 613 20G<184.714 197.286 504.714 517.286> 780 20G<220.714 233.286 540.714 553.286>
LayerCount: 2
Back
Fore
SplineSet
387 300 m 1x70
 398 265 l 1
 435 265 l 1
 405 244 l 1
 416 210 l 1
 387 231 l 1
 358 210 l 1
 369 244 l 1
 339 265 l 1
 376 265 l 1
 387 300 l 1x70
280 300 m 1
 291 265 l 1
 328 265 l 1
 298 244 l 1
 309 210 l 1
 280 231 l 1
 251 210 l 1
 262 244 l 1
 232 265 l 1
 269 265 l 1
 280 300 l 1
173 300 m 1
 184 265 l 1
 221 265 l 1
 191 244 l 1
 202 210 l 1
 173 231 l 1
 144 210 l 1
 155 244 l 1
 125 265 l 1
 162 265 l 1
 173 300 l 1
458 383 m 1
 469 348 l 1
 505 348 l 1
 476 327 l 1
 487 293 l 1
 458 314 l 1
 428 293 l 1
 440 327 l 1
 410 348 l 1
 447 348 l 1
 458 383 l 1
138 383 m 1
 149 348 l 1
 185 348 l 1
 156 327 l 1
 167 293 l 1
 138 314 l 1
 108 293 l 1
 120 327 l 1
 90 348 l 1
 127 348 l 1
 138 383 l 1
476 467 m 1
 487 432 l 1
 523 432 l 1
 494 411 l 1
 505 377 l 1
 476 398 l 1
 446 377 l 1
 458 411 l 1
 428 432 l 1
 465 432 l 1
 476 467 l 1
156 467 m 1
 167 432 l 1
 203 432 l 1
 174 411 l 1
 185 377 l 1
 156 398 l 1
 126 377 l 1
 138 411 l 1
 108 432 l 1
 145 432 l 1
 156 467 l 1
494 550 m 1
 505 515 l 1
 541 515 l 1
 512 494 l 1
 523 460 l 1
 494 481 l 1
 464 460 l 1
 475 494 l 1
 446 515 l 1
 482 515 l 1
 494 550 l 1
174 550 m 1
 185 515 l 1
 221 515 l 1
 192 494 l 1
 203 460 l 1
 174 481 l 1
 144 460 l 1
 155 494 l 1
 126 515 l 1
 162 515 l 1
 174 550 l 1
511 633 m 1
 522 598 l 1
 559 598 l 1
 529 577 l 1
 541 543 l 1
 511 564 l 1
 482 543 l 1
 493 577 l 1
 464 598 l 1
 500 598 l 1
 511 633 l 1
191 633 m 1
 202 598 l 1
 239 598 l 1
 209 577 l 1
 221 543 l 1
 191 564 l 1
 162 543 l 1
 173 577 l 1
 144 598 l 1
 180 598 l 1
 191 633 l 1
547 800 m 1
 558 765 l 1
 595 765 l 1
 565 744 l 1
 576 710 l 1
 547 731 l 1
 518 710 l 1
 529 744 l 1
 499 765 l 1
 536 765 l 1
 547 800 l 1
227 800 m 1
 238 765 l 1
 275 765 l 1
 245 744 l 1
 256 710 l 1
 227 731 l 1
 198 710 l 1
 209 744 l 1
 179 765 l 1
 216 765 l 1
 227 800 l 1
EndSplineSet
EndChar

StartChar: underscore
Encoding: 95 95 63
Width: 600
VWidth: 0
UnlinkRmOvrlpSave: 1
Flags: W
HStem: 210 90
LayerCount: 2
Back
Fore
SplineSet
458 300 m 1
 469 265 l 1
 506 265 l 1
 476 244 l 1
 487 210 l 1
 458 231 l 1
 429 210 l 1
 440 244 l 1
 410 265 l 1
 447 265 l 1
 458 300 l 1
351 300 m 1
 362 265 l 1
 399 265 l 1
 369 244 l 1
 380 210 l 1
 351 231 l 1
 322 210 l 1
 333 244 l 1
 303 265 l 1
 340 265 l 1
 351 300 l 1
245 300 m 1
 256 265 l 1
 293 265 l 1
 263 244 l 1
 274 210 l 1
 245 231 l 1
 216 210 l 1
 227 244 l 1
 197 265 l 1
 234 265 l 1
 245 300 l 1
138 300 m 1
 149 265 l 1
 186 265 l 1
 156 244 l 1
 167 210 l 1
 138 231 l 1
 109 210 l 1
 120 244 l 1
 90 265 l 1
 127 265 l 1
 138 300 l 1
EndSplineSet
EndChar

StartChar: glyph64
Encoding: 567 567 64
Width: 600
VWidth: 0
UnlinkRmOvrlpSave: 1
Flags: W
HStem: 210 21G<150.471 171.619 174.381 195.529 257.471 278.619 281.381 302.529 364.471 385.619 388.381 409.529> 210 21G<150.471 171.619 174.381 195.529 257.471 278.619 281.381 302.529 364.471 385.619 388.381 409.529> 613 20G<504.714 517.286>
LayerCount: 2
Back
Fore
SplineSet
387 300 m 1x60
 398 265 l 1
 435 265 l 1
 405 244 l 1
 416 210 l 1
 387 231 l 1
 358 210 l 1
 369 244 l 1
 339 265 l 1
 376 265 l 1
 387 300 l 1x60
280 300 m 1
 291 265 l 1
 328 265 l 1
 298 244 l 1
 309 210 l 1
 280 231 l 1
 251 210 l 1
 262 244 l 1
 232 265 l 1
 269 265 l 1
 280 300 l 1
173 300 m 1
 184 265 l 1
 221 265 l 1
 191 244 l 1
 202 210 l 1
 173 231 l 1
 144 210 l 1
 155 244 l 1
 125 265 l 1
 162 265 l 1
 173 300 l 1
458 383 m 1
 469 348 l 1
 505 348 l 1
 476 327 l 1
 487 293 l 1
 458 314 l 1
 428 293 l 1
 440 327 l 1
 410 348 l 1
 447 348 l 1
 458 383 l 1
138 383 m 1
 149 348 l 1
 185 348 l 1
 156 327 l 1
 167 293 l 1
 138 314 l 1
 108 293 l 1
 120 327 l 1
 90 348 l 1
 127 348 l 1
 138 383 l 1
476 467 m 1
 487 432 l 1
 523 432 l 1
 494 411 l 1
 505 377 l 1
 476 398 l 1
 446 377 l 1
 458 411 l 1
 428 432 l 1
 465 432 l 1
 476 467 l 1
494 550 m 1
 505 515 l 1
 541 515 l 1
 512 494 l 1
 523 460 l 1
 494 481 l 1
 464 460 l 1
 475 494 l 1
 446 515 l 1
 482 515 l 1
 494 550 l 1
511 633 m 1
 522 598 l 1
 559 598 l 1
 529 577 l 1
 541 543 l 1
 511 564 l 1
 482 543 l 1
 493 577 l 1
 464 598 l 1
 500 598 l 1
 511 633 l 1
EndSplineSet
EndChar

StartChar: agrave
Encoding: 224 224 65
Width: 600
VWidth: 0
UnlinkRmOvrlpSave: 1
Flags: W
HStem: 210 21G<150.471 171.619 174.381 195.529 257.471 278.619 281.381 302.529 364.471 385.619 388.381 409.529> 210 21G<150.471 171.619 174.381 195.529 257.471 278.619 281.381 302.529 364.471 385.619 388.381 409.529> 613 20G<237.714 250.286 344.714 357.286 451.714 464.286> 780 20G<380.714 393.286>
LayerCount: 2
Back
Fore
SplineSet
387 300 m 1x70
 398 265 l 1
 435 265 l 1
 405 244 l 1
 416 210 l 1
 387 231 l 1
 358 210 l 1
 369 244 l 1
 339 265 l 1
 376 265 l 1
 387 300 l 1x70
280 300 m 1
 291 265 l 1
 328 265 l 1
 298 244 l 1
 309 210 l 1
 280 231 l 1
 251 210 l 1
 262 244 l 1
 232 265 l 1
 269 265 l 1
 280 300 l 1
173 300 m 1
 184 265 l 1
 221 265 l 1
 191 244 l 1
 202 210 l 1
 173 231 l 1
 144 210 l 1
 155 244 l 1
 125 265 l 1
 162 265 l 1
 173 300 l 1
458 383 m 1
 469 348 l 1
 505 348 l 1
 476 327 l 1
 487 293 l 1
 458 314 l 1
 428 293 l 1
 440 327 l 1
 410 348 l 1
 447 348 l 1
 458 383 l 1
138 383 m 1
 149 348 l 1
 185 348 l 1
 156 327 l 1
 167 293 l 1
 138 314 l 1
 108 293 l 1
 120 327 l 1
 90 348 l 1
 127 348 l 1
 138 383 l 1
423 467 m 1
 434 432 l 1
 470 432 l 1
 441 411 l 1
 452 377 l 1
 423 398 l 1
 393 377 l 1
 405 411 l 1
 375 432 l 1
 412 432 l 1
 423 467 l 1
316 467 m 1
 327 432 l 1
 363 432 l 1
 334 411 l 1
 345 377 l 1
 316 398 l 1
 286 377 l 1
 298 411 l 1
 268 432 l 1
 305 432 l 1
 316 467 l 1
209 467 m 1
 220 432 l 1
 256 432 l 1
 227 411 l 1
 238 377 l 1
 209 398 l 1
 179 377 l 1
 191 411 l 1
 161 432 l 1
 198 432 l 1
 209 467 l 1
494 550 m 1
 505 515 l 1
 541 515 l 1
 512 494 l 1
 523 460 l 1
 494 481 l 1
 464 460 l 1
 475 494 l 1
 446 515 l 1
 482 515 l 1
 494 550 l 1
458 633 m 1
 469 598 l 1
 506 598 l 1
 476 577 l 1
 488 543 l 1
 458 564 l 1
 429 543 l 1
 440 577 l 1
 411 598 l 1
 447 598 l 1
 458 633 l 1
351 633 m 1
 362 598 l 1
 399 598 l 1
 369 577 l 1
 381 543 l 1
 351 564 l 1
 322 543 l 1
 333 577 l 1
 304 598 l 1
 340 598 l 1
 351 633 l 1
244 633 m 1
 255 598 l 1
 292 598 l 1
 262 577 l 1
 274 543 l 1
 244 564 l 1
 215 543 l 1
 226 577 l 1
 197 598 l 1
 233 598 l 1
 244 633 l 1
422 717 m 1
 433 682 l 1
 470 682 l 1
 440 661 l 1
 452 627 l 1
 422 648 l 1
 393 627 l 1
 404 661 l 1
 375 682 l 1
 411 682 l 1
 422 717 l 1
387 800 m 1
 398 765 l 1
 435 765 l 1
 405 744 l 1
 416 710 l 1
 387 731 l 1
 358 710 l 1
 369 744 l 1
 339 765 l 1
 376 765 l 1
 387 800 l 1
EndSplineSet
EndChar

StartChar: c
Encoding: 99 99 66
Width: 600
VWidth: 0
UnlinkRmOvrlpSave: 1
Flags: W
HStem: 210 21G<150.471 171.619 174.381 195.529 257.471 278.619 281.381 302.529 364.471 385.619 388.381 409.529> 210 21G<150.471 171.619 174.381 195.529 257.471 278.619 281.381 302.529 364.471 385.619 388.381 409.529> 613 20G<237.714 250.286 344.714 357.286 451.714 464.286>
LayerCount: 2
Back
Fore
SplineSet
387 300 m 1x60
 398 265 l 1
 435 265 l 1
 405 244 l 1
 416 210 l 1
 387 231 l 1
 358 210 l 1
 369 244 l 1
 339 265 l 1
 376 265 l 1
 387 300 l 1x60
280 300 m 1
 291 265 l 1
 328 265 l 1
 298 244 l 1
 309 210 l 1
 280 231 l 1
 251 210 l 1
 262 244 l 1
 232 265 l 1
 269 265 l 1
 280 300 l 1
173 300 m 1
 184 265 l 1
 221 265 l 1
 191 244 l 1
 202 210 l 1
 173 231 l 1
 144 210 l 1
 155 244 l 1
 125 265 l 1
 162 265 l 1
 173 300 l 1
138 383 m 1
 149 348 l 1
 185 348 l 1
 156 327 l 1
 167 293 l 1
 138 314 l 1
 108 293 l 1
 120 327 l 1
 90 348 l 1
 127 348 l 1
 138 383 l 1
156 467 m 1
 167 432 l 1
 203 432 l 1
 174 411 l 1
 185 377 l 1
 156 398 l 1
 126 377 l 1
 138 411 l 1
 108 432 l 1
 145 432 l 1
 156 467 l 1
494 550 m 1
 505 515 l 1
 541 515 l 1
 512 494 l 1
 523 460 l 1
 494 481 l 1
 464 460 l 1
 475 494 l 1
 446 515 l 1
 482 515 l 1
 494 550 l 1
174 550 m 1
 185 515 l 1
 221 515 l 1
 192 494 l 1
 203 460 l 1
 174 481 l 1
 144 460 l 1
 155 494 l 1
 126 515 l 1
 162 515 l 1
 174 550 l 1
458 633 m 1
 469 598 l 1
 506 598 l 1
 476 577 l 1
 488 543 l 1
 458 564 l 1
 429 543 l 1
 440 577 l 1
 411 598 l 1
 447 598 l 1
 458 633 l 1
351 633 m 1
 362 598 l 1
 399 598 l 1
 369 577 l 1
 381 543 l 1
 351 564 l 1
 322 543 l 1
 333 577 l 1
 304 598 l 1
 340 598 l 1
 351 633 l 1
244 633 m 1
 255 598 l 1
 292 598 l 1
 262 577 l 1
 274 543 l 1
 244 564 l 1
 215 543 l 1
 226 577 l 1
 197 598 l 1
 233 598 l 1
 244 633 l 1
EndSplineSet
EndChar

StartChar: adieresis
Encoding: 228 228 67
Width: 600
VWidth: 0
UnlinkRmOvrlpSave: 1
Flags: W
HStem: 210 21G<150.471 171.619 174.381 195.529 257.471 278.619 281.381 302.529 364.471 385.619 388.381 409.529> 210 21G<150.471 171.619 174.381 195.529 257.471 278.619 281.381 302.529 364.471 385.619 388.381 409.529> 613 20G<237.714 250.286 344.714 357.286 451.714 464.286> 780 20G<273.714 286.286 487.714 500.286>
LayerCount: 2
Back
Fore
SplineSet
387 300 m 1x70
 398 265 l 1
 435 265 l 1
 405 244 l 1
 416 210 l 1
 387 231 l 1
 358 210 l 1
 369 244 l 1
 339 265 l 1
 376 265 l 1
 387 300 l 1x70
280 300 m 1
 291 265 l 1
 328 265 l 1
 298 244 l 1
 309 210 l 1
 280 231 l 1
 251 210 l 1
 262 244 l 1
 232 265 l 1
 269 265 l 1
 280 300 l 1
173 300 m 1
 184 265 l 1
 221 265 l 1
 191 244 l 1
 202 210 l 1
 173 231 l 1
 144 210 l 1
 155 244 l 1
 125 265 l 1
 162 265 l 1
 173 300 l 1
458 383 m 1
 469 348 l 1
 505 348 l 1
 476 327 l 1
 487 293 l 1
 458 314 l 1
 428 293 l 1
 440 327 l 1
 410 348 l 1
 447 348 l 1
 458 383 l 1
138 383 m 1
 149 348 l 1
 185 348 l 1
 156 327 l 1
 167 293 l 1
 138 314 l 1
 108 293 l 1
 120 327 l 1
 90 348 l 1
 127 348 l 1
 138 383 l 1
423 467 m 1
 434 432 l 1
 470 432 l 1
 441 411 l 1
 452 377 l 1
 423 398 l 1
 393 377 l 1
 405 411 l 1
 375 432 l 1
 412 432 l 1
 423 467 l 1
316 467 m 1
 327 432 l 1
 363 432 l 1
 334 411 l 1
 345 377 l 1
 316 398 l 1
 286 377 l 1
 298 411 l 1
 268 432 l 1
 305 432 l 1
 316 467 l 1
209 467 m 1
 220 432 l 1
 256 432 l 1
 227 411 l 1
 238 377 l 1
 209 398 l 1
 179 377 l 1
 191 411 l 1
 161 432 l 1
 198 432 l 1
 209 467 l 1
494 550 m 1
 505 515 l 1
 541 515 l 1
 512 494 l 1
 523 460 l 1
 494 481 l 1
 464 460 l 1
 475 494 l 1
 446 515 l 1
 482 515 l 1
 494 550 l 1
458 633 m 1
 469 598 l 1
 506 598 l 1
 476 577 l 1
 488 543 l 1
 458 564 l 1
 429 543 l 1
 440 577 l 1
 411 598 l 1
 447 598 l 1
 458 633 l 1
351 633 m 1
 362 598 l 1
 399 598 l 1
 369 577 l 1
 381 543 l 1
 351 564 l 1
 322 543 l 1
 333 577 l 1
 304 598 l 1
 340 598 l 1
 351 633 l 1
244 633 m 1
 255 598 l 1
 292 598 l 1
 262 577 l 1
 274 543 l 1
 244 564 l 1
 215 543 l 1
 226 577 l 1
 197 598 l 1
 233 598 l 1
 244 633 l 1
494 800 m 1
 505 765 l 1
 542 765 l 1
 512 744 l 1
 523 710 l 1
 494 731 l 1
 465 710 l 1
 476 744 l 1
 446 765 l 1
 483 765 l 1
 494 800 l 1
280 800 m 1
 291 765 l 1
 328 765 l 1
 298 744 l 1
 309 710 l 1
 280 731 l 1
 251 710 l 1
 262 744 l 1
 232 765 l 1
 269 765 l 1
 280 800 l 1
EndSplineSet
EndChar

StartChar: g
Encoding: 103 103 68
Width: 600
VWidth: 0
UnlinkRmOvrlpSave: 1
Flags: W
HStem: 210 21G<115.471 136.619 139.381 160.529 222.471 243.619 246.381 267.529 328.471 349.619 352.381 373.529 435.471 456.619 459.381 480.529> 210 21G<115.471 136.619 139.381 160.529 222.471 243.619 246.381 267.529 328.471 349.619 352.381 373.529 435.471 456.619 459.381 480.529> 613 20G<255.714 268.286 362.714 375.286 469.714 482.286>
LayerCount: 2
Back
Fore
SplineSet
458 300 m 1x60
 469 265 l 1
 506 265 l 1
 476 244 l 1
 487 210 l 1
 458 231 l 1
 429 210 l 1
 440 244 l 1
 410 265 l 1
 447 265 l 1
 458 300 l 1x60
351 300 m 1
 362 265 l 1
 399 265 l 1
 369 244 l 1
 380 210 l 1
 351 231 l 1
 322 210 l 1
 333 244 l 1
 303 265 l 1
 340 265 l 1
 351 300 l 1
245 300 m 1
 256 265 l 1
 293 265 l 1
 263 244 l 1
 274 210 l 1
 245 231 l 1
 216 210 l 1
 227 244 l 1
 197 265 l 1
 234 265 l 1
 245 300 l 1
138 300 m 1
 149 265 l 1
 186 265 l 1
 156 244 l 1
 167 210 l 1
 138 231 l 1
 109 210 l 1
 120 244 l 1
 90 265 l 1
 127 265 l 1
 138 300 l 1
476 383 m 1
 487 348 l 1
 523 348 l 1
 494 327 l 1
 505 293 l 1
 476 314 l 1
 446 293 l 1
 458 327 l 1
 428 348 l 1
 465 348 l 1
 476 383 l 1
441 467 m 1
 452 432 l 1
 488 432 l 1
 459 411 l 1
 470 377 l 1
 441 398 l 1
 411 377 l 1
 423 411 l 1
 393 432 l 1
 430 432 l 1
 441 467 l 1
334 467 m 1
 345 432 l 1
 381 432 l 1
 352 411 l 1
 363 377 l 1
 334 398 l 1
 304 377 l 1
 316 411 l 1
 286 432 l 1
 323 432 l 1
 334 467 l 1
227 467 m 1
 238 432 l 1
 274 432 l 1
 245 411 l 1
 256 377 l 1
 227 398 l 1
 197 377 l 1
 209 411 l 1
 179 432 l 1
 216 432 l 1
 227 467 l 1
512 550 m 1
 523 515 l 1
 559 515 l 1
 530 494 l 1
 541 460 l 1
 512 481 l 1
 482 460 l 1
 493 494 l 1
 464 515 l 1
 500 515 l 1
 512 550 l 1
192 550 m 1
 203 515 l 1
 239 515 l 1
 210 494 l 1
 221 460 l 1
 192 481 l 1
 162 460 l 1
 173 494 l 1
 144 515 l 1
 180 515 l 1
 192 550 l 1
476 633 m 1
 487 598 l 1
 524 598 l 1
 494 577 l 1
 506 543 l 1
 476 564 l 1
 447 543 l 1
 458 577 l 1
 429 598 l 1
 465 598 l 1
 476 633 l 1
369 633 m 1
 380 598 l 1
 417 598 l 1
 387 577 l 1
 399 543 l 1
 369 564 l 1
 340 543 l 1
 351 577 l 1
 322 598 l 1
 358 598 l 1
 369 633 l 1
262 633 m 1
 273 598 l 1
 310 598 l 1
 280 577 l 1
 292 543 l 1
 262 564 l 1
 233 543 l 1
 244 577 l 1
 215 598 l 1
 251 598 l 1
 262 633 l 1
547 717 m 1
 558 682 l 1
 595 682 l 1
 565 661 l 1
 577 627 l 1
 547 648 l 1
 518 627 l 1
 529 661 l 1
 500 682 l 1
 536 682 l 1
 547 717 l 1
EndSplineSet
EndChar

StartChar: egrave
Encoding: 232 232 69
Width: 600
VWidth: 0
UnlinkRmOvrlpSave: 1
Flags: W
HStem: 210 21G<150.471 171.619 174.381 195.529 257.471 278.619 281.381 302.529 364.471 385.619 388.381 409.529> 210 21G<150.471 171.619 174.381 195.529 257.471 278.619 281.381 302.529 364.471 385.619 388.381 409.529> 613 20G<237.714 250.286 344.714 357.286 451.714 464.286> 780 20G<380.714 393.286>
LayerCount: 2
Back
Fore
SplineSet
387 300 m 1x70
 398 265 l 1
 435 265 l 1
 405 244 l 1
 416 210 l 1
 387 231 l 1
 358 210 l 1
 369 244 l 1
 339 265 l 1
 376 265 l 1
 387 300 l 1x70
280 300 m 1
 291 265 l 1
 328 265 l 1
 298 244 l 1
 309 210 l 1
 280 231 l 1
 251 210 l 1
 262 244 l 1
 232 265 l 1
 269 265 l 1
 280 300 l 1
173 300 m 1
 184 265 l 1
 221 265 l 1
 191 244 l 1
 202 210 l 1
 173 231 l 1
 144 210 l 1
 155 244 l 1
 125 265 l 1
 162 265 l 1
 173 300 l 1
138 383 m 1
 149 348 l 1
 185 348 l 1
 156 327 l 1
 167 293 l 1
 138 314 l 1
 108 293 l 1
 120 327 l 1
 90 348 l 1
 127 348 l 1
 138 383 l 1
476 467 m 1
 487 432 l 1
 523 432 l 1
 494 411 l 1
 505 377 l 1
 476 398 l 1
 446 377 l 1
 458 411 l 1
 428 432 l 1
 465 432 l 1
 476 467 l 1
369 467 m 1
 380 432 l 1
 416 432 l 1
 387 411 l 1
 398 377 l 1
 369 398 l 1
 339 377 l 1
 351 411 l 1
 321 432 l 1
 358 432 l 1
 369 467 l 1
263 467 m 1
 274 432 l 1
 310 432 l 1
 281 411 l 1
 292 377 l 1
 263 398 l 1
 233 377 l 1
 245 411 l 1
 215 432 l 1
 252 432 l 1
 263 467 l 1
156 467 m 1
 167 432 l 1
 203 432 l 1
 174 411 l 1
 185 377 l 1
 156 398 l 1
 126 377 l 1
 138 411 l 1
 108 432 l 1
 145 432 l 1
 156 467 l 1
494 550 m 1
 505 515 l 1
 541 515 l 1
 512 494 l 1
 523 460 l 1
 494 481 l 1
 464 460 l 1
 475 494 l 1
 446 515 l 1
 482 515 l 1
 494 550 l 1
174 550 m 1
 185 515 l 1
 221 515 l 1
 192 494 l 1
 203 460 l 1
 174 481 l 1
 144 460 l 1
 155 494 l 1
 126 515 l 1
 162 515 l 1
 174 550 l 1
458 633 m 1
 469 598 l 1
 506 598 l 1
 476 577 l 1
 488 543 l 1
 458 564 l 1
 429 543 l 1
 440 577 l 1
 411 598 l 1
 447 598 l 1
 458 633 l 1
351 633 m 1
 362 598 l 1
 399 598 l 1
 369 577 l 1
 381 543 l 1
 351 564 l 1
 322 543 l 1
 333 577 l 1
 304 598 l 1
 340 598 l 1
 351 633 l 1
244 633 m 1
 255 598 l 1
 292 598 l 1
 262 577 l 1
 274 543 l 1
 244 564 l 1
 215 543 l 1
 226 577 l 1
 197 598 l 1
 233 598 l 1
 244 633 l 1
422 717 m 1
 433 682 l 1
 470 682 l 1
 440 661 l 1
 452 627 l 1
 422 648 l 1
 393 627 l 1
 404 661 l 1
 375 682 l 1
 411 682 l 1
 422 717 l 1
387 800 m 1
 398 765 l 1
 435 765 l 1
 405 744 l 1
 416 710 l 1
 387 731 l 1
 358 710 l 1
 369 744 l 1
 339 765 l 1
 376 765 l 1
 387 800 l 1
EndSplineSet
EndChar

StartChar: k
Encoding: 107 107 70
Width: 600
VWidth: 0
UnlinkRmOvrlpSave: 1
Flags: W
HStem: 210 21G<115.471 136.619 139.381 160.529 435.471 456.619 459.381 480.529> 210 21G<115.471 136.619 139.381 160.529 435.471 456.619 459.381 480.529> 613 20G<202.714 215.286 415.714 428.286> 780 20G<238.714 251.286>
LayerCount: 2
Back
Fore
SplineSet
458 300 m 1x70
 469 265 l 1
 506 265 l 1
 476 244 l 1
 487 210 l 1
 458 231 l 1
 429 210 l 1
 440 244 l 1
 410 265 l 1
 447 265 l 1
 458 300 l 1x70
138 300 m 1
 149 265 l 1
 186 265 l 1
 156 244 l 1
 167 210 l 1
 138 231 l 1
 109 210 l 1
 120 244 l 1
 90 265 l 1
 127 265 l 1
 138 300 l 1
369 383 m 1
 380 348 l 1
 416 348 l 1
 387 327 l 1
 398 293 l 1
 369 314 l 1
 339 293 l 1
 351 327 l 1
 321 348 l 1
 358 348 l 1
 369 383 l 1
156 383 m 1
 167 348 l 1
 203 348 l 1
 174 327 l 1
 185 293 l 1
 156 314 l 1
 126 293 l 1
 138 327 l 1
 108 348 l 1
 145 348 l 1
 156 383 l 1
281 467 m 1
 292 432 l 1
 328 432 l 1
 299 411 l 1
 310 377 l 1
 281 398 l 1
 251 377 l 1
 263 411 l 1
 233 432 l 1
 270 432 l 1
 281 467 l 1
174 467 m 1
 185 432 l 1
 221 432 l 1
 192 411 l 1
 203 377 l 1
 174 398 l 1
 144 377 l 1
 156 411 l 1
 126 432 l 1
 163 432 l 1
 174 467 l 1
352 550 m 1
 363 515 l 1
 399 515 l 1
 370 494 l 1
 381 460 l 1
 352 481 l 1
 322 460 l 1
 333 494 l 1
 304 515 l 1
 340 515 l 1
 352 550 l 1
192 550 m 1
 203 515 l 1
 239 515 l 1
 210 494 l 1
 221 460 l 1
 192 481 l 1
 162 460 l 1
 173 494 l 1
 144 515 l 1
 180 515 l 1
 192 550 l 1
422 633 m 1
 433 598 l 1
 470 598 l 1
 440 577 l 1
 452 543 l 1
 422 564 l 1
 393 543 l 1
 404 577 l 1
 375 598 l 1
 411 598 l 1
 422 633 l 1
209 633 m 1
 220 598 l 1
 257 598 l 1
 227 577 l 1
 239 543 l 1
 209 564 l 1
 180 543 l 1
 191 577 l 1
 162 598 l 1
 198 598 l 1
 209 633 l 1
227 717 m 1
 238 682 l 1
 275 682 l 1
 245 661 l 1
 257 627 l 1
 227 648 l 1
 198 627 l 1
 209 661 l 1
 180 682 l 1
 216 682 l 1
 227 717 l 1
245 800 m 1
 256 765 l 1
 293 765 l 1
 263 744 l 1
 274 710 l 1
 245 731 l 1
 216 710 l 1
 227 744 l 1
 197 765 l 1
 234 765 l 1
 245 800 l 1
EndSplineSet
EndChar

StartChar: o
Encoding: 111 111 71
Width: 600
VWidth: 0
UnlinkRmOvrlpSave: 1
Flags: W
HStem: 210 21G<150.471 171.619 174.381 195.529 257.471 278.619 281.381 302.529 364.471 385.619 388.381 409.529> 210 21G<150.471 171.619 174.381 195.529 257.471 278.619 281.381 302.529 364.471 385.619 388.381 409.529> 613 20G<237.714 250.286 344.714 357.286 451.714 464.286>
LayerCount: 2
Back
Fore
SplineSet
387 300 m 1x60
 398 265 l 1
 435 265 l 1
 405 244 l 1
 416 210 l 1
 387 231 l 1
 358 210 l 1
 369 244 l 1
 339 265 l 1
 376 265 l 1
 387 300 l 1x60
280 300 m 1
 291 265 l 1
 328 265 l 1
 298 244 l 1
 309 210 l 1
 280 231 l 1
 251 210 l 1
 262 244 l 1
 232 265 l 1
 269 265 l 1
 280 300 l 1
173 300 m 1
 184 265 l 1
 221 265 l 1
 191 244 l 1
 202 210 l 1
 173 231 l 1
 144 210 l 1
 155 244 l 1
 125 265 l 1
 162 265 l 1
 173 300 l 1
458 383 m 1
 469 348 l 1
 505 348 l 1
 476 327 l 1
 487 293 l 1
 458 314 l 1
 428 293 l 1
 440 327 l 1
 410 348 l 1
 447 348 l 1
 458 383 l 1
138 383 m 1
 149 348 l 1
 185 348 l 1
 156 327 l 1
 167 293 l 1
 138 314 l 1
 108 293 l 1
 120 327 l 1
 90 348 l 1
 127 348 l 1
 138 383 l 1
476 467 m 1
 487 432 l 1
 523 432 l 1
 494 411 l 1
 505 377 l 1
 476 398 l 1
 446 377 l 1
 458 411 l 1
 428 432 l 1
 465 432 l 1
 476 467 l 1
156 467 m 1
 167 432 l 1
 203 432 l 1
 174 411 l 1
 185 377 l 1
 156 398 l 1
 126 377 l 1
 138 411 l 1
 108 432 l 1
 145 432 l 1
 156 467 l 1
494 550 m 1
 505 515 l 1
 541 515 l 1
 512 494 l 1
 523 460 l 1
 494 481 l 1
 464 460 l 1
 475 494 l 1
 446 515 l 1
 482 515 l 1
 494 550 l 1
174 550 m 1
 185 515 l 1
 221 515 l 1
 192 494 l 1
 203 460 l 1
 174 481 l 1
 144 460 l 1
 155 494 l 1
 126 515 l 1
 162 515 l 1
 174 550 l 1
458 633 m 1
 469 598 l 1
 506 598 l 1
 476 577 l 1
 488 543 l 1
 458 564 l 1
 429 543 l 1
 440 577 l 1
 411 598 l 1
 447 598 l 1
 458 633 l 1
351 633 m 1
 362 598 l 1
 399 598 l 1
 369 577 l 1
 381 543 l 1
 351 564 l 1
 322 543 l 1
 333 577 l 1
 304 598 l 1
 340 598 l 1
 351 633 l 1
244 633 m 1
 255 598 l 1
 292 598 l 1
 262 577 l 1
 274 543 l 1
 244 564 l 1
 215 543 l 1
 226 577 l 1
 197 598 l 1
 233 598 l 1
 244 633 l 1
EndSplineSet
EndChar

StartChar: s
Encoding: 115 115 72
Width: 600
VWidth: 0
UnlinkRmOvrlpSave: 1
Flags: W
HStem: 210 21G<115.471 136.619 139.381 160.529 222.471 243.619 246.381 267.529 329.471 350.619 353.381 374.529> 210 21G<115.471 136.619 139.381 160.529 222.471 243.619 246.381 267.529 329.471 350.619 353.381 374.529> 613 20G<202.714 215.286 309.714 322.286 416.714 429.286>
LayerCount: 2
Back
Fore
SplineSet
352 300 m 1x60
 363 265 l 1
 400 265 l 1
 370 244 l 1
 381 210 l 1
 352 231 l 1
 323 210 l 1
 334 244 l 1
 304 265 l 1
 341 265 l 1
 352 300 l 1x60
245 300 m 1
 256 265 l 1
 293 265 l 1
 263 244 l 1
 274 210 l 1
 245 231 l 1
 216 210 l 1
 227 244 l 1
 197 265 l 1
 234 265 l 1
 245 300 l 1
138 300 m 1
 149 265 l 1
 186 265 l 1
 156 244 l 1
 167 210 l 1
 138 231 l 1
 109 210 l 1
 120 244 l 1
 90 265 l 1
 127 265 l 1
 138 300 l 1
423 383 m 1
 434 348 l 1
 470 348 l 1
 441 327 l 1
 452 293 l 1
 423 314 l 1
 393 293 l 1
 405 327 l 1
 375 348 l 1
 412 348 l 1
 423 383 l 1
388 467 m 1
 399 432 l 1
 435 432 l 1
 406 411 l 1
 417 377 l 1
 388 398 l 1
 358 377 l 1
 370 411 l 1
 340 432 l 1
 377 432 l 1
 388 467 l 1
281 467 m 1
 292 432 l 1
 328 432 l 1
 299 411 l 1
 310 377 l 1
 281 398 l 1
 251 377 l 1
 263 411 l 1
 233 432 l 1
 270 432 l 1
 281 467 l 1
174 467 m 1
 185 432 l 1
 221 432 l 1
 192 411 l 1
 203 377 l 1
 174 398 l 1
 144 377 l 1
 156 411 l 1
 126 432 l 1
 163 432 l 1
 174 467 l 1
139 550 m 1
 150 515 l 1
 186 515 l 1
 157 494 l 1
 168 460 l 1
 139 481 l 1
 109 460 l 1
 120 494 l 1
 91 515 l 1
 127 515 l 1
 139 550 l 1
423 633 m 1
 434 598 l 1
 471 598 l 1
 441 577 l 1
 453 543 l 1
 423 564 l 1
 394 543 l 1
 405 577 l 1
 376 598 l 1
 412 598 l 1
 423 633 l 1
316 633 m 1
 327 598 l 1
 364 598 l 1
 334 577 l 1
 346 543 l 1
 316 564 l 1
 287 543 l 1
 298 577 l 1
 269 598 l 1
 305 598 l 1
 316 633 l 1
209 633 m 1
 220 598 l 1
 257 598 l 1
 227 577 l 1
 239 543 l 1
 209 564 l 1
 180 543 l 1
 191 577 l 1
 162 598 l 1
 198 598 l 1
 209 633 l 1
EndSplineSet
EndChar

StartChar: glyph73
Encoding: 373 373 73
Width: 600
VWidth: 0
UnlinkRmOvrlpSave: 1
Flags: W
HStem: 210 21G<150.471 171.619 174.381 195.529 364.471 385.619 388.381 409.529> 210 21G<150.471 171.619 174.381 195.529 364.471 385.619 388.381 409.529> 780 20G<327.714 340.286 433.714 446.286>
LayerCount: 2
Back
Fore
SplineSet
387 300 m 1x60
 398 265 l 1
 435 265 l 1
 405 244 l 1
 416 210 l 1
 387 231 l 1
 358 210 l 1
 369 244 l 1
 339 265 l 1
 376 265 l 1
 387 300 l 1x60
173 300 m 1
 184 265 l 1
 221 265 l 1
 191 244 l 1
 202 210 l 1
 173 231 l 1
 144 210 l 1
 155 244 l 1
 125 265 l 1
 162 265 l 1
 173 300 l 1
458 383 m 1
 469 348 l 1
 505 348 l 1
 476 327 l 1
 487 293 l 1
 458 314 l 1
 428 293 l 1
 440 327 l 1
 410 348 l 1
 447 348 l 1
 458 383 l 1
351 383 m 1
 362 348 l 1
 398 348 l 1
 369 327 l 1
 380 293 l 1
 351 314 l 1
 321 293 l 1
 333 327 l 1
 303 348 l 1
 340 348 l 1
 351 383 l 1
245 383 m 1
 256 348 l 1
 292 348 l 1
 263 327 l 1
 274 293 l 1
 245 314 l 1
 215 293 l 1
 227 327 l 1
 197 348 l 1
 234 348 l 1
 245 383 l 1
138 383 m 1
 149 348 l 1
 185 348 l 1
 156 327 l 1
 167 293 l 1
 138 314 l 1
 108 293 l 1
 120 327 l 1
 90 348 l 1
 127 348 l 1
 138 383 l 1
476 467 m 1
 487 432 l 1
 523 432 l 1
 494 411 l 1
 505 377 l 1
 476 398 l 1
 446 377 l 1
 458 411 l 1
 428 432 l 1
 465 432 l 1
 476 467 l 1
316 467 m 1
 327 432 l 1
 363 432 l 1
 334 411 l 1
 345 377 l 1
 316 398 l 1
 286 377 l 1
 298 411 l 1
 268 432 l 1
 305 432 l 1
 316 467 l 1
156 467 m 1
 167 432 l 1
 203 432 l 1
 174 411 l 1
 185 377 l 1
 156 398 l 1
 126 377 l 1
 138 411 l 1
 108 432 l 1
 145 432 l 1
 156 467 l 1
494 550 m 1
 505 515 l 1
 541 515 l 1
 512 494 l 1
 523 460 l 1
 494 481 l 1
 464 460 l 1
 475 494 l 1
 446 515 l 1
 482 515 l 1
 494 550 l 1
174 550 m 1
 185 515 l 1
 221 515 l 1
 192 494 l 1
 203 460 l 1
 174 481 l 1
 144 460 l 1
 155 494 l 1
 126 515 l 1
 162 515 l 1
 174 550 l 1
476 717 m 1
 487 682 l 1
 524 682 l 1
 494 661 l 1
 506 627 l 1
 476 648 l 1
 447 627 l 1
 458 661 l 1
 429 682 l 1
 465 682 l 1
 476 717 l 1
262 717 m 1
 273 682 l 1
 310 682 l 1
 280 661 l 1
 292 627 l 1
 262 648 l 1
 233 627 l 1
 244 661 l 1
 215 682 l 1
 251 682 l 1
 262 717 l 1
440 800 m 1
 451 765 l 1
 488 765 l 1
 458 744 l 1
 469 710 l 1
 440 731 l 1
 411 710 l 1
 422 744 l 1
 392 765 l 1
 429 765 l 1
 440 800 l 1
334 800 m 1
 345 765 l 1
 382 765 l 1
 352 744 l 1
 363 710 l 1
 334 731 l 1
 305 710 l 1
 316 744 l 1
 286 765 l 1
 323 765 l 1
 334 800 l 1
EndSplineSet
EndChar

StartChar: w
Encoding: 119 119 74
Width: 600
VWidth: 0
UnlinkRmOvrlpSave: 1
Flags: W
HStem: 210 21G<150.471 171.619 174.381 195.529 364.471 385.619 388.381 409.529> 210 21G<150.471 171.619 174.381 195.529 364.471 385.619 388.381 409.529> 613 20G<184.714 197.286 504.714 517.286>
LayerCount: 2
Back
Fore
SplineSet
387 300 m 1x60
 398 265 l 1
 435 265 l 1
 405 244 l 1
 416 210 l 1
 387 231 l 1
 358 210 l 1
 369 244 l 1
 339 265 l 1
 376 265 l 1
 387 300 l 1x60
173 300 m 1
 184 265 l 1
 221 265 l 1
 191 244 l 1
 202 210 l 1
 173 231 l 1
 144 210 l 1
 155 244 l 1
 125 265 l 1
 162 265 l 1
 173 300 l 1
458 383 m 1
 469 348 l 1
 505 348 l 1
 476 327 l 1
 487 293 l 1
 458 314 l 1
 428 293 l 1
 440 327 l 1
 410 348 l 1
 447 348 l 1
 458 383 l 1
351 383 m 1
 362 348 l 1
 398 348 l 1
 369 327 l 1
 380 293 l 1
 351 314 l 1
 321 293 l 1
 333 327 l 1
 303 348 l 1
 340 348 l 1
 351 383 l 1
245 383 m 1
 256 348 l 1
 292 348 l 1
 263 327 l 1
 274 293 l 1
 245 314 l 1
 215 293 l 1
 227 327 l 1
 197 348 l 1
 234 348 l 1
 245 383 l 1
138 383 m 1
 149 348 l 1
 185 348 l 1
 156 327 l 1
 167 293 l 1
 138 314 l 1
 108 293 l 1
 120 327 l 1
 90 348 l 1
 127 348 l 1
 138 383 l 1
476 467 m 1
 487 432 l 1
 523 432 l 1
 494 411 l 1
 505 377 l 1
 476 398 l 1
 446 377 l 1
 458 411 l 1
 428 432 l 1
 465 432 l 1
 476 467 l 1
316 467 m 1
 327 432 l 1
 363 432 l 1
 334 411 l 1
 345 377 l 1
 316 398 l 1
 286 377 l 1
 298 411 l 1
 268 432 l 1
 305 432 l 1
 316 467 l 1
156 467 m 1
 167 432 l 1
 203 432 l 1
 174 411 l 1
 185 377 l 1
 156 398 l 1
 126 377 l 1
 138 411 l 1
 108 432 l 1
 145 432 l 1
 156 467 l 1
494 550 m 1
 505 515 l 1
 541 515 l 1
 512 494 l 1
 523 460 l 1
 494 481 l 1
 464 460 l 1
 475 494 l 1
 446 515 l 1
 482 515 l 1
 494 550 l 1
174 550 m 1
 185 515 l 1
 221 515 l 1
 192 494 l 1
 203 460 l 1
 174 481 l 1
 144 460 l 1
 155 494 l 1
 126 515 l 1
 162 515 l 1
 174 550 l 1
511 633 m 1
 522 598 l 1
 559 598 l 1
 529 577 l 1
 541 543 l 1
 511 564 l 1
 482 543 l 1
 493 577 l 1
 464 598 l 1
 500 598 l 1
 511 633 l 1
191 633 m 1
 202 598 l 1
 239 598 l 1
 209 577 l 1
 221 543 l 1
 191 564 l 1
 162 543 l 1
 173 577 l 1
 144 598 l 1
 180 598 l 1
 191 633 l 1
EndSplineSet
EndChar

StartChar: oslash
Encoding: 248 248 75
Width: 600
VWidth: 0
UnlinkRmOvrlpSave: 1
Flags: W
HStem: 210 21G<150.471 171.619 174.381 195.529 257.471 278.619 281.381 302.529 364.471 385.619 388.381 409.529> 210 21G<150.471 171.619 174.381 195.529 257.471 278.619 281.381 302.529 364.471 385.619 388.381 409.529> 613 20G<237.714 250.286 344.714 357.286 451.714 464.286>
LayerCount: 2
Back
Fore
SplineSet
387 300 m 1x60
 398 265 l 1
 435 265 l 1
 405 244 l 1
 416 210 l 1
 387 231 l 1
 358 210 l 1
 369 244 l 1
 339 265 l 1
 376 265 l 1
 387 300 l 1x60
280 300 m 1
 291 265 l 1
 328 265 l 1
 298 244 l 1
 309 210 l 1
 280 231 l 1
 251 210 l 1
 262 244 l 1
 232 265 l 1
 269 265 l 1
 280 300 l 1
173 300 m 1
 184 265 l 1
 221 265 l 1
 191 244 l 1
 202 210 l 1
 173 231 l 1
 144 210 l 1
 155 244 l 1
 125 265 l 1
 162 265 l 1
 173 300 l 1
458 383 m 1
 469 348 l 1
 505 348 l 1
 476 327 l 1
 487 293 l 1
 458 314 l 1
 428 293 l 1
 440 327 l 1
 410 348 l 1
 447 348 l 1
 458 383 l 1
245 383 m 1
 256 348 l 1
 292 348 l 1
 263 327 l 1
 274 293 l 1
 245 314 l 1
 215 293 l 1
 227 327 l 1
 197 348 l 1
 234 348 l 1
 245 383 l 1
138 383 m 1
 149 348 l 1
 185 348 l 1
 156 327 l 1
 167 293 l 1
 138 314 l 1
 108 293 l 1
 120 327 l 1
 90 348 l 1
 127 348 l 1
 138 383 l 1
476 467 m 1
 487 432 l 1
 523 432 l 1
 494 411 l 1
 505 377 l 1
 476 398 l 1
 446 377 l 1
 458 411 l 1
 428 432 l 1
 465 432 l 1
 476 467 l 1
316 467 m 1
 327 432 l 1
 363 432 l 1
 334 411 l 1
 345 377 l 1
 316 398 l 1
 286 377 l 1
 298 411 l 1
 268 432 l 1
 305 432 l 1
 316 467 l 1
156 467 m 1
 167 432 l 1
 203 432 l 1
 174 411 l 1
 185 377 l 1
 156 398 l 1
 126 377 l 1
 138 411 l 1
 108 432 l 1
 145 432 l 1
 156 467 l 1
494 550 m 1
 505 515 l 1
 541 515 l 1
 512 494 l 1
 523 460 l 1
 494 481 l 1
 464 460 l 1
 475 494 l 1
 446 515 l 1
 482 515 l 1
 494 550 l 1
387 550 m 1
 398 515 l 1
 434 515 l 1
 405 494 l 1
 416 460 l 1
 387 481 l 1
 357 460 l 1
 368 494 l 1
 339 515 l 1
 375 515 l 1
 387 550 l 1
174 550 m 1
 185 515 l 1
 221 515 l 1
 192 494 l 1
 203 460 l 1
 174 481 l 1
 144 460 l 1
 155 494 l 1
 126 515 l 1
 162 515 l 1
 174 550 l 1
458 633 m 1
 469 598 l 1
 506 598 l 1
 476 577 l 1
 488 543 l 1
 458 564 l 1
 429 543 l 1
 440 577 l 1
 411 598 l 1
 447 598 l 1
 458 633 l 1
351 633 m 1
 362 598 l 1
 399 598 l 1
 369 577 l 1
 381 543 l 1
 351 564 l 1
 322 543 l 1
 333 577 l 1
 304 598 l 1
 340 598 l 1
 351 633 l 1
244 633 m 1
 255 598 l 1
 292 598 l 1
 262 577 l 1
 274 543 l 1
 244 564 l 1
 215 543 l 1
 226 577 l 1
 197 598 l 1
 233 598 l 1
 244 633 l 1
EndSplineSet
EndChar

StartChar: braceleft
Encoding: 123 123 76
Width: 600
VWidth: 0
UnlinkRmOvrlpSave: 1
Flags: W
HStem: 210 21G<274.471 295.619 298.381 319.529 381.471 402.619 405.381 426.529> 210 21G<274.471 295.619 298.381 319.529 381.471 402.619 405.381 426.529> 613 20G<308.714 321.286> 780 20G<397.714 410.286 504.714 517.286>
LayerCount: 2
Back
Fore
SplineSet
404 300 m 1x70
 415 265 l 1
 452 265 l 1
 422 244 l 1
 433 210 l 1
 404 231 l 1
 375 210 l 1
 386 244 l 1
 356 265 l 1
 393 265 l 1
 404 300 l 1x70
297 300 m 1
 308 265 l 1
 345 265 l 1
 315 244 l 1
 326 210 l 1
 297 231 l 1
 268 210 l 1
 279 244 l 1
 249 265 l 1
 286 265 l 1
 297 300 l 1
262 383 m 1
 273 348 l 1
 309 348 l 1
 280 327 l 1
 291 293 l 1
 262 314 l 1
 232 293 l 1
 244 327 l 1
 214 348 l 1
 251 348 l 1
 262 383 l 1
280 467 m 1
 291 432 l 1
 327 432 l 1
 298 411 l 1
 309 377 l 1
 280 398 l 1
 250 377 l 1
 262 411 l 1
 232 432 l 1
 269 432 l 1
 280 467 l 1
245 550 m 1
 256 515 l 1
 292 515 l 1
 263 494 l 1
 274 460 l 1
 245 481 l 1
 215 460 l 1
 226 494 l 1
 197 515 l 1
 233 515 l 1
 245 550 l 1
138 550 m 1
 149 515 l 1
 185 515 l 1
 156 494 l 1
 167 460 l 1
 138 481 l 1
 108 460 l 1
 119 494 l 1
 90 515 l 1
 126 515 l 1
 138 550 l 1
315 633 m 1
 326 598 l 1
 363 598 l 1
 333 577 l 1
 345 543 l 1
 315 564 l 1
 286 543 l 1
 297 577 l 1
 268 598 l 1
 304 598 l 1
 315 633 l 1
333 717 m 1
 344 682 l 1
 381 682 l 1
 351 661 l 1
 363 627 l 1
 333 648 l 1
 304 627 l 1
 315 661 l 1
 286 682 l 1
 322 682 l 1
 333 717 l 1
511 800 m 1
 522 765 l 1
 559 765 l 1
 529 744 l 1
 540 710 l 1
 511 731 l 1
 482 710 l 1
 493 744 l 1
 463 765 l 1
 500 765 l 1
 511 800 l 1
404 800 m 1
 415 765 l 1
 452 765 l 1
 422 744 l 1
 433 710 l 1
 404 731 l 1
 375 710 l 1
 386 744 l 1
 356 765 l 1
 393 765 l 1
 404 800 l 1
EndSplineSet
EndChar

StartChar: udieresis
Encoding: 252 252 77
Width: 600
VWidth: 0
UnlinkRmOvrlpSave: 1
Flags: W
HStem: 210 21G<204.471 225.619 228.381 249.529 310.471 331.619 334.381 355.529 417.471 438.619 441.381 462.529> 210 21G<204.471 225.619 228.381 249.529 310.471 331.619 334.381 355.529 417.471 438.619 441.381 462.529> 613 20G<184.714 197.286 504.714 517.286> 780 20G<273.714 286.286 487.714 500.286>
LayerCount: 2
Back
Fore
SplineSet
440 300 m 1x70
 451 265 l 1
 488 265 l 1
 458 244 l 1
 469 210 l 1
 440 231 l 1
 411 210 l 1
 422 244 l 1
 392 265 l 1
 429 265 l 1
 440 300 l 1x70
333 300 m 1
 344 265 l 1
 381 265 l 1
 351 244 l 1
 362 210 l 1
 333 231 l 1
 304 210 l 1
 315 244 l 1
 285 265 l 1
 322 265 l 1
 333 300 l 1
227 300 m 1
 238 265 l 1
 275 265 l 1
 245 244 l 1
 256 210 l 1
 227 231 l 1
 198 210 l 1
 209 244 l 1
 179 265 l 1
 216 265 l 1
 227 300 l 1
458 383 m 1
 469 348 l 1
 505 348 l 1
 476 327 l 1
 487 293 l 1
 458 314 l 1
 428 293 l 1
 440 327 l 1
 410 348 l 1
 447 348 l 1
 458 383 l 1
138 383 m 1
 149 348 l 1
 185 348 l 1
 156 327 l 1
 167 293 l 1
 138 314 l 1
 108 293 l 1
 120 327 l 1
 90 348 l 1
 127 348 l 1
 138 383 l 1
476 467 m 1
 487 432 l 1
 523 432 l 1
 494 411 l 1
 505 377 l 1
 476 398 l 1
 446 377 l 1
 458 411 l 1
 428 432 l 1
 465 432 l 1
 476 467 l 1
156 467 m 1
 167 432 l 1
 203 432 l 1
 174 411 l 1
 185 377 l 1
 156 398 l 1
 126 377 l 1
 138 411 l 1
 108 432 l 1
 145 432 l 1
 156 467 l 1
494 550 m 1
 505 515 l 1
 541 515 l 1
 512 494 l 1
 523 460 l 1
 494 481 l 1
 464 460 l 1
 475 494 l 1
 446 515 l 1
 482 515 l 1
 494 550 l 1
174 550 m 1
 185 515 l 1
 221 515 l 1
 192 494 l 1
 203 460 l 1
 174 481 l 1
 144 460 l 1
 155 494 l 1
 126 515 l 1
 162 515 l 1
 174 550 l 1
511 633 m 1
 522 598 l 1
 559 598 l 1
 529 577 l 1
 541 543 l 1
 511 564 l 1
 482 543 l 1
 493 577 l 1
 464 598 l 1
 500 598 l 1
 511 633 l 1
191 633 m 1
 202 598 l 1
 239 598 l 1
 209 577 l 1
 221 543 l 1
 191 564 l 1
 162 543 l 1
 173 577 l 1
 144 598 l 1
 180 598 l 1
 191 633 l 1
494 800 m 1
 505 765 l 1
 542 765 l 1
 512 744 l 1
 523 710 l 1
 494 731 l 1
 465 710 l 1
 476 744 l 1
 446 765 l 1
 483 765 l 1
 494 800 l 1
280 800 m 1
 291 765 l 1
 328 765 l 1
 298 744 l 1
 309 710 l 1
 280 731 l 1
 251 710 l 1
 262 744 l 1
 232 765 l 1
 269 765 l 1
 280 800 l 1
EndSplineSet
EndChar

StartChar: glyph78
Encoding: 776 776 78
Width: 600
VWidth: 0
UnlinkRmOvrlpSave: 1
Flags: W
HStem: 710 90
VStem: 90 310
LayerCount: 2
Back
Fore
SplineSet
352 800 m 1
 363 765 l 1
 400 765 l 1
 370 744 l 1
 381 710 l 1
 352 731 l 1
 323 710 l 1
 334 744 l 1
 304 765 l 1
 341 765 l 1
 352 800 l 1
138 800 m 1
 149 765 l 1
 186 765 l 1
 156 744 l 1
 167 710 l 1
 138 731 l 1
 109 710 l 1
 120 744 l 1
 90 765 l 1
 127 765 l 1
 138 800 l 1
EndSplineSet
EndChar

StartChar: glyph79
Encoding: 9786 9786 79
Width: 600
VWidth: 0
UnlinkRmOvrlpSave: 1
Flags: W
LayerCount: 2
Back
Fore
SplineSet
387 383 m 1
 398 348 l 1
 434 348 l 1
 405 327 l 1
 416 293 l 1
 387 314 l 1
 357 293 l 1
 369 327 l 1
 339 348 l 1
 376 348 l 1
 387 383 l 1
280 383 m 1
 291 348 l 1
 327 348 l 1
 298 327 l 1
 309 293 l 1
 280 314 l 1
 250 293 l 1
 262 327 l 1
 232 348 l 1
 269 348 l 1
 280 383 l 1
173 383 m 1
 184 348 l 1
 220 348 l 1
 191 327 l 1
 202 293 l 1
 173 314 l 1
 143 293 l 1
 155 327 l 1
 125 348 l 1
 162 348 l 1
 173 383 l 1
458 467 m 1
 469 432 l 1
 505 432 l 1
 476 411 l 1
 487 377 l 1
 458 398 l 1
 428 377 l 1
 440 411 l 1
 410 432 l 1
 447 432 l 1
 458 467 l 1
138 467 m 1
 149 432 l 1
 185 432 l 1
 156 411 l 1
 167 377 l 1
 138 398 l 1
 108 377 l 1
 120 411 l 1
 90 432 l 1
 127 432 l 1
 138 467 l 1
458 717 m 1
 469 682 l 1
 506 682 l 1
 476 661 l 1
 488 627 l 1
 458 648 l 1
 429 627 l 1
 440 661 l 1
 411 682 l 1
 447 682 l 1
 458 717 l 1
244 717 m 1
 255 682 l 1
 292 682 l 1
 262 661 l 1
 274 627 l 1
 244 648 l 1
 215 627 l 1
 226 661 l 1
 197 682 l 1
 233 682 l 1
 244 717 l 1
EndSplineSet
EndChar

StartChar: glyph80
Encoding: 8595 8595 80
Width: 600
VWidth: 0
UnlinkRmOvrlpSave: 1
Flags: W
HStem: 210 21G<239.471 260.619 263.381 284.529> 210 21G<239.471 260.619 263.381 284.529> 613 20G<326.714 339.286> 780 20G<362.714 375.286>
LayerCount: 2
Back
Fore
SplineSet
262 300 m 1x70
 273 265 l 1
 310 265 l 1
 280 244 l 1
 291 210 l 1
 262 231 l 1
 233 210 l 1
 244 244 l 1
 214 265 l 1
 251 265 l 1
 262 300 l 1x70
387 383 m 1
 398 348 l 1
 434 348 l 1
 405 327 l 1
 416 293 l 1
 387 314 l 1
 357 293 l 1
 369 327 l 1
 339 348 l 1
 376 348 l 1
 387 383 l 1
280 383 m 1
 291 348 l 1
 327 348 l 1
 298 327 l 1
 309 293 l 1
 280 314 l 1
 250 293 l 1
 262 327 l 1
 232 348 l 1
 269 348 l 1
 280 383 l 1
173 383 m 1
 184 348 l 1
 220 348 l 1
 191 327 l 1
 202 293 l 1
 173 314 l 1
 143 293 l 1
 155 327 l 1
 125 348 l 1
 162 348 l 1
 173 383 l 1
458 467 m 1
 469 432 l 1
 505 432 l 1
 476 411 l 1
 487 377 l 1
 458 398 l 1
 428 377 l 1
 440 411 l 1
 410 432 l 1
 447 432 l 1
 458 467 l 1
298 467 m 1
 309 432 l 1
 345 432 l 1
 316 411 l 1
 327 377 l 1
 298 398 l 1
 268 377 l 1
 280 411 l 1
 250 432 l 1
 287 432 l 1
 298 467 l 1
138 467 m 1
 149 432 l 1
 185 432 l 1
 156 411 l 1
 167 377 l 1
 138 398 l 1
 108 377 l 1
 120 411 l 1
 90 432 l 1
 127 432 l 1
 138 467 l 1
316 550 m 1
 327 515 l 1
 363 515 l 1
 334 494 l 1
 345 460 l 1
 316 481 l 1
 286 460 l 1
 297 494 l 1
 268 515 l 1
 304 515 l 1
 316 550 l 1
333 633 m 1
 344 598 l 1
 381 598 l 1
 351 577 l 1
 363 543 l 1
 333 564 l 1
 304 543 l 1
 315 577 l 1
 286 598 l 1
 322 598 l 1
 333 633 l 1
351 717 m 1
 362 682 l 1
 399 682 l 1
 369 661 l 1
 381 627 l 1
 351 648 l 1
 322 627 l 1
 333 661 l 1
 304 682 l 1
 340 682 l 1
 351 717 l 1
369 800 m 1
 380 765 l 1
 417 765 l 1
 387 744 l 1
 398 710 l 1
 369 731 l 1
 340 710 l 1
 351 744 l 1
 321 765 l 1
 358 765 l 1
 369 800 l 1
EndSplineSet
EndChar

StartChar: quotedbl
Encoding: 34 34 81
Width: 600
VWidth: 0
UnlinkRmOvrlpSave: 1
Flags: W
HStem: 543 257 613 20G<130.714 143.286 236.714 249.286>
VStem: 90 237
LayerCount: 2
Back
Fore
SplineSet
243 633 m 1x60
 254 598 l 1
 291 598 l 1
 261 577 l 1
 273 543 l 1
 243 564 l 1
 214 543 l 1xa0
 225 577 l 1
 196 598 l 1
 232 598 l 1
 243 633 l 1x60
137 633 m 1x60
 148 598 l 1
 185 598 l 1
 155 577 l 1
 167 543 l 1
 137 564 l 1
 108 543 l 1xa0
 119 577 l 1
 90 598 l 1
 126 598 l 1
 137 633 l 1x60
261 717 m 1
 272 682 l 1
 309 682 l 1
 279 661 l 1
 291 627 l 1
 261 648 l 1
 232 627 l 1
 243 661 l 1
 214 682 l 1
 250 682 l 1
 261 717 l 1
155 717 m 1
 166 682 l 1
 203 682 l 1
 173 661 l 1
 185 627 l 1
 155 648 l 1
 126 627 l 1
 137 661 l 1
 108 682 l 1
 144 682 l 1
 155 717 l 1
279 800 m 1
 290 765 l 1
 327 765 l 1
 297 744 l 1
 308 710 l 1
 279 731 l 1
 250 710 l 1
 261 744 l 1
 231 765 l 1
 268 765 l 1
 279 800 l 1
173 800 m 1
 184 765 l 1
 221 765 l 1
 191 744 l 1
 202 710 l 1
 173 731 l 1
 144 710 l 1
 155 744 l 1
 125 765 l 1
 162 765 l 1
 173 800 l 1
EndSplineSet
EndChar

StartChar: ampersand
Encoding: 38 38 82
Width: 600
VWidth: 0
UnlinkRmOvrlpSave: 1
Flags: W
HStem: 210 21G<150.471 171.619 174.381 195.529 257.471 278.619 281.381 302.529 364.471 385.619 388.381 409.529> 210 21G<150.471 171.619 174.381 195.529 257.471 278.619 281.381 302.529 364.471 385.619 388.381 409.529> 613 20G<237.714 250.286 344.714 357.286> 780 20G<273.714 286.286 380.714 393.286>
LayerCount: 2
Back
Fore
SplineSet
387 300 m 1x70
 398 265 l 1
 435 265 l 1
 405 244 l 1
 416 210 l 1
 387 231 l 1
 358 210 l 1
 369 244 l 1
 339 265 l 1
 376 265 l 1
 387 300 l 1x70
280 300 m 1
 291 265 l 1
 328 265 l 1
 298 244 l 1
 309 210 l 1
 280 231 l 1
 251 210 l 1
 262 244 l 1
 232 265 l 1
 269 265 l 1
 280 300 l 1
173 300 m 1
 184 265 l 1
 221 265 l 1
 191 244 l 1
 202 210 l 1
 173 231 l 1
 144 210 l 1
 155 244 l 1
 125 265 l 1
 162 265 l 1
 173 300 l 1
351 383 m 1
 362 348 l 1
 398 348 l 1
 369 327 l 1
 380 293 l 1
 351 314 l 1
 321 293 l 1
 333 327 l 1
 303 348 l 1
 340 348 l 1
 351 383 l 1
138 383 m 1
 149 348 l 1
 185 348 l 1
 156 327 l 1
 167 293 l 1
 138 314 l 1
 108 293 l 1
 120 327 l 1
 90 348 l 1
 127 348 l 1
 138 383 l 1
423 467 m 1
 434 432 l 1
 470 432 l 1
 441 411 l 1
 452 377 l 1
 423 398 l 1
 393 377 l 1
 405 411 l 1
 375 432 l 1
 412 432 l 1
 423 467 l 1
316 467 m 1
 327 432 l 1
 363 432 l 1
 334 411 l 1
 345 377 l 1
 316 398 l 1
 286 377 l 1
 298 411 l 1
 268 432 l 1
 305 432 l 1
 316 467 l 1
209 467 m 1
 220 432 l 1
 256 432 l 1
 227 411 l 1
 238 377 l 1
 209 398 l 1
 179 377 l 1
 191 411 l 1
 161 432 l 1
 198 432 l 1
 209 467 l 1
281 550 m 1
 292 515 l 1
 328 515 l 1
 299 494 l 1
 310 460 l 1
 281 481 l 1
 251 460 l 1
 262 494 l 1
 233 515 l 1
 269 515 l 1
 281 550 l 1
351 633 m 1
 362 598 l 1
 399 598 l 1
 369 577 l 1
 381 543 l 1
 351 564 l 1
 322 543 l 1
 333 577 l 1
 304 598 l 1
 340 598 l 1
 351 633 l 1
244 633 m 1
 255 598 l 1
 292 598 l 1
 262 577 l 1
 274 543 l 1
 244 564 l 1
 215 543 l 1
 226 577 l 1
 197 598 l 1
 233 598 l 1
 244 633 l 1
422 717 m 1
 433 682 l 1
 470 682 l 1
 440 661 l 1
 452 627 l 1
 422 648 l 1
 393 627 l 1
 404 661 l 1
 375 682 l 1
 411 682 l 1
 422 717 l 1
209 717 m 1
 220 682 l 1
 257 682 l 1
 227 661 l 1
 239 627 l 1
 209 648 l 1
 180 627 l 1
 191 661 l 1
 162 682 l 1
 198 682 l 1
 209 717 l 1
387 800 m 1
 398 765 l 1
 435 765 l 1
 405 744 l 1
 416 710 l 1
 387 731 l 1
 358 710 l 1
 369 744 l 1
 339 765 l 1
 376 765 l 1
 387 800 l 1
280 800 m 1
 291 765 l 1
 328 765 l 1
 298 744 l 1
 309 710 l 1
 280 731 l 1
 251 710 l 1
 262 744 l 1
 232 765 l 1
 269 765 l 1
 280 800 l 1
EndSplineSet
EndChar

StartChar: asterisk
Encoding: 42 42 83
Width: 600
VWidth: 0
UnlinkRmOvrlpSave: 1
Flags: W
HStem: 210 21G<257.471 278.619 281.381 302.529> 210 21G<257.471 278.619 281.381 302.529> 613 20G<237.714 250.286 344.714 357.286 451.714 464.286> 780 20G<380.714 393.286>
LayerCount: 2
Back
Fore
SplineSet
280 300 m 1x70
 291 265 l 1
 328 265 l 1
 298 244 l 1
 309 210 l 1
 280 231 l 1
 251 210 l 1
 262 244 l 1
 232 265 l 1
 269 265 l 1
 280 300 l 1x70
458 383 m 1
 469 348 l 1
 505 348 l 1
 476 327 l 1
 487 293 l 1
 458 314 l 1
 428 293 l 1
 440 327 l 1
 410 348 l 1
 447 348 l 1
 458 383 l 1
298 383 m 1
 309 348 l 1
 345 348 l 1
 316 327 l 1
 327 293 l 1
 298 314 l 1
 268 293 l 1
 280 327 l 1
 250 348 l 1
 287 348 l 1
 298 383 l 1
138 383 m 1
 149 348 l 1
 185 348 l 1
 156 327 l 1
 167 293 l 1
 138 314 l 1
 108 293 l 1
 120 327 l 1
 90 348 l 1
 127 348 l 1
 138 383 l 1
423 467 m 1
 434 432 l 1
 470 432 l 1
 441 411 l 1
 452 377 l 1
 423 398 l 1
 393 377 l 1
 405 411 l 1
 375 432 l 1
 412 432 l 1
 423 467 l 1
316 467 m 1
 327 432 l 1
 363 432 l 1
 334 411 l 1
 345 377 l 1
 316 398 l 1
 286 377 l 1
 298 411 l 1
 268 432 l 1
 305 432 l 1
 316 467 l 1
209 467 m 1
 220 432 l 1
 256 432 l 1
 227 411 l 1
 238 377 l 1
 209 398 l 1
 179 377 l 1
 191 411 l 1
 161 432 l 1
 198 432 l 1
 209 467 l 1
387 550 m 1
 398 515 l 1
 434 515 l 1
 405 494 l 1
 416 460 l 1
 387 481 l 1
 357 460 l 1
 368 494 l 1
 339 515 l 1
 375 515 l 1
 387 550 l 1
281 550 m 1
 292 515 l 1
 328 515 l 1
 299 494 l 1
 310 460 l 1
 281 481 l 1
 251 460 l 1
 262 494 l 1
 233 515 l 1
 269 515 l 1
 281 550 l 1
458 633 m 1
 469 598 l 1
 506 598 l 1
 476 577 l 1
 488 543 l 1
 458 564 l 1
 429 543 l 1
 440 577 l 1
 411 598 l 1
 447 598 l 1
 458 633 l 1
351 633 m 1
 362 598 l 1
 399 598 l 1
 369 577 l 1
 381 543 l 1
 351 564 l 1
 322 543 l 1
 333 577 l 1
 304 598 l 1
 340 598 l 1
 351 633 l 1
244 633 m 1
 255 598 l 1
 292 598 l 1
 262 577 l 1
 274 543 l 1
 244 564 l 1
 215 543 l 1
 226 577 l 1
 197 598 l 1
 233 598 l 1
 244 633 l 1
529 717 m 1
 540 682 l 1
 577 682 l 1
 547 661 l 1
 559 627 l 1
 529 648 l 1
 500 627 l 1
 511 661 l 1
 482 682 l 1
 518 682 l 1
 529 717 l 1
369 717 m 1
 380 682 l 1
 417 682 l 1
 387 661 l 1
 399 627 l 1
 369 648 l 1
 340 627 l 1
 351 661 l 1
 322 682 l 1
 358 682 l 1
 369 717 l 1
209 717 m 1
 220 682 l 1
 257 682 l 1
 227 661 l 1
 239 627 l 1
 209 648 l 1
 180 627 l 1
 191 661 l 1
 162 682 l 1
 198 682 l 1
 209 717 l 1
387 800 m 1
 398 765 l 1
 435 765 l 1
 405 744 l 1
 416 710 l 1
 387 731 l 1
 358 710 l 1
 369 744 l 1
 339 765 l 1
 376 765 l 1
 387 800 l 1
EndSplineSet
EndChar

StartChar: period
Encoding: 46 46 84
Width: 600
VWidth: 0
UnlinkRmOvrlpSave: 1
Flags: W
HStem: 210 257
VStem: 90 201
LayerCount: 2
Back
Fore
SplineSet
173 300 m 1
 184 265 l 1
 221 265 l 1
 191 244 l 1
 202 210 l 1
 173 231 l 1
 144 210 l 1
 155 244 l 1
 125 265 l 1
 162 265 l 1
 173 300 l 1
244 383 m 1
 255 348 l 1
 291 348 l 1
 262 327 l 1
 273 293 l 1
 244 314 l 1
 214 293 l 1
 226 327 l 1
 196 348 l 1
 233 348 l 1
 244 383 l 1
138 383 m 1
 149 348 l 1
 185 348 l 1
 156 327 l 1
 167 293 l 1
 138 314 l 1
 108 293 l 1
 120 327 l 1
 90 348 l 1
 127 348 l 1
 138 383 l 1
209 467 m 1
 220 432 l 1
 256 432 l 1
 227 411 l 1
 238 377 l 1
 209 398 l 1
 179 377 l 1
 191 411 l 1
 161 432 l 1
 198 432 l 1
 209 467 l 1
EndSplineSet
EndChar

StartChar: plusminus
Encoding: 177 177 85
Width: 600
VWidth: 0
UnlinkRmOvrlpSave: 1
Flags: W
HStem: 613 20G<184.714 197.286 291.714 304.286 397.714 410.286 504.714 517.286> 780 20G<380.714 393.286>
LayerCount: 2
Back
Fore
SplineSet
458 383 m 1
 469 348 l 1
 505 348 l 1
 476 327 l 1
 487 293 l 1
 458 314 l 1
 428 293 l 1
 440 327 l 1
 410 348 l 1
 447 348 l 1
 458 383 l 1
351 383 m 1
 362 348 l 1
 398 348 l 1
 369 327 l 1
 380 293 l 1
 351 314 l 1
 321 293 l 1
 333 327 l 1
 303 348 l 1
 340 348 l 1
 351 383 l 1
245 383 m 1
 256 348 l 1
 292 348 l 1
 263 327 l 1
 274 293 l 1
 245 314 l 1
 215 293 l 1
 227 327 l 1
 197 348 l 1
 234 348 l 1
 245 383 l 1
138 383 m 1
 149 348 l 1
 185 348 l 1
 156 327 l 1
 167 293 l 1
 138 314 l 1
 108 293 l 1
 120 327 l 1
 90 348 l 1
 127 348 l 1
 138 383 l 1
334 550 m 1
 345 515 l 1
 381 515 l 1
 352 494 l 1
 363 460 l 1
 334 481 l 1
 304 460 l 1
 315 494 l 1
 286 515 l 1
 322 515 l 1
 334 550 l 1
511 633 m 1
 522 598 l 1
 559 598 l 1
 529 577 l 1
 541 543 l 1
 511 564 l 1
 482 543 l 1
 493 577 l 1
 464 598 l 1
 500 598 l 1
 511 633 l 1
404 633 m 1
 415 598 l 1
 452 598 l 1
 422 577 l 1
 434 543 l 1
 404 564 l 1
 375 543 l 1
 386 577 l 1
 357 598 l 1
 393 598 l 1
 404 633 l 1
298 633 m 1
 309 598 l 1
 346 598 l 1
 316 577 l 1
 328 543 l 1
 298 564 l 1
 269 543 l 1
 280 577 l 1
 251 598 l 1
 287 598 l 1
 298 633 l 1
191 633 m 1
 202 598 l 1
 239 598 l 1
 209 577 l 1
 221 543 l 1
 191 564 l 1
 162 543 l 1
 173 577 l 1
 144 598 l 1
 180 598 l 1
 191 633 l 1
369 717 m 1
 380 682 l 1
 417 682 l 1
 387 661 l 1
 399 627 l 1
 369 648 l 1
 340 627 l 1
 351 661 l 1
 322 682 l 1
 358 682 l 1
 369 717 l 1
387 800 m 1
 398 765 l 1
 435 765 l 1
 405 744 l 1
 416 710 l 1
 387 731 l 1
 358 710 l 1
 369 744 l 1
 339 765 l 1
 376 765 l 1
 387 800 l 1
EndSplineSet
EndChar

StartChar: two
Encoding: 50 50 86
Width: 600
VWidth: 0
UnlinkRmOvrlpSave: 1
Flags: W
HStem: 210 21G<115.471 136.619 139.381 160.529 222.471 243.619 246.381 267.529 328.471 349.619 352.381 373.529 435.471 456.619 459.381 480.529> 210 21G<115.471 136.619 139.381 160.529 222.471 243.619 246.381 267.529 328.471 349.619 352.381 373.529 435.471 456.619 459.381 480.529> 613 20G<522.714 535.286> 780 20G<291.714 304.286 398.714 411.286 505.714 518.286>
LayerCount: 2
Back
Fore
SplineSet
458 300 m 1x70
 469 265 l 1
 506 265 l 1
 476 244 l 1
 487 210 l 1
 458 231 l 1
 429 210 l 1
 440 244 l 1
 410 265 l 1
 447 265 l 1
 458 300 l 1x70
351 300 m 1
 362 265 l 1
 399 265 l 1
 369 244 l 1
 380 210 l 1
 351 231 l 1
 322 210 l 1
 333 244 l 1
 303 265 l 1
 340 265 l 1
 351 300 l 1
245 300 m 1
 256 265 l 1
 293 265 l 1
 263 244 l 1
 274 210 l 1
 245 231 l 1
 216 210 l 1
 227 244 l 1
 197 265 l 1
 234 265 l 1
 245 300 l 1
138 300 m 1
 149 265 l 1
 186 265 l 1
 156 244 l 1
 167 210 l 1
 138 231 l 1
 109 210 l 1
 120 244 l 1
 90 265 l 1
 127 265 l 1
 138 300 l 1
209 383 m 1
 220 348 l 1
 256 348 l 1
 227 327 l 1
 238 293 l 1
 209 314 l 1
 179 293 l 1
 191 327 l 1
 161 348 l 1
 198 348 l 1
 209 383 l 1
334 467 m 1
 345 432 l 1
 381 432 l 1
 352 411 l 1
 363 377 l 1
 334 398 l 1
 304 377 l 1
 316 411 l 1
 286 432 l 1
 323 432 l 1
 334 467 l 1
459 550 m 1
 470 515 l 1
 506 515 l 1
 477 494 l 1
 488 460 l 1
 459 481 l 1
 429 460 l 1
 440 494 l 1
 411 515 l 1
 447 515 l 1
 459 550 l 1
529 633 m 1
 540 598 l 1
 577 598 l 1
 547 577 l 1
 559 543 l 1
 529 564 l 1
 500 543 l 1
 511 577 l 1
 482 598 l 1
 518 598 l 1
 529 633 l 1
547 717 m 1
 558 682 l 1
 595 682 l 1
 565 661 l 1
 577 627 l 1
 547 648 l 1
 518 627 l 1
 529 661 l 1
 500 682 l 1
 536 682 l 1
 547 717 l 1
227 717 m 1
 238 682 l 1
 275 682 l 1
 245 661 l 1
 257 627 l 1
 227 648 l 1
 198 627 l 1
 209 661 l 1
 180 682 l 1
 216 682 l 1
 227 717 l 1
512 800 m 1
 523 765 l 1
 560 765 l 1
 530 744 l 1
 541 710 l 1
 512 731 l 1
 483 710 l 1
 494 744 l 1
 464 765 l 1
 501 765 l 1
 512 800 l 1
405 800 m 1
 416 765 l 1
 453 765 l 1
 423 744 l 1
 434 710 l 1
 405 731 l 1
 376 710 l 1
 387 744 l 1
 357 765 l 1
 394 765 l 1
 405 800 l 1
298 800 m 1
 309 765 l 1
 346 765 l 1
 316 744 l 1
 327 710 l 1
 298 731 l 1
 269 710 l 1
 280 744 l 1
 250 765 l 1
 287 765 l 1
 298 800 l 1
EndSplineSet
EndChar

StartChar: mu
Encoding: 181 181 87
Width: 600
VWidth: 0
UnlinkRmOvrlpSave: 1
Flags: W
HStem: 210 21G<115.471 136.619 139.381 160.529> 210 21G<115.471 136.619 139.381 160.529> 613 20G<202.714 215.286 469.714 482.286>
LayerCount: 2
Back
Fore
SplineSet
138 300 m 1x60
 149 265 l 1
 186 265 l 1
 156 244 l 1
 167 210 l 1
 138 231 l 1
 109 210 l 1
 120 244 l 1
 90 265 l 1
 127 265 l 1
 138 300 l 1x60
156 383 m 1
 167 348 l 1
 203 348 l 1
 174 327 l 1
 185 293 l 1
 156 314 l 1
 126 293 l 1
 138 327 l 1
 108 348 l 1
 145 348 l 1
 156 383 l 1
494 467 m 1
 505 432 l 1
 541 432 l 1
 512 411 l 1
 523 377 l 1
 494 398 l 1
 464 377 l 1
 476 411 l 1
 446 432 l 1
 483 432 l 1
 494 467 l 1
387 467 m 1
 398 432 l 1
 434 432 l 1
 405 411 l 1
 416 377 l 1
 387 398 l 1
 357 377 l 1
 369 411 l 1
 339 432 l 1
 376 432 l 1
 387 467 l 1
281 467 m 1
 292 432 l 1
 328 432 l 1
 299 411 l 1
 310 377 l 1
 281 398 l 1
 251 377 l 1
 263 411 l 1
 233 432 l 1
 270 432 l 1
 281 467 l 1
174 467 m 1
 185 432 l 1
 221 432 l 1
 192 411 l 1
 203 377 l 1
 174 398 l 1
 144 377 l 1
 156 411 l 1
 126 432 l 1
 163 432 l 1
 174 467 l 1
459 550 m 1
 470 515 l 1
 506 515 l 1
 477 494 l 1
 488 460 l 1
 459 481 l 1
 429 460 l 1
 440 494 l 1
 411 515 l 1
 447 515 l 1
 459 550 l 1
192 550 m 1
 203 515 l 1
 239 515 l 1
 210 494 l 1
 221 460 l 1
 192 481 l 1
 162 460 l 1
 173 494 l 1
 144 515 l 1
 180 515 l 1
 192 550 l 1
476 633 m 1
 487 598 l 1
 524 598 l 1
 494 577 l 1
 506 543 l 1
 476 564 l 1
 447 543 l 1
 458 577 l 1
 429 598 l 1
 465 598 l 1
 476 633 l 1
209 633 m 1
 220 598 l 1
 257 598 l 1
 227 577 l 1
 239 543 l 1
 209 564 l 1
 180 543 l 1
 191 577 l 1
 162 598 l 1
 198 598 l 1
 209 633 l 1
EndSplineSet
EndChar

StartChar: six
Encoding: 54 54 88
Width: 600
VWidth: 0
UnlinkRmOvrlpSave: 1
Flags: W
HStem: 210 21G<150.471 171.619 174.381 195.529 257.471 278.619 281.381 302.529 364.471 385.619 388.381 409.529> 210 21G<150.471 171.619 174.381 195.529 257.471 278.619 281.381 302.529 364.471 385.619 388.381 409.529> 613 20G<291.714 304.286> 780 20G<433.714 446.286>
LayerCount: 2
Back
Fore
SplineSet
387 300 m 1x70
 398 265 l 1
 435 265 l 1
 405 244 l 1
 416 210 l 1
 387 231 l 1
 358 210 l 1
 369 244 l 1
 339 265 l 1
 376 265 l 1
 387 300 l 1x70
280 300 m 1
 291 265 l 1
 328 265 l 1
 298 244 l 1
 309 210 l 1
 280 231 l 1
 251 210 l 1
 262 244 l 1
 232 265 l 1
 269 265 l 1
 280 300 l 1
173 300 m 1
 184 265 l 1
 221 265 l 1
 191 244 l 1
 202 210 l 1
 173 231 l 1
 144 210 l 1
 155 244 l 1
 125 265 l 1
 162 265 l 1
 173 300 l 1
458 383 m 1
 469 348 l 1
 505 348 l 1
 476 327 l 1
 487 293 l 1
 458 314 l 1
 428 293 l 1
 440 327 l 1
 410 348 l 1
 447 348 l 1
 458 383 l 1
138 383 m 1
 149 348 l 1
 185 348 l 1
 156 327 l 1
 167 293 l 1
 138 314 l 1
 108 293 l 1
 120 327 l 1
 90 348 l 1
 127 348 l 1
 138 383 l 1
476 467 m 1
 487 432 l 1
 523 432 l 1
 494 411 l 1
 505 377 l 1
 476 398 l 1
 446 377 l 1
 458 411 l 1
 428 432 l 1
 465 432 l 1
 476 467 l 1
156 467 m 1
 167 432 l 1
 203 432 l 1
 174 411 l 1
 185 377 l 1
 156 398 l 1
 126 377 l 1
 138 411 l 1
 108 432 l 1
 145 432 l 1
 156 467 l 1
441 550 m 1
 452 515 l 1
 488 515 l 1
 459 494 l 1
 470 460 l 1
 441 481 l 1
 411 460 l 1
 422 494 l 1
 393 515 l 1
 429 515 l 1
 441 550 l 1
334 550 m 1
 345 515 l 1
 381 515 l 1
 352 494 l 1
 363 460 l 1
 334 481 l 1
 304 460 l 1
 315 494 l 1
 286 515 l 1
 322 515 l 1
 334 550 l 1
227 550 m 1
 238 515 l 1
 274 515 l 1
 245 494 l 1
 256 460 l 1
 227 481 l 1
 197 460 l 1
 208 494 l 1
 179 515 l 1
 215 515 l 1
 227 550 l 1
298 633 m 1
 309 598 l 1
 346 598 l 1
 316 577 l 1
 328 543 l 1
 298 564 l 1
 269 543 l 1
 280 577 l 1
 251 598 l 1
 287 598 l 1
 298 633 l 1
369 717 m 1
 380 682 l 1
 417 682 l 1
 387 661 l 1
 399 627 l 1
 369 648 l 1
 340 627 l 1
 351 661 l 1
 322 682 l 1
 358 682 l 1
 369 717 l 1
440 800 m 1
 451 765 l 1
 488 765 l 1
 458 744 l 1
 469 710 l 1
 440 731 l 1
 411 710 l 1
 422 744 l 1
 392 765 l 1
 429 765 l 1
 440 800 l 1
EndSplineSet
EndChar

StartChar: colon
Encoding: 58 58 89
Width: 600
VWidth: 0
UnlinkRmOvrlpSave: 1
Flags: W
HStem: 210 21G<150.471 171.619 174.381 195.529> 210 21G<150.471 171.619 174.381 195.529> 613 20G<237.714 250.286> 780 20G<273.714 286.286>
VStem: 90 273
LayerCount: 2
Back
Fore
SplineSet
173 300 m 1x78
 184 265 l 1
 221 265 l 1
 191 244 l 1
 202 210 l 1
 173 231 l 1
 144 210 l 1
 155 244 l 1
 125 265 l 1
 162 265 l 1
 173 300 l 1x78
244 383 m 1
 255 348 l 1
 291 348 l 1
 262 327 l 1
 273 293 l 1
 244 314 l 1
 214 293 l 1
 226 327 l 1
 196 348 l 1
 233 348 l 1
 244 383 l 1
138 383 m 1
 149 348 l 1
 185 348 l 1
 156 327 l 1
 167 293 l 1
 138 314 l 1
 108 293 l 1
 120 327 l 1
 90 348 l 1
 127 348 l 1
 138 383 l 1
209 467 m 1
 220 432 l 1
 256 432 l 1
 227 411 l 1
 238 377 l 1
 209 398 l 1
 179 377 l 1
 191 411 l 1
 161 432 l 1
 198 432 l 1
 209 467 l 1
244 633 m 1
 255 598 l 1
 292 598 l 1
 262 577 l 1
 274 543 l 1
 244 564 l 1
 215 543 l 1
 226 577 l 1
 197 598 l 1
 233 598 l 1
 244 633 l 1
315 717 m 1
 326 682 l 1
 363 682 l 1
 333 661 l 1
 345 627 l 1
 315 648 l 1
 286 627 l 1
 297 661 l 1
 268 682 l 1
 304 682 l 1
 315 717 l 1
209 717 m 1
 220 682 l 1
 257 682 l 1
 227 661 l 1
 239 627 l 1
 209 648 l 1
 180 627 l 1
 191 661 l 1
 162 682 l 1
 198 682 l 1
 209 717 l 1
280 800 m 1
 291 765 l 1
 328 765 l 1
 298 744 l 1
 309 710 l 1
 280 731 l 1
 251 710 l 1
 262 744 l 1
 232 765 l 1
 269 765 l 1
 280 800 l 1
EndSplineSet
EndChar

StartChar: greater
Encoding: 62 62 90
Width: 600
VWidth: 0
UnlinkRmOvrlpSave: 1
Flags: W
HStem: 210 21G<115.471 136.619 139.381 160.529> 210 21G<115.471 136.619 139.381 160.529> 613 20G<415.714 428.286> 780 20G<238.714 251.286>
LayerCount: 2
Back
Fore
SplineSet
138 300 m 1x70
 149 265 l 1
 186 265 l 1
 156 244 l 1
 167 210 l 1
 138 231 l 1
 109 210 l 1
 120 244 l 1
 90 265 l 1
 127 265 l 1
 138 300 l 1x70
263 383 m 1
 274 348 l 1
 310 348 l 1
 281 327 l 1
 292 293 l 1
 263 314 l 1
 233 293 l 1
 245 327 l 1
 215 348 l 1
 252 348 l 1
 263 383 l 1
387 467 m 1
 398 432 l 1
 434 432 l 1
 405 411 l 1
 416 377 l 1
 387 398 l 1
 357 377 l 1
 369 411 l 1
 339 432 l 1
 376 432 l 1
 387 467 l 1
512 550 m 1
 523 515 l 1
 559 515 l 1
 530 494 l 1
 541 460 l 1
 512 481 l 1
 482 460 l 1
 493 494 l 1
 464 515 l 1
 500 515 l 1
 512 550 l 1
422 633 m 1
 433 598 l 1
 470 598 l 1
 440 577 l 1
 452 543 l 1
 422 564 l 1
 393 543 l 1
 404 577 l 1
 375 598 l 1
 411 598 l 1
 422 633 l 1
334 717 m 1
 345 682 l 1
 382 682 l 1
 352 661 l 1
 364 627 l 1
 334 648 l 1
 305 627 l 1
 316 661 l 1
 287 682 l 1
 323 682 l 1
 334 717 l 1
245 800 m 1
 256 765 l 1
 293 765 l 1
 263 744 l 1
 274 710 l 1
 245 731 l 1
 216 710 l 1
 227 744 l 1
 197 765 l 1
 234 765 l 1
 245 800 l 1
EndSplineSet
EndChar

StartChar: Aacute
Encoding: 193 193 91
Width: 600
VWidth: 0
UnlinkRmOvrlpSave: 1
Flags: W
HStem: 210 21G<115.471 136.619 139.381 160.529 435.471 456.619 459.381 480.529> 210 21G<115.471 136.619 139.381 160.529 435.471 456.619 459.381 480.529> 613 20G<362.714 375.286> 780 20G<451.714 464.286>
LayerCount: 2
Back
Fore
SplineSet
458 300 m 1x70
 469 265 l 1
 506 265 l 1
 476 244 l 1
 487 210 l 1
 458 231 l 1
 429 210 l 1
 440 244 l 1
 410 265 l 1
 447 265 l 1
 458 300 l 1x70
138 300 m 1
 149 265 l 1
 186 265 l 1
 156 244 l 1
 167 210 l 1
 138 231 l 1
 109 210 l 1
 120 244 l 1
 90 265 l 1
 127 265 l 1
 138 300 l 1
476 383 m 1
 487 348 l 1
 523 348 l 1
 494 327 l 1
 505 293 l 1
 476 314 l 1
 446 293 l 1
 458 327 l 1
 428 348 l 1
 465 348 l 1
 476 383 l 1
369 383 m 1
 380 348 l 1
 416 348 l 1
 387 327 l 1
 398 293 l 1
 369 314 l 1
 339 293 l 1
 351 327 l 1
 321 348 l 1
 358 348 l 1
 369 383 l 1
263 383 m 1
 274 348 l 1
 310 348 l 1
 281 327 l 1
 292 293 l 1
 263 314 l 1
 233 293 l 1
 245 327 l 1
 215 348 l 1
 252 348 l 1
 263 383 l 1
156 383 m 1
 167 348 l 1
 203 348 l 1
 174 327 l 1
 185 293 l 1
 156 314 l 1
 126 293 l 1
 138 327 l 1
 108 348 l 1
 145 348 l 1
 156 383 l 1
441 467 m 1
 452 432 l 1
 488 432 l 1
 459 411 l 1
 470 377 l 1
 441 398 l 1
 411 377 l 1
 423 411 l 1
 393 432 l 1
 430 432 l 1
 441 467 l 1
227 467 m 1
 238 432 l 1
 274 432 l 1
 245 411 l 1
 256 377 l 1
 227 398 l 1
 197 377 l 1
 209 411 l 1
 179 432 l 1
 216 432 l 1
 227 467 l 1
405 550 m 1
 416 515 l 1
 452 515 l 1
 423 494 l 1
 434 460 l 1
 405 481 l 1
 375 460 l 1
 386 494 l 1
 357 515 l 1
 393 515 l 1
 405 550 l 1
299 550 m 1
 310 515 l 1
 346 515 l 1
 317 494 l 1
 328 460 l 1
 299 481 l 1
 269 460 l 1
 280 494 l 1
 251 515 l 1
 287 515 l 1
 299 550 l 1
369 633 m 1
 380 598 l 1
 417 598 l 1
 387 577 l 1
 399 543 l 1
 369 564 l 1
 340 543 l 1
 351 577 l 1
 322 598 l 1
 358 598 l 1
 369 633 l 1
387 717 m 1
 398 682 l 1
 435 682 l 1
 405 661 l 1
 417 627 l 1
 387 648 l 1
 358 627 l 1
 369 661 l 1
 340 682 l 1
 376 682 l 1
 387 717 l 1
458 800 m 1
 469 765 l 1
 506 765 l 1
 476 744 l 1
 487 710 l 1
 458 731 l 1
 429 710 l 1
 440 744 l 1
 410 765 l 1
 447 765 l 1
 458 800 l 1
EndSplineSet
EndChar

StartChar: B
Encoding: 66 66 92
Width: 600
VWidth: 0
UnlinkRmOvrlpSave: 1
Flags: W
HStem: 210 21G<115.471 136.619 139.381 160.529 222.471 243.619 246.381 267.529 328.471 349.619 352.381 373.529> 210 21G<115.471 136.619 139.381 160.529 222.471 243.619 246.381 267.529 328.471 349.619 352.381 373.529> 613 20G<255.714 268.286 522.714 535.286> 780 20G<238.714 251.286 345.714 358.286 451.714 464.286>
LayerCount: 2
Back
Fore
SplineSet
351 300 m 1x70
 362 265 l 1
 399 265 l 1
 369 244 l 1
 380 210 l 1
 351 231 l 1
 322 210 l 1
 333 244 l 1
 303 265 l 1
 340 265 l 1
 351 300 l 1x70
245 300 m 1
 256 265 l 1
 293 265 l 1
 263 244 l 1
 274 210 l 1
 245 231 l 1
 216 210 l 1
 227 244 l 1
 197 265 l 1
 234 265 l 1
 245 300 l 1
138 300 m 1
 149 265 l 1
 186 265 l 1
 156 244 l 1
 167 210 l 1
 138 231 l 1
 109 210 l 1
 120 244 l 1
 90 265 l 1
 127 265 l 1
 138 300 l 1
476 383 m 1
 487 348 l 1
 523 348 l 1
 494 327 l 1
 505 293 l 1
 476 314 l 1
 446 293 l 1
 458 327 l 1
 428 348 l 1
 465 348 l 1
 476 383 l 1
209 383 m 1
 220 348 l 1
 256 348 l 1
 227 327 l 1
 238 293 l 1
 209 314 l 1
 179 293 l 1
 191 327 l 1
 161 348 l 1
 198 348 l 1
 209 383 l 1
494 467 m 1
 505 432 l 1
 541 432 l 1
 512 411 l 1
 523 377 l 1
 494 398 l 1
 464 377 l 1
 476 411 l 1
 446 432 l 1
 483 432 l 1
 494 467 l 1
227 467 m 1
 238 432 l 1
 274 432 l 1
 245 411 l 1
 256 377 l 1
 227 398 l 1
 197 377 l 1
 209 411 l 1
 179 432 l 1
 216 432 l 1
 227 467 l 1
459 550 m 1
 470 515 l 1
 506 515 l 1
 477 494 l 1
 488 460 l 1
 459 481 l 1
 429 460 l 1
 440 494 l 1
 411 515 l 1
 447 515 l 1
 459 550 l 1
352 550 m 1
 363 515 l 1
 399 515 l 1
 370 494 l 1
 381 460 l 1
 352 481 l 1
 322 460 l 1
 333 494 l 1
 304 515 l 1
 340 515 l 1
 352 550 l 1
245 550 m 1
 256 515 l 1
 292 515 l 1
 263 494 l 1
 274 460 l 1
 245 481 l 1
 215 460 l 1
 226 494 l 1
 197 515 l 1
 233 515 l 1
 245 550 l 1
529 633 m 1
 540 598 l 1
 577 598 l 1
 547 577 l 1
 559 543 l 1
 529 564 l 1
 500 543 l 1
 511 577 l 1
 482 598 l 1
 518 598 l 1
 529 633 l 1
262 633 m 1
 273 598 l 1
 310 598 l 1
 280 577 l 1
 292 543 l 1
 262 564 l 1
 233 543 l 1
 244 577 l 1
 215 598 l 1
 251 598 l 1
 262 633 l 1
547 717 m 1
 558 682 l 1
 595 682 l 1
 565 661 l 1
 577 627 l 1
 547 648 l 1
 518 627 l 1
 529 661 l 1
 500 682 l 1
 536 682 l 1
 547 717 l 1
280 717 m 1
 291 682 l 1
 328 682 l 1
 298 661 l 1
 310 627 l 1
 280 648 l 1
 251 627 l 1
 262 661 l 1
 233 682 l 1
 269 682 l 1
 280 717 l 1
458 800 m 1
 469 765 l 1
 506 765 l 1
 476 744 l 1
 487 710 l 1
 458 731 l 1
 429 710 l 1
 440 744 l 1
 410 765 l 1
 447 765 l 1
 458 800 l 1
352 800 m 1
 363 765 l 1
 400 765 l 1
 370 744 l 1
 381 710 l 1
 352 731 l 1
 323 710 l 1
 334 744 l 1
 304 765 l 1
 341 765 l 1
 352 800 l 1
245 800 m 1
 256 765 l 1
 293 765 l 1
 263 744 l 1
 274 710 l 1
 245 731 l 1
 216 710 l 1
 227 744 l 1
 197 765 l 1
 234 765 l 1
 245 800 l 1
EndSplineSet
EndChar

StartChar: Aring
Encoding: 197 197 93
Width: 600
VWidth: 0
UnlinkRmOvrlpSave: 1
Flags: W
HStem: 210 21G<115.471 136.619 139.381 160.529 435.471 456.619 459.381 480.529> 210 21G<115.471 136.619 139.381 160.529 435.471 456.619 459.381 480.529> 613 20G<362.714 375.286> 780 20G<398.714 411.286>
LayerCount: 2
Back
Fore
SplineSet
458 300 m 1x70
 469 265 l 1
 506 265 l 1
 476 244 l 1
 487 210 l 1
 458 231 l 1
 429 210 l 1
 440 244 l 1
 410 265 l 1
 447 265 l 1
 458 300 l 1x70
138 300 m 1
 149 265 l 1
 186 265 l 1
 156 244 l 1
 167 210 l 1
 138 231 l 1
 109 210 l 1
 120 244 l 1
 90 265 l 1
 127 265 l 1
 138 300 l 1
476 383 m 1
 487 348 l 1
 523 348 l 1
 494 327 l 1
 505 293 l 1
 476 314 l 1
 446 293 l 1
 458 327 l 1
 428 348 l 1
 465 348 l 1
 476 383 l 1
369 383 m 1
 380 348 l 1
 416 348 l 1
 387 327 l 1
 398 293 l 1
 369 314 l 1
 339 293 l 1
 351 327 l 1
 321 348 l 1
 358 348 l 1
 369 383 l 1
263 383 m 1
 274 348 l 1
 310 348 l 1
 281 327 l 1
 292 293 l 1
 263 314 l 1
 233 293 l 1
 245 327 l 1
 215 348 l 1
 252 348 l 1
 263 383 l 1
156 383 m 1
 167 348 l 1
 203 348 l 1
 174 327 l 1
 185 293 l 1
 156 314 l 1
 126 293 l 1
 138 327 l 1
 108 348 l 1
 145 348 l 1
 156 383 l 1
441 467 m 1
 452 432 l 1
 488 432 l 1
 459 411 l 1
 470 377 l 1
 441 398 l 1
 411 377 l 1
 423 411 l 1
 393 432 l 1
 430 432 l 1
 441 467 l 1
227 467 m 1
 238 432 l 1
 274 432 l 1
 245 411 l 1
 256 377 l 1
 227 398 l 1
 197 377 l 1
 209 411 l 1
 179 432 l 1
 216 432 l 1
 227 467 l 1
405 550 m 1
 416 515 l 1
 452 515 l 1
 423 494 l 1
 434 460 l 1
 405 481 l 1
 375 460 l 1
 386 494 l 1
 357 515 l 1
 393 515 l 1
 405 550 l 1
299 550 m 1
 310 515 l 1
 346 515 l 1
 317 494 l 1
 328 460 l 1
 299 481 l 1
 269 460 l 1
 280 494 l 1
 251 515 l 1
 287 515 l 1
 299 550 l 1
369 633 m 1
 380 598 l 1
 417 598 l 1
 387 577 l 1
 399 543 l 1
 369 564 l 1
 340 543 l 1
 351 577 l 1
 322 598 l 1
 358 598 l 1
 369 633 l 1
440 717 m 1
 451 682 l 1
 488 682 l 1
 458 661 l 1
 470 627 l 1
 440 648 l 1
 411 627 l 1
 422 661 l 1
 393 682 l 1
 429 682 l 1
 440 717 l 1
334 717 m 1
 345 682 l 1
 382 682 l 1
 352 661 l 1
 364 627 l 1
 334 648 l 1
 305 627 l 1
 316 661 l 1
 287 682 l 1
 323 682 l 1
 334 717 l 1
405 800 m 1
 416 765 l 1
 453 765 l 1
 423 744 l 1
 434 710 l 1
 405 731 l 1
 376 710 l 1
 387 744 l 1
 357 765 l 1
 394 765 l 1
 405 800 l 1
EndSplineSet
EndChar

StartChar: F
Encoding: 70 70 94
Width: 600
VWidth: 0
UnlinkRmOvrlpSave: 1
Flags: W
HStem: 210 21G<115.471 136.619 139.381 160.529> 210 21G<115.471 136.619 139.381 160.529> 613 20G<202.714 215.286> 780 20G<238.714 251.286 345.714 358.286 451.714 464.286 558.714 571.286>
LayerCount: 2
Back
Fore
SplineSet
138 300 m 1x70
 149 265 l 1
 186 265 l 1
 156 244 l 1
 167 210 l 1
 138 231 l 1
 109 210 l 1
 120 244 l 1
 90 265 l 1
 127 265 l 1
 138 300 l 1x70
156 383 m 1
 167 348 l 1
 203 348 l 1
 174 327 l 1
 185 293 l 1
 156 314 l 1
 126 293 l 1
 138 327 l 1
 108 348 l 1
 145 348 l 1
 156 383 l 1
174 467 m 1
 185 432 l 1
 221 432 l 1
 192 411 l 1
 203 377 l 1
 174 398 l 1
 144 377 l 1
 156 411 l 1
 126 432 l 1
 163 432 l 1
 174 467 l 1
405 550 m 1
 416 515 l 1
 452 515 l 1
 423 494 l 1
 434 460 l 1
 405 481 l 1
 375 460 l 1
 386 494 l 1
 357 515 l 1
 393 515 l 1
 405 550 l 1
299 550 m 1
 310 515 l 1
 346 515 l 1
 317 494 l 1
 328 460 l 1
 299 481 l 1
 269 460 l 1
 280 494 l 1
 251 515 l 1
 287 515 l 1
 299 550 l 1
192 550 m 1
 203 515 l 1
 239 515 l 1
 210 494 l 1
 221 460 l 1
 192 481 l 1
 162 460 l 1
 173 494 l 1
 144 515 l 1
 180 515 l 1
 192 550 l 1
209 633 m 1
 220 598 l 1
 257 598 l 1
 227 577 l 1
 239 543 l 1
 209 564 l 1
 180 543 l 1
 191 577 l 1
 162 598 l 1
 198 598 l 1
 209 633 l 1
227 717 m 1
 238 682 l 1
 275 682 l 1
 245 661 l 1
 257 627 l 1
 227 648 l 1
 198 627 l 1
 209 661 l 1
 180 682 l 1
 216 682 l 1
 227 717 l 1
565 800 m 1
 576 765 l 1
 613 765 l 1
 583 744 l 1
 594 710 l 1
 565 731 l 1
 536 710 l 1
 547 744 l 1
 517 765 l 1
 554 765 l 1
 565 800 l 1
458 800 m 1
 469 765 l 1
 506 765 l 1
 476 744 l 1
 487 710 l 1
 458 731 l 1
 429 710 l 1
 440 744 l 1
 410 765 l 1
 447 765 l 1
 458 800 l 1
352 800 m 1
 363 765 l 1
 400 765 l 1
 370 744 l 1
 381 710 l 1
 352 731 l 1
 323 710 l 1
 334 744 l 1
 304 765 l 1
 341 765 l 1
 352 800 l 1
245 800 m 1
 256 765 l 1
 293 765 l 1
 263 744 l 1
 274 710 l 1
 245 731 l 1
 216 710 l 1
 227 744 l 1
 197 765 l 1
 234 765 l 1
 245 800 l 1
EndSplineSet
EndChar

StartChar: Eacute
Encoding: 201 201 95
Width: 600
VWidth: 0
UnlinkRmOvrlpSave: 1
Flags: W
HStem: 210 21G<115.471 136.619 139.381 160.529 222.471 243.619 246.381 267.529 328.471 349.619 352.381 373.529 435.471 456.619 459.381 480.529> 210 21G<115.471 136.619 139.381 160.529 222.471 243.619 246.381 267.529 328.471 349.619 352.381 373.529 435.471 456.619 459.381 480.529> 613 20G<202.714 215.286 309.714 322.286 415.714 428.286 522.714 535.286> 780 20G<451.714 464.286>
LayerCount: 2
Back
Fore
SplineSet
458 300 m 1x70
 469 265 l 1
 506 265 l 1
 476 244 l 1
 487 210 l 1
 458 231 l 1
 429 210 l 1
 440 244 l 1
 410 265 l 1
 447 265 l 1
 458 300 l 1x70
351 300 m 1
 362 265 l 1
 399 265 l 1
 369 244 l 1
 380 210 l 1
 351 231 l 1
 322 210 l 1
 333 244 l 1
 303 265 l 1
 340 265 l 1
 351 300 l 1
245 300 m 1
 256 265 l 1
 293 265 l 1
 263 244 l 1
 274 210 l 1
 245 231 l 1
 216 210 l 1
 227 244 l 1
 197 265 l 1
 234 265 l 1
 245 300 l 1
138 300 m 1
 149 265 l 1
 186 265 l 1
 156 244 l 1
 167 210 l 1
 138 231 l 1
 109 210 l 1
 120 244 l 1
 90 265 l 1
 127 265 l 1
 138 300 l 1
156 383 m 1
 167 348 l 1
 203 348 l 1
 174 327 l 1
 185 293 l 1
 156 314 l 1
 126 293 l 1
 138 327 l 1
 108 348 l 1
 145 348 l 1
 156 383 l 1
387 467 m 1
 398 432 l 1
 434 432 l 1
 405 411 l 1
 416 377 l 1
 387 398 l 1
 357 377 l 1
 369 411 l 1
 339 432 l 1
 376 432 l 1
 387 467 l 1
281 467 m 1
 292 432 l 1
 328 432 l 1
 299 411 l 1
 310 377 l 1
 281 398 l 1
 251 377 l 1
 263 411 l 1
 233 432 l 1
 270 432 l 1
 281 467 l 1
174 467 m 1
 185 432 l 1
 221 432 l 1
 192 411 l 1
 203 377 l 1
 174 398 l 1
 144 377 l 1
 156 411 l 1
 126 432 l 1
 163 432 l 1
 174 467 l 1
192 550 m 1
 203 515 l 1
 239 515 l 1
 210 494 l 1
 221 460 l 1
 192 481 l 1
 162 460 l 1
 173 494 l 1
 144 515 l 1
 180 515 l 1
 192 550 l 1
529 633 m 1
 540 598 l 1
 577 598 l 1
 547 577 l 1
 559 543 l 1
 529 564 l 1
 500 543 l 1
 511 577 l 1
 482 598 l 1
 518 598 l 1
 529 633 l 1
422 633 m 1
 433 598 l 1
 470 598 l 1
 440 577 l 1
 452 543 l 1
 422 564 l 1
 393 543 l 1
 404 577 l 1
 375 598 l 1
 411 598 l 1
 422 633 l 1
316 633 m 1
 327 598 l 1
 364 598 l 1
 334 577 l 1
 346 543 l 1
 316 564 l 1
 287 543 l 1
 298 577 l 1
 269 598 l 1
 305 598 l 1
 316 633 l 1
209 633 m 1
 220 598 l 1
 257 598 l 1
 227 577 l 1
 239 543 l 1
 209 564 l 1
 180 543 l 1
 191 577 l 1
 162 598 l 1
 198 598 l 1
 209 633 l 1
387 717 m 1
 398 682 l 1
 435 682 l 1
 405 661 l 1
 417 627 l 1
 387 648 l 1
 358 627 l 1
 369 661 l 1
 340 682 l 1
 376 682 l 1
 387 717 l 1
458 800 m 1
 469 765 l 1
 506 765 l 1
 476 744 l 1
 487 710 l 1
 458 731 l 1
 429 710 l 1
 440 744 l 1
 410 765 l 1
 447 765 l 1
 458 800 l 1
EndSplineSet
EndChar

StartChar: J
Encoding: 74 74 96
Width: 600
VWidth: 0
UnlinkRmOvrlpSave: 1
Flags: W
HStem: 210 21G<150.471 171.619 174.381 195.529 257.471 278.619 281.381 302.529 364.471 385.619 388.381 409.529> 210 21G<150.471 171.619 174.381 195.529 257.471 278.619 281.381 302.529 364.471 385.619 388.381 409.529> 613 20G<504.714 517.286> 780 20G<540.714 553.286>
LayerCount: 2
Back
Fore
SplineSet
387 300 m 1x70
 398 265 l 1
 435 265 l 1
 405 244 l 1
 416 210 l 1
 387 231 l 1
 358 210 l 1
 369 244 l 1
 339 265 l 1
 376 265 l 1
 387 300 l 1x70
280 300 m 1
 291 265 l 1
 328 265 l 1
 298 244 l 1
 309 210 l 1
 280 231 l 1
 251 210 l 1
 262 244 l 1
 232 265 l 1
 269 265 l 1
 280 300 l 1
173 300 m 1
 184 265 l 1
 221 265 l 1
 191 244 l 1
 202 210 l 1
 173 231 l 1
 144 210 l 1
 155 244 l 1
 125 265 l 1
 162 265 l 1
 173 300 l 1
458 383 m 1
 469 348 l 1
 505 348 l 1
 476 327 l 1
 487 293 l 1
 458 314 l 1
 428 293 l 1
 440 327 l 1
 410 348 l 1
 447 348 l 1
 458 383 l 1
138 383 m 1
 149 348 l 1
 185 348 l 1
 156 327 l 1
 167 293 l 1
 138 314 l 1
 108 293 l 1
 120 327 l 1
 90 348 l 1
 127 348 l 1
 138 383 l 1
476 467 m 1
 487 432 l 1
 523 432 l 1
 494 411 l 1
 505 377 l 1
 476 398 l 1
 446 377 l 1
 458 411 l 1
 428 432 l 1
 465 432 l 1
 476 467 l 1
494 550 m 1
 505 515 l 1
 541 515 l 1
 512 494 l 1
 523 460 l 1
 494 481 l 1
 464 460 l 1
 475 494 l 1
 446 515 l 1
 482 515 l 1
 494 550 l 1
511 633 m 1
 522 598 l 1
 559 598 l 1
 529 577 l 1
 541 543 l 1
 511 564 l 1
 482 543 l 1
 493 577 l 1
 464 598 l 1
 500 598 l 1
 511 633 l 1
529 717 m 1
 540 682 l 1
 577 682 l 1
 547 661 l 1
 559 627 l 1
 529 648 l 1
 500 627 l 1
 511 661 l 1
 482 682 l 1
 518 682 l 1
 529 717 l 1
547 800 m 1
 558 765 l 1
 595 765 l 1
 565 744 l 1
 576 710 l 1
 547 731 l 1
 518 710 l 1
 529 744 l 1
 499 765 l 1
 536 765 l 1
 547 800 l 1
EndSplineSet
EndChar

StartChar: N
Encoding: 78 78 97
Width: 600
VWidth: 0
UnlinkRmOvrlpSave: 1
Flags: W
HStem: 210 21G<115.471 136.619 139.381 160.529 435.471 456.619 459.381 480.529> 210 21G<115.471 136.619 139.381 160.529 435.471 456.619 459.381 480.529> 613 20G<202.714 215.286 309.714 322.286 522.714 535.286> 780 20G<238.714 251.286 558.714 571.286>
LayerCount: 2
Back
Fore
SplineSet
458 300 m 1x70
 469 265 l 1
 506 265 l 1
 476 244 l 1
 487 210 l 1
 458 231 l 1
 429 210 l 1
 440 244 l 1
 410 265 l 1
 447 265 l 1
 458 300 l 1x70
138 300 m 1
 149 265 l 1
 186 265 l 1
 156 244 l 1
 167 210 l 1
 138 231 l 1
 109 210 l 1
 120 244 l 1
 90 265 l 1
 127 265 l 1
 138 300 l 1
423 383 m 1
 434 348 l 1
 470 348 l 1
 441 327 l 1
 452 293 l 1
 423 314 l 1
 393 293 l 1
 405 327 l 1
 375 348 l 1
 412 348 l 1
 423 383 l 1
156 383 m 1
 167 348 l 1
 203 348 l 1
 174 327 l 1
 185 293 l 1
 156 314 l 1
 126 293 l 1
 138 327 l 1
 108 348 l 1
 145 348 l 1
 156 383 l 1
494 467 m 1
 505 432 l 1
 541 432 l 1
 512 411 l 1
 523 377 l 1
 494 398 l 1
 464 377 l 1
 476 411 l 1
 446 432 l 1
 483 432 l 1
 494 467 l 1
387 467 m 1
 398 432 l 1
 434 432 l 1
 405 411 l 1
 416 377 l 1
 387 398 l 1
 357 377 l 1
 369 411 l 1
 339 432 l 1
 376 432 l 1
 387 467 l 1
174 467 m 1
 185 432 l 1
 221 432 l 1
 192 411 l 1
 203 377 l 1
 174 398 l 1
 144 377 l 1
 156 411 l 1
 126 432 l 1
 163 432 l 1
 174 467 l 1
512 550 m 1
 523 515 l 1
 559 515 l 1
 530 494 l 1
 541 460 l 1
 512 481 l 1
 482 460 l 1
 493 494 l 1
 464 515 l 1
 500 515 l 1
 512 550 l 1
352 550 m 1
 363 515 l 1
 399 515 l 1
 370 494 l 1
 381 460 l 1
 352 481 l 1
 322 460 l 1
 333 494 l 1
 304 515 l 1
 340 515 l 1
 352 550 l 1
192 550 m 1
 203 515 l 1
 239 515 l 1
 210 494 l 1
 221 460 l 1
 192 481 l 1
 162 460 l 1
 173 494 l 1
 144 515 l 1
 180 515 l 1
 192 550 l 1
529 633 m 1
 540 598 l 1
 577 598 l 1
 547 577 l 1
 559 543 l 1
 529 564 l 1
 500 543 l 1
 511 577 l 1
 482 598 l 1
 518 598 l 1
 529 633 l 1
316 633 m 1
 327 598 l 1
 364 598 l 1
 334 577 l 1
 346 543 l 1
 316 564 l 1
 287 543 l 1
 298 577 l 1
 269 598 l 1
 305 598 l 1
 316 633 l 1
209 633 m 1
 220 598 l 1
 257 598 l 1
 227 577 l 1
 239 543 l 1
 209 564 l 1
 180 543 l 1
 191 577 l 1
 162 598 l 1
 198 598 l 1
 209 633 l 1
547 717 m 1
 558 682 l 1
 595 682 l 1
 565 661 l 1
 577 627 l 1
 547 648 l 1
 518 627 l 1
 529 661 l 1
 500 682 l 1
 536 682 l 1
 547 717 l 1
280 717 m 1
 291 682 l 1
 328 682 l 1
 298 661 l 1
 310 627 l 1
 280 648 l 1
 251 627 l 1
 262 661 l 1
 233 682 l 1
 269 682 l 1
 280 717 l 1
565 800 m 1
 576 765 l 1
 613 765 l 1
 583 744 l 1
 594 710 l 1
 565 731 l 1
 536 710 l 1
 547 744 l 1
 517 765 l 1
 554 765 l 1
 565 800 l 1
245 800 m 1
 256 765 l 1
 293 765 l 1
 263 744 l 1
 274 710 l 1
 245 731 l 1
 216 710 l 1
 227 744 l 1
 197 765 l 1
 234 765 l 1
 245 800 l 1
EndSplineSet
EndChar

StartChar: R
Encoding: 82 82 98
Width: 600
VWidth: 0
UnlinkRmOvrlpSave: 1
Flags: W
HStem: 210 21G<115.471 136.619 139.381 160.529 435.471 456.619 459.381 480.529> 210 21G<115.471 136.619 139.381 160.529 435.471 456.619 459.381 480.529> 613 20G<202.714 215.286 522.714 535.286> 780 20G<238.714 251.286 345.714 358.286 451.714 464.286>
LayerCount: 2
Back
Fore
SplineSet
458 300 m 1x70
 469 265 l 1
 506 265 l 1
 476 244 l 1
 487 210 l 1
 458 231 l 1
 429 210 l 1
 440 244 l 1
 410 265 l 1
 447 265 l 1
 458 300 l 1x70
138 300 m 1
 149 265 l 1
 186 265 l 1
 156 244 l 1
 167 210 l 1
 138 231 l 1
 109 210 l 1
 120 244 l 1
 90 265 l 1
 127 265 l 1
 138 300 l 1
423 383 m 1
 434 348 l 1
 470 348 l 1
 441 327 l 1
 452 293 l 1
 423 314 l 1
 393 293 l 1
 405 327 l 1
 375 348 l 1
 412 348 l 1
 423 383 l 1
156 383 m 1
 167 348 l 1
 203 348 l 1
 174 327 l 1
 185 293 l 1
 156 314 l 1
 126 293 l 1
 138 327 l 1
 108 348 l 1
 145 348 l 1
 156 383 l 1
387 467 m 1
 398 432 l 1
 434 432 l 1
 405 411 l 1
 416 377 l 1
 387 398 l 1
 357 377 l 1
 369 411 l 1
 339 432 l 1
 376 432 l 1
 387 467 l 1
174 467 m 1
 185 432 l 1
 221 432 l 1
 192 411 l 1
 203 377 l 1
 174 398 l 1
 144 377 l 1
 156 411 l 1
 126 432 l 1
 163 432 l 1
 174 467 l 1
405 550 m 1
 416 515 l 1
 452 515 l 1
 423 494 l 1
 434 460 l 1
 405 481 l 1
 375 460 l 1
 386 494 l 1
 357 515 l 1
 393 515 l 1
 405 550 l 1
299 550 m 1
 310 515 l 1
 346 515 l 1
 317 494 l 1
 328 460 l 1
 299 481 l 1
 269 460 l 1
 280 494 l 1
 251 515 l 1
 287 515 l 1
 299 550 l 1
192 550 m 1
 203 515 l 1
 239 515 l 1
 210 494 l 1
 221 460 l 1
 192 481 l 1
 162 460 l 1
 173 494 l 1
 144 515 l 1
 180 515 l 1
 192 550 l 1
529 633 m 1
 540 598 l 1
 577 598 l 1
 547 577 l 1
 559 543 l 1
 529 564 l 1
 500 543 l 1
 511 577 l 1
 482 598 l 1
 518 598 l 1
 529 633 l 1
209 633 m 1
 220 598 l 1
 257 598 l 1
 227 577 l 1
 239 543 l 1
 209 564 l 1
 180 543 l 1
 191 577 l 1
 162 598 l 1
 198 598 l 1
 209 633 l 1
547 717 m 1
 558 682 l 1
 595 682 l 1
 565 661 l 1
 577 627 l 1
 547 648 l 1
 518 627 l 1
 529 661 l 1
 500 682 l 1
 536 682 l 1
 547 717 l 1
227 717 m 1
 238 682 l 1
 275 682 l 1
 245 661 l 1
 257 627 l 1
 227 648 l 1
 198 627 l 1
 209 661 l 1
 180 682 l 1
 216 682 l 1
 227 717 l 1
458 800 m 1
 469 765 l 1
 506 765 l 1
 476 744 l 1
 487 710 l 1
 458 731 l 1
 429 710 l 1
 440 744 l 1
 410 765 l 1
 447 765 l 1
 458 800 l 1
352 800 m 1
 363 765 l 1
 400 765 l 1
 370 744 l 1
 381 710 l 1
 352 731 l 1
 323 710 l 1
 334 744 l 1
 304 765 l 1
 341 765 l 1
 352 800 l 1
245 800 m 1
 256 765 l 1
 293 765 l 1
 263 744 l 1
 274 710 l 1
 245 731 l 1
 216 710 l 1
 227 744 l 1
 197 765 l 1
 234 765 l 1
 245 800 l 1
EndSplineSet
EndChar

StartChar: V
Encoding: 86 86 99
Width: 600
VWidth: 0
UnlinkRmOvrlpSave: 1
Flags: W
HStem: 210 21G<221.471 242.619 245.381 266.529> 210 21G<221.471 242.619 245.381 266.529> 613 20G<148.714 161.286 468.714 481.286> 780 20G<184.714 197.286 504.714 517.286>
LayerCount: 2
Back
Fore
SplineSet
244 300 m 1x70
 255 265 l 1
 292 265 l 1
 262 244 l 1
 273 210 l 1
 244 231 l 1
 215 210 l 1
 226 244 l 1
 196 265 l 1
 233 265 l 1
 244 300 l 1x70
315 383 m 1
 326 348 l 1
 362 348 l 1
 333 327 l 1
 344 293 l 1
 315 314 l 1
 285 293 l 1
 297 327 l 1
 267 348 l 1
 304 348 l 1
 315 383 l 1
209 383 m 1
 220 348 l 1
 256 348 l 1
 227 327 l 1
 238 293 l 1
 209 314 l 1
 179 293 l 1
 191 327 l 1
 161 348 l 1
 198 348 l 1
 209 383 l 1
387 467 m 1
 398 432 l 1
 434 432 l 1
 405 411 l 1
 416 377 l 1
 387 398 l 1
 357 377 l 1
 369 411 l 1
 339 432 l 1
 376 432 l 1
 387 467 l 1
173 467 m 1
 184 432 l 1
 220 432 l 1
 191 411 l 1
 202 377 l 1
 173 398 l 1
 143 377 l 1
 155 411 l 1
 125 432 l 1
 162 432 l 1
 173 467 l 1
458 550 m 1
 469 515 l 1
 505 515 l 1
 476 494 l 1
 487 460 l 1
 458 481 l 1
 428 460 l 1
 439 494 l 1
 410 515 l 1
 446 515 l 1
 458 550 l 1
138 550 m 1
 149 515 l 1
 185 515 l 1
 156 494 l 1
 167 460 l 1
 138 481 l 1
 108 460 l 1
 119 494 l 1
 90 515 l 1
 126 515 l 1
 138 550 l 1
475 633 m 1
 486 598 l 1
 523 598 l 1
 493 577 l 1
 505 543 l 1
 475 564 l 1
 446 543 l 1
 457 577 l 1
 428 598 l 1
 464 598 l 1
 475 633 l 1
155 633 m 1
 166 598 l 1
 203 598 l 1
 173 577 l 1
 185 543 l 1
 155 564 l 1
 126 543 l 1
 137 577 l 1
 108 598 l 1
 144 598 l 1
 155 633 l 1
493 717 m 1
 504 682 l 1
 541 682 l 1
 511 661 l 1
 523 627 l 1
 493 648 l 1
 464 627 l 1
 475 661 l 1
 446 682 l 1
 482 682 l 1
 493 717 l 1
173 717 m 1
 184 682 l 1
 221 682 l 1
 191 661 l 1
 203 627 l 1
 173 648 l 1
 144 627 l 1
 155 661 l 1
 126 682 l 1
 162 682 l 1
 173 717 l 1
511 800 m 1
 522 765 l 1
 559 765 l 1
 529 744 l 1
 540 710 l 1
 511 731 l 1
 482 710 l 1
 493 744 l 1
 463 765 l 1
 500 765 l 1
 511 800 l 1
191 800 m 1
 202 765 l 1
 239 765 l 1
 209 744 l 1
 220 710 l 1
 191 731 l 1
 162 710 l 1
 173 744 l 1
 143 765 l 1
 180 765 l 1
 191 800 l 1
EndSplineSet
EndChar

StartChar: Ugrave
Encoding: 217 217 100
Width: 600
VWidth: 0
UnlinkRmOvrlpSave: 1
Flags: W
HStem: 210 21G<150.471 171.619 174.381 195.529 257.471 278.619 281.381 302.529 364.471 385.619 388.381 409.529> 210 21G<150.471 171.619 174.381 195.529 257.471 278.619 281.381 302.529 364.471 385.619 388.381 409.529> 613 20G<184.714 197.286 504.714 517.286> 780 20G<380.714 393.286>
LayerCount: 2
Back
Fore
SplineSet
387 300 m 1x70
 398 265 l 1
 435 265 l 1
 405 244 l 1
 416 210 l 1
 387 231 l 1
 358 210 l 1
 369 244 l 1
 339 265 l 1
 376 265 l 1
 387 300 l 1x70
280 300 m 1
 291 265 l 1
 328 265 l 1
 298 244 l 1
 309 210 l 1
 280 231 l 1
 251 210 l 1
 262 244 l 1
 232 265 l 1
 269 265 l 1
 280 300 l 1
173 300 m 1
 184 265 l 1
 221 265 l 1
 191 244 l 1
 202 210 l 1
 173 231 l 1
 144 210 l 1
 155 244 l 1
 125 265 l 1
 162 265 l 1
 173 300 l 1
458 383 m 1
 469 348 l 1
 505 348 l 1
 476 327 l 1
 487 293 l 1
 458 314 l 1
 428 293 l 1
 440 327 l 1
 410 348 l 1
 447 348 l 1
 458 383 l 1
138 383 m 1
 149 348 l 1
 185 348 l 1
 156 327 l 1
 167 293 l 1
 138 314 l 1
 108 293 l 1
 120 327 l 1
 90 348 l 1
 127 348 l 1
 138 383 l 1
476 467 m 1
 487 432 l 1
 523 432 l 1
 494 411 l 1
 505 377 l 1
 476 398 l 1
 446 377 l 1
 458 411 l 1
 428 432 l 1
 465 432 l 1
 476 467 l 1
156 467 m 1
 167 432 l 1
 203 432 l 1
 174 411 l 1
 185 377 l 1
 156 398 l 1
 126 377 l 1
 138 411 l 1
 108 432 l 1
 145 432 l 1
 156 467 l 1
494 550 m 1
 505 515 l 1
 541 515 l 1
 512 494 l 1
 523 460 l 1
 494 481 l 1
 464 460 l 1
 475 494 l 1
 446 515 l 1
 482 515 l 1
 494 550 l 1
174 550 m 1
 185 515 l 1
 221 515 l 1
 192 494 l 1
 203 460 l 1
 174 481 l 1
 144 460 l 1
 155 494 l 1
 126 515 l 1
 162 515 l 1
 174 550 l 1
511 633 m 1
 522 598 l 1
 559 598 l 1
 529 577 l 1
 541 543 l 1
 511 564 l 1
 482 543 l 1
 493 577 l 1
 464 598 l 1
 500 598 l 1
 511 633 l 1
191 633 m 1
 202 598 l 1
 239 598 l 1
 209 577 l 1
 221 543 l 1
 191 564 l 1
 162 543 l 1
 173 577 l 1
 144 598 l 1
 180 598 l 1
 191 633 l 1
529 717 m 1
 540 682 l 1
 577 682 l 1
 547 661 l 1
 559 627 l 1
 529 648 l 1
 500 627 l 1
 511 661 l 1
 482 682 l 1
 518 682 l 1
 529 717 l 1
422 717 m 1
 433 682 l 1
 470 682 l 1
 440 661 l 1
 452 627 l 1
 422 648 l 1
 393 627 l 1
 404 661 l 1
 375 682 l 1
 411 682 l 1
 422 717 l 1
209 717 m 1
 220 682 l 1
 257 682 l 1
 227 661 l 1
 239 627 l 1
 209 648 l 1
 180 627 l 1
 191 661 l 1
 162 682 l 1
 198 682 l 1
 209 717 l 1
387 800 m 1
 398 765 l 1
 435 765 l 1
 405 744 l 1
 416 710 l 1
 387 731 l 1
 358 710 l 1
 369 744 l 1
 339 765 l 1
 376 765 l 1
 387 800 l 1
EndSplineSet
EndChar

